Prata-Regular.ufo
<glyph name="dollar" format="2">
  <advance width="653"/>
  <unicode hex="0024"/>
  <outline>
    <contour>
      <point x="372" y="-104" type="line"/>
      <point x="397" y="-104" type="line"/>
      <point x="397" y="896" type="line"/>
      <point x="372" y="896" type="line"/>
    </contour>
    <contour>
      <point x="272" y="-104" type="line"/>
      <point x="297" y="-104" type="line"/>
      <point x="297" y="896" type="line"/>
      <point x="272" y="896" type="line"/>
    </contour>
    <component base="S"/>
  </outline>
</glyph>
<glyph name="percent" format="2">
  <advance width="829"/>
  <unicode hex="0025"/>
  <outline>
    <contour>
      <point x="189" y="0" type="line"/>
      <point x="241" y="0" type="line"/>
      <point x="640" y="800" type="line"/>
      <point x="589" y="800" type="line"/>
    </contour>
    <contour>
      <point x="196" y="370" type="curve" smooth="yes"/>
      <point x="288" y="370"/>
      <point x="355" y="443"/>
      <point x="355" y="588" type="curve" smooth="yes"/>
      <point x="355" y="733"/>
      <point x="288" y="805"/>
      <point x="196" y="805" type="curve" smooth="yes"/>
      <point x="105" y="805"/>
      <point x="38" y="733"/>
      <point x="38" y="588" type="curve" smooth="yes"/>
      <point x="38" y="443"/>
      <point x="105" y="370"/>
    </contour>
    <contour>
      <point x="196" y="392" type="curve" smooth="yes"/>
      <point x="146" y="392"/>
      <point x="115" y="431"/>
      <point x="115" y="537" type="curve" smooth="yes"/>
      <point x="115" y="639" type="line" smooth="yes"/>
      <point x="115" y="745"/>
      <point x="146" y="784"/>
      <point x="196" y="784" type="curve" smooth="yes"/>
      <point x="247" y="784"/>
      <point x="277" y="745"/>
      <point x="277" y="639" type="curve" smooth="yes"/>
      <point x="277" y="537" type="line" smooth="yes"/>
      <point x="277" y="431"/>
      <point x="247" y="392"/>
    </contour>
    <contour>
      <point x="633" y="-5" type="curve" smooth="yes"/>
      <point x="724" y="-5"/>
      <point x="791" y="68"/>
      <point x="791" y="213" type="curve" smooth="yes"/>
      <point x="791" y="358"/>
      <point x="724" y="430"/>
      <point x="633" y="430" type="curve" smooth="yes"/>
      <point x="541" y="430"/>
      <point x="474" y="358"/>
      <point x="474" y="213" type="curve" smooth="yes"/>
      <point x="474" y="68"/>
      <point x="541" y="-5"/>
    </contour>
    <contour>
      <point x="633" y="17" type="curve" smooth="yes"/>
      <point x="582" y="17"/>
      <point x="552" y="56"/>
      <point x="552" y="162" type="curve" smooth="yes"/>
      <point x="552" y="264" type="line" smooth="yes"/>
      <point x="552" y="370"/>
      <point x="582" y="409"/>
      <point x="633" y="409" type="curve" smooth="yes"/>
      <point x="683" y="409"/>
      <point x="714" y="370"/>
      <point x="714" y="264" type="curve" smooth="yes"/>
      <point x="714" y="162" type="line" smooth="yes"/>
      <point x="714" y="56"/>
      <point x="683" y="17"/>
    </contour>
  </outline>
</glyph>
<glyph name="quotesingle" format="2">
  <advance width="166"/>
  <unicode hex="0027"/>
  <outline>
    <contour>
      <point x="75" y="565" type="curve"/>
      <point x="92" y="565" type="line"/>
      <point x="101" y="685"/>
      <point x="121" y="727"/>
      <point x="121" y="770" type="curve" smooth="yes"/>
      <point x="121" y="790"/>
      <point x="108" y="810"/>
      <point x="83" y="810" type="curve" smooth="yes"/>
      <point x="58" y="810"/>
      <point x="46" y="790"/>
      <point x="46" y="770" type="curve" smooth="yes"/>
      <point x="46" y="727"/>
      <point x="65" y="685"/>
    </contour>
  </outline>
</glyph>
<glyph name="asterisk" format="2">
  <advance width="456"/>
  <unicode hex="002A"/>
  <outline>
    <contour>
      <point x="229" y="373" type="curve" smooth="yes"/>
      <point x="246" y="373"/>
      <point x="256" y="386"/>
      <point x="256" y="401" type="curve" smooth="yes"/>
      <point x="256" y="422"/>
      <point x="235" y="531"/>
      <point x="235" y="552" type="curve"/>
      <point x="254" y="542"/>
      <point x="337" y="470"/>
      <point x="356" y="459" type="curve" smooth="yes"/>
      <point x="368" y="452"/>
      <point x="385" y="453"/>
      <point x="393" y="468" type="curve" smooth="yes"/>
      <point x="402" y="483"/>
      <point x="395" y="498"/>
      <point x="382" y="505" type="curve" smooth="yes"/>
      <point x="364" y="516"/>
      <point x="260" y="553"/>
      <point x="242" y="564" type="curve"/>
      <point x="260" y="575"/>
      <point x="365" y="611"/>
      <point x="383" y="622" type="curve" smooth="yes"/>
      <point x="396" y="629"/>
      <point x="402" y="645"/>
      <point x="394" y="659" type="curve" smooth="yes"/>
      <point x="385" y="674"/>
      <point x="369" y="676"/>
      <point x="357" y="668" type="curve"/>
      <point x="338" y="658"/>
      <point x="254" y="586"/>
      <point x="235" y="575" type="curve"/>
      <point x="235" y="597"/>
      <point x="255" y="706"/>
      <point x="255" y="727" type="curve" smooth="yes"/>
      <point x="255" y="742"/>
      <point x="245" y="755"/>
      <point x="228" y="755" type="curve" smooth="yes"/>
      <point x="211" y="755"/>
      <point x="201" y="742"/>
      <point x="201" y="727" type="curve" smooth="yes"/>
      <point x="201" y="706"/>
      <point x="222" y="597"/>
      <point x="222" y="575" type="curve"/>
      <point x="203" y="586"/>
      <point x="119" y="658"/>
      <point x="101" y="668" type="curve" smooth="yes"/>
      <point x="96" y="671"/>
      <point x="90" y="672"/>
      <point x="86" y="672" type="curve" smooth="yes"/>
      <point x="71" y="672"/>
      <point x="59" y="661"/>
      <point x="59" y="646" type="curve" smooth="yes"/>
      <point x="59" y="636"/>
      <point x="65" y="627"/>
      <point x="74" y="622" type="curve" smooth="yes"/>
      <point x="92" y="611"/>
      <point x="197" y="575"/>
      <point x="215" y="564" type="curve"/>
      <point x="197" y="553"/>
      <point x="93" y="516"/>
      <point x="75" y="505" type="curve" smooth="yes"/>
      <point x="66" y="500"/>
      <point x="60" y="492"/>
      <point x="60" y="482" type="curve" smooth="yes"/>
      <point x="60" y="466"/>
      <point x="71" y="455"/>
      <point x="87" y="455" type="curve" smooth="yes"/>
      <point x="92" y="455"/>
      <point x="97" y="456"/>
      <point x="102" y="459" type="curve" smooth="yes"/>
      <point x="120" y="470"/>
      <point x="204" y="542"/>
      <point x="222" y="552" type="curve"/>
      <point x="222" y="531"/>
      <point x="203" y="422"/>
      <point x="202" y="401" type="curve" smooth="yes"/>
      <point x="202" y="386"/>
      <point x="212" y="374"/>
    </contour>
  </outline>
</glyph>
<glyph name="plus" format="2">
  <advance width="529"/>
  <unicode hex="002B"/>
  <outline>
    <contour>
      <point x="245" y="127" type="line"/>
      <point x="283" y="127" type="line"/>
      <point x="283" y="338" type="line"/>
      <point x="494" y="338" type="line"/>
      <point x="494" y="376" type="line"/>
      <point x="283" y="376" type="line"/>
      <point x="283" y="586" type="line"/>
      <point x="245" y="586" type="line"/>
      <point x="245" y="376" type="line"/>
      <point x="35" y="376" type="line"/>
      <point x="35" y="338" type="line"/>
      <point x="245" y="338" type="line"/>
    </contour>
  </outline>
</glyph>
<glyph name="comma" format="2">
  <advance width="232"/>
  <unicode hex="002C"/>
  <outline>
    <contour>
      <point x="62" y="-162" type="line"/>
      <point x="148" y="-120"/>
      <point x="186" y="-57"/>
      <point x="186" y="16" type="curve" smooth="yes"/>
      <point x="186" y="70"/>
      <point x="158" y="108"/>
      <point x="110" y="108" type="curve" smooth="yes"/>
      <point x="77" y="108"/>
      <point x="50" y="83"/>
      <point x="50" y="50" type="curve" smooth="yes"/>
      <point x="50" y="17"/>
      <point x="77" y="-10"/>
      <point x="110" y="-10" type="curve" smooth="yes"/>
      <point x="123" y="-10"/>
      <point x="130" y="-18"/>
      <point x="130" y="-30" type="curve" smooth="yes"/>
      <point x="130" y="-78"/>
      <point x="85" y="-125"/>
      <point x="51" y="-146" type="curve"/>
    </contour>
  </outline>
</glyph>
<glyph name="three" format="2">
  <advance width="620"/>
  <unicode hex="0033"/>
  <outline>
    <contour>
      <point x="267" y="-20" type="curve" smooth="yes"/>
      <point x="471" y="-20"/>
      <point x="567" y="90"/>
      <point x="567" y="208" type="curve" smooth="yes"/>
      <point x="567" y="360"/>
      <point x="447" y="436"/>
      <point x="289" y="444" type="curve"/>
      <point x="289" y="447" type="line"/>
      <point x="442" y="467"/>
      <point x="533" y="525"/>
      <point x="533" y="645" type="curve" smooth="yes"/>
      <point x="533" y="757"/>
      <point x="442" y="820"/>
      <point x="291" y="820" type="curve" smooth="yes"/>
      <point x="175" y="820"/>
      <point x="68" y="756"/>
      <point x="68" y="664" type="curve" smooth="yes"/>
      <point x="68" y="610"/>
      <point x="105" y="580"/>
      <point x="142" y="580" type="curve" smooth="yes"/>
      <point x="177" y="580"/>
      <point x="212" y="602"/>
      <point x="212" y="651" type="curve"/>
      <point x="177" y="667"/>
      <point x="162" y="692"/>
      <point x="162" y="727" type="curve" smooth="yes"/>
      <point x="162" y="772"/>
      <point x="207" y="797"/>
      <point x="280" y="797" type="curve" smooth="yes"/>
      <point x="362" y="797"/>
      <point x="414" y="739"/>
      <point x="414" y="650" type="curve" smooth="yes"/>
      <point x="414" y="535"/>
      <point x="332" y="465"/>
      <point x="192" y="457" type="curve"/>
      <point x="192" y="435" type="line"/>
      <point x="349" y="425"/>
      <point x="429" y="347"/>
      <point x="429" y="208" type="curve" smooth="yes"/>
      <point x="429" y="76"/>
      <point x="361" y="3"/>
      <point x="267" y="3" type="curve" smooth="yes"/>
      <point x="191" y="3"/>
      <point x="141" y="40"/>
      <point x="141" y="95" type="curve" smooth="yes"/>
      <point x="141" y="129"/>
      <point x="157" y="157"/>
      <point x="194" y="175" type="curve"/>
      <point x="194" y="226"/>
      <point x="157" y="249"/>
      <point x="120" y="249" type="curve" smooth="yes"/>
      <point x="81" y="249"/>
      <point x="42" y="219"/>
      <point x="42" y="161" type="curve" smooth="yes"/>
      <point x="42" y="58"/>
      <point x="142" y="-20"/>
    </contour>
  </outline>
</glyph>
<glyph name="five" format="2">
  <advance width="606"/>
  <unicode hex="0035"/>
  <outline>
    <contour>
      <point x="251" y="-20" type="curve" smooth="yes"/>
      <point x="464" y="-20"/>
      <point x="551" y="115"/>
      <point x="551" y="232" type="curve" smooth="yes"/>
      <point x="551" y="381"/>
      <point x="425" y="498"/>
      <point x="243" y="498" type="curve" smooth="yes"/>
      <point x="209" y="498"/>
      <point x="174" y="494"/>
      <point x="138" y="484" type="curve"/>
      <point x="164" y="683" type="line"/>
      <point x="403" y="683" type="line" smooth="yes"/>
      <point x="493" y="683"/>
      <point x="555" y="715"/>
      <point x="566" y="853" type="curve"/>
      <point x="543" y="854" type="line"/>
      <point x="529" y="804"/>
      <point x="489" y="800"/>
      <point x="418" y="800" type="curve" smooth="yes"/>
      <point x="153" y="800" type="line"/>
      <point x="109" y="466" type="line"/>
      <point x="127" y="453" type="line"/>
      <point x="161" y="464"/>
      <point x="194" y="470"/>
      <point x="225" y="470" type="curve" smooth="yes"/>
      <point x="333" y="470"/>
      <point x="413" y="396"/>
      <point x="413" y="233" type="curve" smooth="yes"/>
      <point x="413" y="101"/>
      <point x="354" y="3"/>
      <point x="251" y="3" type="curve" smooth="yes"/>
      <point x="175" y="3"/>
      <point x="125" y="40"/>
      <point x="125" y="95" type="curve" smooth="yes"/>
      <point x="125" y="129"/>
      <point x="141" y="157"/>
      <point x="178" y="175" type="curve"/>
      <point x="178" y="226"/>
      <point x="141" y="249"/>
      <point x="104" y="249" type="curve" smooth="yes"/>
      <point x="65" y="249"/>
      <point x="26" y="219"/>
      <point x="26" y="161" type="curve" smooth="yes"/>
      <point x="26" y="58"/>
      <point x="126" y="-20"/>
    </contour>
  </outline>
</glyph>
<glyph name="six" format="2">
  <advance width="649"/>
  <unicode hex="0036"/>
  <outline>
    <contour>
      <point x="329" y="-20" type="curve" smooth="yes"/>
      <point x="472" y="-20"/>
      <point x="598" y="75"/>
      <point x="598" y="244" type="curve" smooth="yes"/>
      <point x="598" y="407"/>
      <point x="492" y="498"/>
      <point x="346" y="498" type="curve" smooth="yes"/>
      <point x="283" y="498"/>
      <point x="223" y="471"/>
      <point x="183" y="423" type="curve"/>
      <point x="184" y="535" type="line" smooth="yes"/>
      <point x="185" y="736"/>
      <point x="261" y="800"/>
      <point x="355" y="800" type="curve" smooth="yes"/>
      <point x="421" y="800"/>
      <point x="463" y="761"/>
      <point x="463" y="713" type="curve" smooth="yes"/>
      <point x="463" y="690"/>
      <point x="455" y="676"/>
      <point x="435" y="660" type="curve"/>
      <point x="435" y="625"/>
      <point x="463" y="604"/>
      <point x="498" y="604" type="curve" smooth="yes"/>
      <point x="542" y="604"/>
      <point x="573" y="641"/>
      <point x="573" y="685" type="curve" smooth="yes"/>
      <point x="573" y="763"/>
      <point x="480" y="820"/>
      <point x="355" y="820" type="curve" smooth="yes"/>
      <point x="176" y="820"/>
      <point x="60" y="685"/>
      <point x="60" y="410" type="curve" smooth="yes"/>
      <point x="60" y="161"/>
      <point x="121" y="-20"/>
    </contour>
    <contour>
      <point x="329" y="2" type="curve" smooth="yes"/>
      <point x="226" y="2"/>
      <point x="181" y="89"/>
      <point x="182" y="236" type="curve" smooth="yes"/>
      <point x="183" y="375" type="line"/>
      <point x="214" y="437"/>
      <point x="274" y="474"/>
      <point x="339" y="474" type="curve" smooth="yes"/>
      <point x="434" y="474"/>
      <point x="478" y="405"/>
      <point x="478" y="292" type="curve" smooth="yes"/>
      <point x="478" y="194" type="line" smooth="yes"/>
      <point x="478" y="75"/>
      <point x="426" y="2"/>
    </contour>
  </outline>
</glyph>
<glyph name="nine" format="2">
  <advance width="649"/>
  <unicode hex="0039"/>
  <outline>
    <contour>
      <point x="294" y="-20" type="curve" smooth="yes"/>
      <point x="473" y="-20"/>
      <point x="589" y="115"/>
      <point x="589" y="390" type="curve" smooth="yes"/>
      <point x="589" y="639"/>
      <point x="528" y="820"/>
      <point x="320" y="820" type="curve" smooth="yes"/>
      <point x="177" y="820"/>
      <point x="51" y="725"/>
      <point x="51" y="556" type="curve" smooth="yes"/>
      <point x="51" y="393"/>
      <point x="157" y="302"/>
      <point x="303" y="302" type="curve" smooth="yes"/>
      <point x="366" y="302"/>
      <point x="426" y="328"/>
      <point x="465" y="377" type="curve"/>
      <point x="465" y="265" type="line" smooth="yes"/>
      <point x="464" y="64"/>
      <point x="388" y="0"/>
      <point x="294" y="0" type="curve" smooth="yes"/>
      <point x="228" y="0"/>
      <point x="186" y="39"/>
      <point x="186" y="87" type="curve" smooth="yes"/>
      <point x="186" y="110"/>
      <point x="194" y="124"/>
      <point x="214" y="140" type="curve"/>
      <point x="214" y="175"/>
      <point x="186" y="196"/>
      <point x="151" y="196" type="curve" smooth="yes"/>
      <point x="107" y="196"/>
      <point x="76" y="159"/>
      <point x="76" y="115" type="curve" smooth="yes"/>
      <point x="76" y="37"/>
      <point x="169" y="-20"/>
    </contour>
    <contour>
      <point x="310" y="326" type="curve" smooth="yes"/>
      <point x="215" y="326"/>
      <point x="171" y="395"/>
      <point x="171" y="508" type="curve" smooth="yes"/>
      <point x="171" y="606" type="line" smooth="yes"/>
      <point x="171" y="725"/>
      <point x="223" y="798"/>
      <point x="320" y="798" type="curve" smooth="yes"/>
      <point x="423" y="798"/>
      <point x="468" y="711"/>
      <point x="467" y="564" type="curve" smooth="yes"/>
      <point x="466" y="425" type="line"/>
      <point x="435" y="363"/>
      <point x="374" y="326"/>
    </contour>
  </outline>
</glyph>
<glyph name="semicolon" format="2">
  <advance width="274"/>
  <unicode hex="003B"/>
  <outline>
    <contour>
      <point x="83" y="-162" type="line"/>
      <point x="169" y="-120"/>
      <point x="207" y="-57"/>
      <point x="207" y="16" type="curve" smooth="yes"/>
      <point x="207" y="70"/>
      <point x="179" y="108"/>
      <point x="131" y="108" type="curve" smooth="yes"/>
      <point x="98" y="108"/>
      <point x="71" y="83"/>
      <point x="71" y="50" type="curve" smooth="yes"/>
      <point x="71" y="17"/>
      <point x="98" y="-10"/>
      <point x="131" y="-10" type="curve" smooth="yes"/>
      <point x="144" y="-10"/>
      <point x="151" y="-18"/>
      <point x="151" y="-30" type="curve" smooth="yes"/>
      <point x="151" y="-78"/>
      <point x="106" y="-125"/>
      <point x="72" y="-146" type="curve"/>
    </contour>
    <contour>
      <point x="131" y="341" type="curve" smooth="yes"/>
      <point x="164" y="341"/>
      <point x="190" y="368"/>
      <point x="190" y="401" type="curve" smooth="yes"/>
      <point x="190" y="434"/>
      <point x="164" y="459"/>
      <point x="131" y="459" type="curve" smooth="yes"/>
      <point x="98" y="459"/>
      <point x="71" y="434"/>
      <point x="71" y="401" type="curve" smooth="yes"/>
      <point x="71" y="368"/>
      <point x="98" y="341"/>
    </contour>
  </outline>
</glyph>
<glyph name="question" format="2">
  <advance width="526"/>
  <unicode hex="003F"/>
  <outline>
    <contour>
      <point x="224" y="165" type="curve"/>
      <point x="246" y="165" type="line"/>
      <point x="246" y="376"/>
      <point x="485" y="434"/>
      <point x="485" y="623" type="curve" smooth="yes"/>
      <point x="485" y="771"/>
      <point x="406" y="820"/>
      <point x="269" y="820" type="curve" smooth="yes"/>
      <point x="146" y="820"/>
      <point x="35" y="748"/>
      <point x="35" y="641" type="curve" smooth="yes"/>
      <point x="35" y="587"/>
      <point x="72" y="557"/>
      <point x="110" y="557" type="curve" smooth="yes"/>
      <point x="145" y="557"/>
      <point x="180" y="579"/>
      <point x="180" y="629" type="curve"/>
      <point x="145" y="646"/>
      <point x="130" y="672"/>
      <point x="130" y="705" type="curve" smooth="yes"/>
      <point x="130" y="762"/>
      <point x="191" y="798"/>
      <point x="253" y="798" type="curve" smooth="yes"/>
      <point x="314" y="798"/>
      <point x="363" y="763"/>
      <point x="363" y="616" type="curve" smooth="yes"/>
      <point x="363" y="452"/>
      <point x="224" y="376"/>
    </contour>
    <contour>
      <point x="235" y="-10" type="curve" smooth="yes"/>
      <point x="268" y="-10"/>
      <point x="294" y="17"/>
      <point x="294" y="50" type="curve" smooth="yes"/>
      <point x="294" y="83"/>
      <point x="268" y="108"/>
      <point x="235" y="108" type="curve" smooth="yes"/>
      <point x="202" y="108"/>
      <point x="176" y="83"/>
      <point x="176" y="50" type="curve" smooth="yes"/>
      <point x="176" y="17"/>
      <point x="202" y="-10"/>
    </contour>
  </outline>
</glyph>
<glyph name="at" format="2">
  <advance width="887"/>
  <unicode hex="0040"/>
  <outline>
    <contour>
      <point x="465" y="-10" type="curve" smooth="yes"/>
      <point x="571" y="-10"/>
      <point x="641" y="14"/>
      <point x="720" y="57" type="curve"/>
      <point x="706" y="83" type="line"/>
      <point x="633" y="42"/>
      <point x="571" y="20"/>
      <point x="465" y="20" type="curve" smooth="yes"/>
      <point x="250" y="20"/>
      <point x="83" y="185"/>
      <point x="83" y="400" type="curve" smooth="yes"/>
      <point x="83" y="616"/>
      <point x="250" y="783"/>
      <point x="465" y="783" type="curve" smooth="yes"/>
      <point x="679" y="783"/>
      <point x="818" y="659"/>
      <point x="818" y="464" type="curve" smooth="yes"/>
      <point x="818" y="333"/>
      <point x="738" y="215"/>
      <point x="639" y="215" type="curve" smooth="yes"/>
      <point x="601" y="215"/>
      <point x="584" y="227"/>
      <point x="584" y="255" type="curve" smooth="yes"/>
      <point x="584" y="265"/>
      <point x="586" y="277"/>
      <point x="590" y="292" type="curve" smooth="yes"/>
      <point x="685" y="625" type="line"/>
      <point x="603" y="625" type="line"/>
      <point x="587" y="576" type="line"/>
      <point x="567" y="612"/>
      <point x="522" y="642"/>
      <point x="465" y="642" type="curve" smooth="yes"/>
      <point x="340" y="642"/>
      <point x="208" y="527"/>
      <point x="208" y="360" type="curve" smooth="yes"/>
      <point x="208" y="266"/>
      <point x="259" y="185"/>
      <point x="373" y="185" type="curve" smooth="yes"/>
      <point x="422" y="185"/>
      <point x="472" y="210"/>
      <point x="503" y="242" type="curve"/>
      <point x="524" y="200"/>
      <point x="571" y="184"/>
      <point x="619" y="184" type="curve" smooth="yes"/>
      <point x="749" y="184"/>
      <point x="848" y="302"/>
      <point x="848" y="464" type="curve" smooth="yes"/>
      <point x="848" y="672"/>
      <point x="701" y="810"/>
      <point x="465" y="810" type="curve" smooth="yes"/>
      <point x="233" y="810"/>
      <point x="54" y="632"/>
      <point x="54" y="400" type="curve" smooth="yes"/>
      <point x="54" y="168"/>
      <point x="233" y="-10"/>
    </contour>
    <contour>
      <point x="388" y="221" type="curve" smooth="yes"/>
      <point x="327" y="221"/>
      <point x="303" y="267"/>
      <point x="303" y="326" type="curve" smooth="yes"/>
      <point x="303" y="459"/>
      <point x="373" y="611"/>
      <point x="474" y="611" type="curve" smooth="yes"/>
      <point x="526" y="611"/>
      <point x="557" y="583"/>
      <point x="576" y="542" type="curve"/>
      <point x="498" y="281" type="line"/>
      <point x="470" y="243"/>
      <point x="434" y="221"/>
    </contour>
  </outline>
</glyph>
<glyph name="A" format="2">
  <advance width="719"/>
  <unicode hex="0041"/>
  <anchor x="360" y="0" name="bottom"/>
  <anchor x="647" y="10" name="ogonek"/>
  <anchor x="367" y="800" name="top"/>
  <outline>
    <contour>
      <point x="-28" y="0" type="line"/>
      <point x="186" y="0" type="line"/>
      <point x="186" y="21" type="line"/>
      <point x="96" y="61" type="line"/>
      <point x="177" y="271" type="line"/>
      <point x="443" y="271" type="line"/>
      <point x="528" y="34" type="line"/>
      <point x="446" y="21" type="line"/>
      <point x="446" y="0" type="line"/>
      <point x="740" y="0" type="line"/>
      <point x="740" y="21" type="line"/>
      <point x="648" y="36" type="line"/>
      <point x="375" y="820" type="line"/>
      <point x="359" y="820" type="line"/>
      <point x="70" y="61" type="line"/>
      <point x="-28" y="21" type="line"/>
    </contour>
    <contour>
      <point x="185" y="292" type="line"/>
      <point x="316" y="644" type="line"/>
      <point x="436" y="292" type="line"/>
    </contour>
  </outline>
</glyph>
<glyph name="E" format="2">
  <advance width="721"/>
  <unicode hex="0045"/>
  <anchor x="361" y="0" name="bottom"/>
  <anchor x="649" y="10" name="ogonek"/>
  <anchor x="361" y="800" name="top"/>
  <anchor x="20" y="800" name="topleft"/>
  <outline>
    <contour>
      <point x="40" y="0" type="line"/>
      <point x="664" y="0" type="line"/>
      <point x="664" y="244" type="line"/>
      <point x="638" y="244" type="line"/>
      <point x="556" y="24" type="line"/>
      <point x="242" y="24" type="line"/>
      <point x="242" y="391" type="line"/>
      <point x="371" y="391" type="line"/>
      <point x="431" y="244" type="line"/>
      <point x="457" y="244" type="line"/>
      <point x="457" y="560" type="line"/>
      <point x="431" y="560" type="line"/>
      <point x="372" y="415" type="line"/>
      <point x="242" y="415" type="line"/>
      <point x="242" y="775" type="line"/>
      <point x="538" y="775" type="line"/>
      <point x="615" y="571" type="line"/>
      <point x="642" y="571" type="line"/>
      <point x="642" y="800" type="line"/>
      <point x="40" y="800" type="line"/>
      <point x="40" y="778" type="line"/>
      <point x="132" y="764" type="line"/>
      <point x="132" y="36" type="line"/>
      <point x="40" y="21" type="line"/>
    </contour>
  </outline>
</glyph>
<glyph name="F" format="2">
  <advance width="672"/>
  <unicode hex="0046"/>
  <outline>
    <contour>
      <point x="40" y="0" type="line"/>
      <point x="334" y="0" type="line"/>
      <point x="334" y="21" type="line"/>
      <point x="242" y="36" type="line"/>
      <point x="242" y="376" type="line"/>
      <point x="411" y="376" type="line"/>
      <point x="470" y="229" type="line"/>
      <point x="497" y="229" type="line"/>
      <point x="497" y="545" type="line"/>
      <point x="470" y="545" type="line"/>
      <point x="411" y="400" type="line"/>
      <point x="242" y="400" type="line"/>
      <point x="242" y="775" type="line"/>
      <point x="538" y="775" type="line"/>
      <point x="615" y="571" type="line"/>
      <point x="642" y="571" type="line"/>
      <point x="642" y="800" type="line"/>
      <point x="40" y="800" type="line"/>
      <point x="40" y="778" type="line"/>
      <point x="132" y="764" type="line"/>
      <point x="132" y="36" type="line"/>
      <point x="40" y="21" type="line"/>
    </contour>
  </outline>
</glyph>
<glyph name="H" format="2">
  <advance width="865"/>
  <unicode hex="0048"/>
  <outline>
    <contour>
      <point x="40" y="0" type="line"/>
      <point x="334" y="0" type="line"/>
      <point x="334" y="21" type="line"/>
      <point x="242" y="36" type="line"/>
      <point x="242" y="411" type="line"/>
      <point x="622" y="411" type="line"/>
      <point x="622" y="36" type="line"/>
      <point x="529" y="21" type="line"/>
      <point x="529" y="0" type="line"/>
      <point x="825" y="0" type="line"/>
      <point x="825" y="21" type="line"/>
      <point x="732" y="36" type="line"/>
      <point x="732" y="764" type="line"/>
      <point x="825" y="778" type="line"/>
      <point x="825" y="800" type="line"/>
      <point x="529" y="800" type="line"/>
      <point x="529" y="778" type="line"/>
      <point x="622" y="764" type="line"/>
      <point x="622" y="436" type="line"/>
      <point x="242" y="436" type="line"/>
      <point x="242" y="764" type="line"/>
      <point x="334" y="778" type="line"/>
      <point x="334" y="800" type="line"/>
      <point x="40" y="800" type="line"/>
      <point x="40" y="778" type="line"/>
      <point x="132" y="764" type="line"/>
      <point x="132" y="36" type="line"/>
      <point x="40" y="21" type="line"/>
    </contour>
  </outline>
</glyph>
<glyph name="I" format="2">
  <advance width="374"/>
  <unicode hex="0049"/>
  <anchor x="187" y="0" name="bottom"/>
  <anchor x="337" y="10" name="ogonek"/>
  <anchor x="185" y="800" name="top"/>
  <anchor x="20" y="800" name="topleft"/>
  <outline>
    <contour>
      <point x="40" y="0" type="line"/>
      <point x="334" y="0" type="line"/>
      <point x="334" y="21" type="line"/>
      <point x="242" y="36" type="line"/>
      <point x="242" y="764" type="line"/>
      <point x="334" y="778" type="line"/>
      <point x="334" y="800" type="line"/>
      <point x="40" y="800" type="line"/>
      <point x="40" y="778" type="line"/>
      <point x="132" y="764" type="line"/>
      <point x="132" y="36" type="line"/>
      <point x="40" y="21" type="line"/>
    </contour>
  </outline>
</glyph>
<glyph name="J" format="2">
  <advance width="448"/>
  <unicode hex="004A"/>
  <outline>
    <contour>
      <point x="146" y="-20" type="curve" smooth="yes"/>
      <point x="304" y="-20"/>
      <point x="328" y="73"/>
      <point x="328" y="197" type="curve" smooth="yes"/>
      <point x="328" y="764" type="line"/>
      <point x="420" y="778" type="line"/>
      <point x="420" y="800" type="line"/>
      <point x="130" y="800" type="line"/>
      <point x="130" y="778" type="line"/>
      <point x="222" y="764" type="line"/>
      <point x="222" y="197" type="line" smooth="yes"/>
      <point x="222" y="45"/>
      <point x="192" y="3"/>
      <point x="153" y="3" type="curve" smooth="yes"/>
      <point x="124" y="3"/>
      <point x="108" y="24"/>
      <point x="108" y="48" type="curve" smooth="yes"/>
      <point x="108" y="67"/>
      <point x="119" y="84"/>
      <point x="137" y="97" type="curve"/>
      <point x="137" y="97"/>
      <point x="129" y="156"/>
      <point x="74" y="156" type="curve" smooth="yes"/>
      <point x="34" y="156"/>
      <point x="7" y="126"/>
      <point x="7" y="82" type="curve" smooth="yes"/>
      <point x="7" y="12"/>
      <point x="71" y="-20"/>
    </contour>
  </outline>
</glyph>
<glyph name="K" format="2">
  <advance width="738"/>
  <unicode hex="004B"/>
  <outline>
    <contour>
      <point x="40" y="0" type="line"/>
      <point x="334" y="0" type="line"/>
      <point x="334" y="21" type="line"/>
      <point x="242" y="36" type="line"/>
      <point x="242" y="369" type="line"/>
      <point x="302" y="430" type="line"/>
      <point x="564" y="35" type="line"/>
      <point x="473" y="21" type="line"/>
      <point x="473" y="0" type="line"/>
      <point x="768" y="0" type="line"/>
      <point x="768" y="21" type="line"/>
      <point x="700" y="36" type="line"/>
      <point x="380" y="508" type="line"/>
      <point x="607" y="736" type="line"/>
      <point x="689" y="778" type="line"/>
      <point x="689" y="800" type="line"/>
      <point x="458" y="800" type="line"/>
      <point x="458" y="778" type="line"/>
      <point x="567" y="736" type="line"/>
      <point x="242" y="404" type="line"/>
      <point x="242" y="764" type="line"/>
      <point x="334" y="778" type="line"/>
      <point x="334" y="800" type="line"/>
      <point x="40" y="800" type="line"/>
      <point x="40" y="778" type="line"/>
      <point x="132" y="764" type="line"/>
      <point x="132" y="36" type="line"/>
      <point x="40" y="21" type="line"/>
    </contour>
  </outline>
</glyph>
<glyph name="N" format="2">
  <advance width="814"/>
  <unicode hex="004E"/>
  <outline>
    <contour>
      <point x="43" y="0" type="line"/>
      <point x="257" y="0" type="line"/>
      <point x="257" y="21" type="line"/>
      <point x="161" y="61" type="line"/>
      <point x="161" y="701" type="line"/>
      <point x="660" y="0" type="line"/>
      <point x="685" y="0" type="line"/>
      <point x="685" y="739" type="line"/>
      <point x="780" y="778" type="line"/>
      <point x="780" y="800" type="line"/>
      <point x="567" y="800" type="line"/>
      <point x="567" y="778" type="line"/>
      <point x="660" y="739" type="line"/>
      <point x="660" y="196" type="line"/>
      <point x="229" y="800" type="line"/>
      <point x="43" y="800" type="line"/>
      <point x="43" y="778" type="line"/>
      <point x="136" y="739" type="line"/>
      <point x="136" y="61" type="line"/>
      <point x="43" y="21" type="line"/>
    </contour>
  </outline>
</glyph>
<glyph name="R" format="2">
  <advance width="727"/>
  <unicode hex="0052"/>
  <outline>
    <contour>
      <point x="621" y="-10" type="curve" smooth="yes"/>
      <point x="667" y="-10"/>
      <point x="708" y="6"/>
      <point x="748" y="51" type="curve"/>
      <point x="731" y="69" type="line"/>
      <point x="709" y="46"/>
      <point x="681" y="32"/>
      <point x="659" y="36" type="curve" smooth="yes"/>
      <point x="635" y="41"/>
      <point x="626" y="66"/>
      <point x="616" y="131" type="curve" smooth="yes"/>
      <point x="603" y="217" type="line" smooth="yes"/>
      <point x="587" y="315"/>
      <point x="523" y="375"/>
      <point x="421" y="389" type="curve"/>
      <point x="421" y="395" type="line"/>
      <point x="565" y="414"/>
      <point x="629" y="484"/>
      <point x="629" y="594" type="curve" smooth="yes"/>
      <point x="629" y="730"/>
      <point x="542" y="800"/>
      <point x="320" y="800" type="curve" smooth="yes"/>
      <point x="242" y="800" type="line"/>
      <point x="40" y="800" type="line"/>
      <point x="40" y="778" type="line"/>
      <point x="132" y="764" type="line"/>
      <point x="132" y="36" type="line"/>
      <point x="40" y="21" type="line"/>
      <point x="40" y="0" type="line"/>
      <point x="334" y="0" type="line"/>
      <point x="334" y="21" type="line"/>
      <point x="242" y="36" type="line"/>
      <point x="242" y="388" type="line"/>
      <point x="320" y="388" type="line" smooth="yes"/>
      <point x="430" y="388"/>
      <point x="468" y="324"/>
      <point x="480" y="243" type="curve" smooth="yes"/>
      <point x="499" y="109" type="line" smooth="yes"/>
      <point x="512" y="21"/>
      <point x="547" y="-10"/>
    </contour>
    <contour>
      <point x="242" y="412" type="line"/>
      <point x="242" y="775" type="line"/>
      <point x="320" y="775" type="line" smooth="yes"/>
      <point x="435" y="775"/>
      <point x="508" y="728"/>
      <point x="508" y="609" type="curve" smooth="yes"/>
      <point x="508" y="588" type="line" smooth="yes"/>
      <point x="508" y="469"/>
      <point x="449" y="412"/>
      <point x="354" y="412" type="curve" smooth="yes"/>
    </contour>
  </outline>
</glyph>
<glyph name="V" format="2">
  <advance width="681"/>
  <unicode hex="0056"/>
  <outline>
    <contour>
      <point x="339" y="-20" type="line"/>
      <point x="347" y="-20" type="line"/>
      <point x="633" y="734" type="line"/>
      <point x="706" y="778" type="line"/>
      <point x="706" y="800" type="line"/>
      <point x="491" y="800" type="line"/>
      <point x="491" y="778" type="line"/>
      <point x="606" y="733" type="line"/>
      <point x="390" y="167" type="line"/>
      <point x="170" y="766" type="line"/>
      <point x="264" y="778" type="line"/>
      <point x="264" y="800" type="line"/>
      <point x="-29" y="800" type="line"/>
      <point x="-29" y="778" type="line"/>
      <point x="51" y="764" type="line"/>
    </contour>
  </outline>
</glyph>
<glyph name="X" format="2">
  <advance width="760"/>
  <unicode hex="0058"/>
  <outline>
    <contour>
      <point x="2" y="0" type="line"/>
      <point x="241" y="0" type="line"/>
      <point x="241" y="21" type="line"/>
      <point x="123" y="68" type="line"/>
      <point x="344" y="362" type="line"/>
      <point x="562" y="34" type="line"/>
      <point x="483" y="21" type="line"/>
      <point x="483" y="0" type="line"/>
      <point x="787" y="0" type="line"/>
      <point x="787" y="21" type="line"/>
      <point x="701" y="35" type="line"/>
      <point x="424" y="452" type="line"/>
      <point x="628" y="725" type="line"/>
      <point x="723" y="778" type="line"/>
      <point x="723" y="800" type="line"/>
      <point x="484" y="800" type="line"/>
      <point x="484" y="778" type="line"/>
      <point x="603" y="730" type="line"/>
      <point x="410" y="472" type="line"/>
      <point x="216" y="766" type="line"/>
      <point x="295" y="778" type="line"/>
      <point x="295" y="800" type="line"/>
      <point x="-8" y="800" type="line"/>
      <point x="-8" y="778" type="line"/>
      <point x="77" y="764" type="line"/>
      <point x="330" y="383" type="line"/>
      <point x="101" y="77" type="line"/>
      <point x="2" y="21" type="line"/>
    </contour>
  </outline>
</glyph>
<glyph name="backslash" format="2">
  <advance width="440"/>
  <unicode hex="005C"/>
  <outline>
    <contour>
      <point x="354" y="0" type="line"/>
      <point x="406" y="0" type="line"/>
      <point x="95" y="700" type="line"/>
      <point x="44" y="700" type="line"/>
    </contour>
  </outline>
</glyph>
<glyph name="underscore" format="2">
  <advance width="459"/>
  <unicode hex="005F"/>
  <outline>
    <contour>
      <point x="0" y="-113" type="line"/>
      <point x="459" y="-113" type="line"/>
      <point x="459" y="-78" type="line"/>
      <point x="0" y="-78" type="line"/>
    </contour>
  </outline>
</glyph>
<glyph name="grave" format="2">
  <advance width="224"/>
  <unicode hex="0060"/>
  <outline>
    <contour>
      <point x="127" y="571" type="line"/>
      <point x="143" y="583" type="line"/>
      <point x="70" y="741" type="line" smooth="yes"/>
      <point x="62" y="757"/>
      <point x="45" y="769"/>
      <point x="26" y="769" type="curve" smooth="yes"/>
      <point x="1" y="769"/>
      <point x="-21" y="748"/>
      <point x="-21" y="722" type="curve" smooth="yes"/>
      <point x="-21" y="708"/>
      <point x="-14" y="695"/>
      <point x="-4" y="687" type="curve" smooth="yes"/>
    </contour>
  </outline>
</glyph>
<glyph name="b" format="2">
  <advance width="641"/>
  <unicode hex="0062"/>
  <outline>
    <contour>
      <point x="359" y="-10" type="curve" smooth="yes"/>
      <point x="502" y="-10"/>
      <point x="598" y="96"/>
      <point x="598" y="259" type="curve" smooth="yes"/>
      <point x="598" y="422"/>
      <point x="502" y="527"/>
      <point x="359" y="527" type="curve" smooth="yes"/>
      <point x="278" y="527"/>
      <point x="222" y="481"/>
      <point x="190" y="413" type="curve"/>
      <point x="190" y="800" type="line"/>
      <point x="20" y="800" type="line"/>
      <point x="20" y="780" type="line"/>
      <point x="90" y="770" type="line"/>
      <point x="90" y="30" type="line"/>
      <point x="20" y="20" type="line"/>
      <point x="20" y="0" type="line"/>
      <point x="190" y="0" type="line"/>
      <point x="190" y="104" type="line"/>
      <point x="222" y="36"/>
      <point x="278" y="-10"/>
    </contour>
    <contour>
      <point x="349" y="15" type="curve" smooth="yes"/>
      <point x="256" y="15"/>
      <point x="190" y="106"/>
      <point x="190" y="209" type="curve" smooth="yes"/>
      <point x="190" y="316" type="line"/>
      <point x="193" y="416"/>
      <point x="258" y="502"/>
      <point x="349" y="502" type="curve" smooth="yes"/>
      <point x="452" y="502"/>
      <point x="488" y="422"/>
      <point x="488" y="309" type="curve" smooth="yes"/>
      <point x="488" y="209" type="line" smooth="yes"/>
      <point x="488" y="96"/>
      <point x="452" y="15"/>
    </contour>
  </outline>
</glyph>
<glyph name="f" format="2">
  <advance width="340"/>
  <unicode hex="0066"/>
  <outline>
    <contour>
      <point x="27" y="0" type="line"/>
      <point x="316" y="0" type="line"/>
      <point x="316" y="20" type="line"/>
      <point x="197" y="30" type="line"/>
      <point x="197" y="488" type="line"/>
      <point x="327" y="498" type="line"/>
      <point x="327" y="518" type="line"/>
      <point x="197" y="518" type="line"/>
      <point x="197" y="633" type="line" smooth="yes"/>
      <point x="197" y="741"/>
      <point x="217" y="788"/>
      <point x="269" y="788" type="curve" smooth="yes"/>
      <point x="295" y="788"/>
      <point x="315" y="768"/>
      <point x="315" y="746" type="curve" smooth="yes"/>
      <point x="315" y="726"/>
      <point x="307" y="707"/>
      <point x="281" y="699" type="curve"/>
      <point x="281" y="665"/>
      <point x="310" y="636"/>
      <point x="344" y="636" type="curve" smooth="yes"/>
      <point x="382" y="636"/>
      <point x="405" y="665"/>
      <point x="405" y="704" type="curve" smooth="yes"/>
      <point x="405" y="771"/>
      <point x="345" y="810"/>
      <point x="269" y="810" type="curve" smooth="yes"/>
      <point x="135" y="810"/>
      <point x="97" y="717"/>
      <point x="97" y="602" type="curve" smooth="yes"/>
      <point x="97" y="518" type="line"/>
      <point x="27" y="518" type="line"/>
      <point x="27" y="498" type="line"/>
      <point x="97" y="488" type="line"/>
      <point x="97" y="30" type="line"/>
      <point x="27" y="20" type="line"/>
    </contour>
  </outline>
</glyph>
<glyph name="g" format="2">
  <advance width="535"/>
  <unicode hex="0067"/>
  <outline>
    <contour>
      <point x="243" y="-255" type="curve" smooth="yes"/>
      <point x="397" y="-255"/>
      <point x="483" y="-161"/>
      <point x="483" y="-50" type="curve" smooth="yes"/>
      <point x="483" y="61"/>
      <point x="426" y="96"/>
      <point x="323" y="96" type="curve" smooth="yes"/>
      <point x="211" y="96" type="line" smooth="yes"/>
      <point x="148" y="96"/>
      <point x="121" y="111"/>
      <point x="121" y="146" type="curve" smooth="yes"/>
      <point x="121" y="178"/>
      <point x="146" y="196"/>
      <point x="198" y="196" type="curve"/>
      <point x="169" y="211" type="line"/>
      <point x="112" y="211"/>
      <point x="70" y="166"/>
      <point x="70" y="109" type="curve" smooth="yes"/>
      <point x="70" y="37"/>
      <point x="118" y="0"/>
      <point x="211" y="0" type="curve" smooth="yes"/>
      <point x="333" y="0" type="line" smooth="yes"/>
      <point x="429" y="0"/>
      <point x="456" y="-26"/>
      <point x="456" y="-79" type="curve" smooth="yes"/>
      <point x="456" y="-153"/>
      <point x="378" y="-234"/>
      <point x="254" y="-234" type="curve" smooth="yes"/>
      <point x="154" y="-234"/>
      <point x="126" y="-175"/>
      <point x="126" y="-127" type="curve" smooth="yes"/>
      <point x="126" y="-94"/>
      <point x="138" y="-69"/>
      <point x="157" y="-49" type="curve"/>
      <point x="143" y="-47"/>
      <point x="132" y="-45"/>
      <point x="120" y="-45" type="curve" smooth="yes"/>
      <point x="56" y="-45"/>
      <point x="23" y="-89"/>
      <point x="23" y="-131" type="curve" smooth="yes"/>
      <point x="23" y="-201"/>
      <point x="84" y="-255"/>
    </contour>
    <contour>
      <point x="249" y="190" type="curve" smooth="yes"/>
      <point x="358" y="190"/>
      <point x="445" y="251"/>
      <point x="445" y="358" type="curve" smooth="yes"/>
      <point x="445" y="470"/>
      <point x="390" y="527"/>
      <point x="249" y="527" type="curve" smooth="yes"/>
      <point x="142" y="527"/>
      <point x="56" y="466"/>
      <point x="56" y="358" type="curve" smooth="yes"/>
      <point x="56" y="247"/>
      <point x="118" y="190"/>
    </contour>
    <contour>
      <point x="249" y="207" type="curve" smooth="yes"/>
      <point x="180" y="207"/>
      <point x="150" y="258"/>
      <point x="150" y="334" type="curve" smooth="yes"/>
      <point x="150" y="383" type="line" smooth="yes"/>
      <point x="150" y="463"/>
      <point x="180" y="510"/>
      <point x="249" y="510" type="curve" smooth="yes"/>
      <point x="319" y="510"/>
      <point x="351" y="463"/>
      <point x="351" y="383" type="curve" smooth="yes"/>
      <point x="351" y="334" type="line" smooth="yes"/>
      <point x="351" y="258"/>
      <point x="319" y="207"/>
    </contour>
    <contour>
      <point x="396" y="460" type="line"/>
      <point x="502" y="467"/>
      <point x="540" y="513"/>
      <point x="540" y="565" type="curve" smooth="yes"/>
      <point x="540" y="599"/>
      <point x="515" y="620"/>
      <point x="483" y="620" type="curve" smooth="yes"/>
      <point x="453" y="620"/>
      <point x="427" y="595"/>
      <point x="427" y="565" type="curve"/>
      <point x="442" y="565"/>
      <point x="457" y="554"/>
      <point x="457" y="532" type="curve" smooth="yes"/>
      <point x="457" y="506"/>
      <point x="434" y="483"/>
      <point x="379" y="481" type="curve"/>
    </contour>
  </outline>
</glyph>
<glyph name="i" format="2">
  <advance width="289"/>
  <unicode hex="0069"/>
  <anchor x="145" y="0" name="bottom"/>
  <outline>
    <contour>
      <point x="28" y="0" type="line"/>
      <point x="268" y="0" type="line"/>
      <point x="268" y="20" type="line"/>
      <point x="198" y="30" type="line"/>
      <point x="198" y="517" type="line"/>
      <point x="28" y="517" type="line"/>
      <point x="28" y="497" type="line"/>
      <point x="98" y="487" type="line"/>
      <point x="98" y="30" type="line"/>
      <point x="28" y="20" type="line"/>
    </contour>
    <contour>
      <point x="134" y="634" type="curve" smooth="yes"/>
      <point x="170" y="634"/>
      <point x="199" y="664"/>
      <point x="199" y="701" type="curve" smooth="yes"/>
      <point x="199" y="738"/>
      <point x="170" y="767"/>
      <point x="134" y="767" type="curve" smooth="yes"/>
      <point x="96" y="767"/>
      <point x="66" y="738"/>
      <point x="66" y="701" type="curve" smooth="yes"/>
      <point x="66" y="664"/>
      <point x="96" y="634"/>
    </contour>
  </outline>
</glyph>
<glyph name="k" format="2">
  <advance width="565"/>
  <unicode hex="006B"/>
  <outline>
    <contour>
      <point x="20" y="0" type="line"/>
      <point x="250" y="0" type="line"/>
      <point x="250" y="20" type="line"/>
      <point x="190" y="30" type="line"/>
      <point x="190" y="256" type="line"/>
      <point x="216" y="278" type="line"/>
      <point x="404" y="30" type="line"/>
      <point x="344" y="20" type="line"/>
      <point x="344" y="0" type="line"/>
      <point x="578" y="0" type="line"/>
      <point x="578" y="20" type="line"/>
      <point x="524" y="29" type="line"/>
      <point x="290" y="339" type="line"/>
      <point x="456" y="475" type="line"/>
      <point x="520" y="498" type="line"/>
      <point x="520" y="518" type="line"/>
      <point x="332" y="518" type="line"/>
      <point x="332" y="498" type="line"/>
      <point x="419" y="475" type="line"/>
      <point x="190" y="287" type="line"/>
      <point x="190" y="800" type="line"/>
      <point x="20" y="800" type="line"/>
      <point x="20" y="780" type="line"/>
      <point x="90" y="770" type="line"/>
      <point x="90" y="30" type="line"/>
      <point x="20" y="20" type="line"/>
    </contour>
  </outline>
</glyph>
<glyph name="m" format="2">
  <advance width="946"/>
  <unicode hex="006D"/>
  <outline>
    <contour>
      <point x="27" y="0" type="line"/>
      <point x="257" y="0" type="line"/>
      <point x="257" y="20" type="line"/>
      <point x="197" y="30" type="line"/>
      <point x="197" y="391" type="line"/>
      <point x="234" y="443"/>
      <point x="287" y="491"/>
      <point x="346" y="491" type="curve" smooth="yes"/>
      <point x="406" y="491"/>
      <point x="427" y="449"/>
      <point x="427" y="382" type="curve" smooth="yes"/>
      <point x="427" y="30" type="line"/>
      <point x="367" y="20" type="line"/>
      <point x="367" y="0" type="line"/>
      <point x="588" y="0" type="line"/>
      <point x="588" y="20" type="line"/>
      <point x="528" y="30" type="line"/>
      <point x="528" y="384" type="line"/>
      <point x="528" y="391" type="line"/>
      <point x="565" y="443"/>
      <point x="618" y="491"/>
      <point x="677" y="491" type="curve" smooth="yes"/>
      <point x="737" y="491"/>
      <point x="758" y="449"/>
      <point x="758" y="382" type="curve" smooth="yes"/>
      <point x="758" y="30" type="line"/>
      <point x="698" y="20" type="line"/>
      <point x="698" y="0" type="line"/>
      <point x="928" y="0" type="line"/>
      <point x="928" y="20" type="line"/>
      <point x="858" y="30" type="line"/>
      <point x="858" y="384" type="line" smooth="yes"/>
      <point x="858" y="482"/>
      <point x="800" y="527"/>
      <point x="708" y="527" type="curve" smooth="yes"/>
      <point x="632" y="527"/>
      <point x="570" y="483"/>
      <point x="525" y="421" type="curve"/>
      <point x="511" y="493"/>
      <point x="457" y="527"/>
      <point x="377" y="527" type="curve" smooth="yes"/>
      <point x="303" y="527"/>
      <point x="242" y="485"/>
      <point x="197" y="426" type="curve"/>
      <point x="197" y="518" type="line"/>
      <point x="97" y="518" type="line"/>
      <point x="27" y="518" type="line"/>
      <point x="27" y="498" type="line"/>
      <point x="97" y="488" type="line"/>
      <point x="97" y="30" type="line"/>
      <point x="27" y="20" type="line"/>
    </contour>
  </outline>
</glyph>
<glyph name="n" format="2">
  <advance width="635"/>
  <unicode hex="006E"/>
  <outline>
    <contour>
      <point x="27" y="0" type="line"/>
      <point x="257" y="0" type="line"/>
      <point x="257" y="20" type="line"/>
      <point x="197" y="30" type="line"/>
      <point x="197" y="375" type="line"/>
      <point x="235" y="432"/>
      <point x="295" y="491"/>
      <point x="361" y="491" type="curve" smooth="yes"/>
      <point x="421" y="491"/>
      <point x="447" y="449"/>
      <point x="447" y="382" type="curve" smooth="yes"/>
      <point x="447" y="30" type="line"/>
      <point x="387" y="20" type="line"/>
      <point x="387" y="0" type="line"/>
      <point x="617" y="0" type="line"/>
      <point x="617" y="20" type="line"/>
      <point x="547" y="30" type="line"/>
      <point x="547" y="384" type="line" smooth="yes"/>
      <point x="547" y="482"/>
      <point x="485" y="527"/>
      <point x="392" y="527" type="curve" smooth="yes"/>
      <point x="312" y="527"/>
      <point x="244" y="478"/>
      <point x="197" y="410" type="curve"/>
      <point x="197" y="518" type="line"/>
      <point x="97" y="518" type="line"/>
      <point x="27" y="518" type="line"/>
      <point x="27" y="498" type="line"/>
      <point x="97" y="488" type="line"/>
      <point x="97" y="30" type="line"/>
      <point x="27" y="20" type="line"/>
    </contour>
  </outline>
</glyph>
<glyph name="o" format="2">
  <advance width="604"/>
  <unicode hex="006F"/>
  <anchor x="302" y="0" name="bottom"/>
  <anchor x="302" y="259" name="center"/>
  <anchor x="544" y="10" name="ogonek"/>
  <anchor x="302" y="518" name="top"/>
  <anchor x="508" y="488" name="topright"/>
  <outline>
    <contour>
      <point x="302" y="-10" type="curve" smooth="yes"/>
      <point x="445" y="-10"/>
      <point x="561" y="96"/>
      <point x="561" y="259" type="curve" smooth="yes"/>
      <point x="561" y="422"/>
      <point x="445" y="527"/>
      <point x="302" y="527" type="curve" smooth="yes"/>
      <point x="159" y="527"/>
      <point x="43" y="422"/>
      <point x="43" y="259" type="curve" smooth="yes"/>
      <point x="43" y="96"/>
      <point x="159" y="-10"/>
    </contour>
    <contour>
      <point x="302" y="12" type="curve" smooth="yes"/>
      <point x="199" y="12"/>
      <point x="153" y="96"/>
      <point x="153" y="209" type="curve" smooth="yes"/>
      <point x="153" y="309" type="line" smooth="yes"/>
      <point x="153" y="422"/>
      <point x="199" y="505"/>
      <point x="302" y="505" type="curve" smooth="yes"/>
      <point x="405" y="505"/>
      <point x="451" y="422"/>
      <point x="451" y="309" type="curve" smooth="yes"/>
      <point x="451" y="209" type="line" smooth="yes"/>
      <point x="451" y="96"/>
      <point x="405" y="12"/>
    </contour>
  </outline>
</glyph>
<glyph name="p" format="2">
  <advance width="642"/>
  <unicode hex="0070"/>
  <outline>
    <contour>
      <point x="21" y="-283" type="line"/>
      <point x="285" y="-283" type="line"/>
      <point x="285" y="-263" type="line"/>
      <point x="191" y="-253" type="line"/>
      <point x="191" y="104" type="line"/>
      <point x="223" y="36"/>
      <point x="279" y="-10"/>
      <point x="360" y="-10" type="curve" smooth="yes"/>
      <point x="503" y="-10"/>
      <point x="599" y="95"/>
      <point x="599" y="258" type="curve" smooth="yes"/>
      <point x="599" y="421"/>
      <point x="503" y="527"/>
      <point x="360" y="527" type="curve" smooth="yes"/>
      <point x="279" y="527"/>
      <point x="223" y="481"/>
      <point x="191" y="412" type="curve"/>
      <point x="191" y="517" type="line"/>
      <point x="21" y="517" type="line"/>
      <point x="21" y="497" type="line"/>
      <point x="91" y="487" type="line"/>
      <point x="91" y="-253" type="line"/>
      <point x="21" y="-263" type="line"/>
    </contour>
    <contour>
      <point x="350" y="15" type="curve" smooth="yes"/>
      <point x="257" y="15"/>
      <point x="191" y="105"/>
      <point x="191" y="208" type="curve" smooth="yes"/>
      <point x="191" y="315" type="line"/>
      <point x="194" y="415"/>
      <point x="259" y="502"/>
      <point x="350" y="502" type="curve" smooth="yes"/>
      <point x="453" y="502"/>
      <point x="489" y="421"/>
      <point x="489" y="308" type="curve" smooth="yes"/>
      <point x="489" y="208" type="line" smooth="yes"/>
      <point x="489" y="95"/>
      <point x="453" y="15"/>
    </contour>
  </outline>
</glyph>
<glyph name="q" format="2">
  <advance width="642"/>
  <unicode hex="0071"/>
  <outline>
    <contour>
      <point x="332" y="-283" type="line"/>
      <point x="621" y="-283" type="line"/>
      <point x="621" y="-263" type="line"/>
      <point x="551" y="-253" type="line"/>
      <point x="551" y="487" type="line"/>
      <point x="621" y="497" type="line"/>
      <point x="621" y="517" type="line"/>
      <point x="451" y="517" type="line"/>
      <point x="451" y="412" type="line"/>
      <point x="419" y="481"/>
      <point x="362" y="527"/>
      <point x="282" y="527" type="curve" smooth="yes"/>
      <point x="139" y="527"/>
      <point x="43" y="421"/>
      <point x="43" y="258" type="curve" smooth="yes"/>
      <point x="43" y="95"/>
      <point x="139" y="-10"/>
      <point x="282" y="-10" type="curve" smooth="yes"/>
      <point x="362" y="-10"/>
      <point x="419" y="36"/>
      <point x="451" y="104" type="curve"/>
      <point x="451" y="-253" type="line"/>
      <point x="332" y="-263" type="line"/>
    </contour>
    <contour>
      <point x="292" y="15" type="curve" smooth="yes"/>
      <point x="189" y="15"/>
      <point x="153" y="95"/>
      <point x="153" y="208" type="curve" smooth="yes"/>
      <point x="153" y="308" type="line" smooth="yes"/>
      <point x="153" y="421"/>
      <point x="189" y="502"/>
      <point x="292" y="502" type="curve" smooth="yes"/>
      <point x="382" y="502"/>
      <point x="448" y="415"/>
      <point x="451" y="315" type="curve"/>
      <point x="451" y="200" type="line"/>
      <point x="448" y="101"/>
      <point x="382" y="15"/>
    </contour>
  </outline>
</glyph>
<glyph name="r" format="2">
  <advance width="442"/>
  <unicode hex="0072"/>
  <outline>
    <contour>
      <point x="27" y="0" type="line"/>
      <point x="277" y="0" type="line"/>
      <point x="277" y="20" type="line"/>
      <point x="197" y="30" type="line"/>
      <point x="197" y="404" type="line"/>
      <point x="234" y="458"/>
      <point x="262" y="484"/>
      <point x="290" y="484" type="curve" smooth="yes"/>
      <point x="316" y="484"/>
      <point x="332" y="468"/>
      <point x="332" y="446" type="curve" smooth="yes"/>
      <point x="332" y="437"/>
      <point x="329" y="426"/>
      <point x="321" y="416" type="curve"/>
      <point x="334" y="400"/>
      <point x="353" y="391"/>
      <point x="373" y="391" type="curve" smooth="yes"/>
      <point x="412" y="391"/>
      <point x="435" y="418"/>
      <point x="435" y="452" type="curve" smooth="yes"/>
      <point x="435" y="503"/>
      <point x="385" y="527"/>
      <point x="339" y="527" type="curve" smooth="yes"/>
      <point x="285" y="527"/>
      <point x="237" y="496"/>
      <point x="197" y="441" type="curve"/>
      <point x="197" y="518" type="line"/>
      <point x="97" y="518" type="line"/>
      <point x="27" y="518" type="line"/>
      <point x="27" y="498" type="line"/>
      <point x="97" y="488" type="line"/>
      <point x="97" y="30" type="line"/>
      <point x="27" y="20" type="line"/>
    </contour>
  </outline>
</glyph>
<glyph name="s" format="2">
  <advance width="476"/>
  <unicode hex="0073"/>
  <outline>
    <contour>
      <point x="240" y="-10" type="curve" smooth="yes"/>
      <point x="374" y="-10"/>
      <point x="426" y="71"/>
      <point x="426" y="159" type="curve" smooth="yes"/>
      <point x="426" y="229"/>
      <point x="391" y="269"/>
      <point x="327" y="292" type="curve" smooth="yes"/>
      <point x="187" y="342" type="line" smooth="yes"/>
      <point x="128" y="363"/>
      <point x="105" y="377"/>
      <point x="105" y="411" type="curve" smooth="yes"/>
      <point x="105" y="456"/>
      <point x="152" y="505"/>
      <point x="244" y="505" type="curve" smooth="yes"/>
      <point x="316" y="505"/>
      <point x="344" y="475"/>
      <point x="344" y="441" type="curve" smooth="yes"/>
      <point x="344" y="420"/>
      <point x="339" y="406"/>
      <point x="321" y="392" type="curve"/>
      <point x="321" y="365"/>
      <point x="342" y="349"/>
      <point x="369" y="349" type="curve" smooth="yes"/>
      <point x="397" y="349"/>
      <point x="416" y="370"/>
      <point x="416" y="402" type="curve" smooth="yes"/>
      <point x="416" y="487"/>
      <point x="331" y="527"/>
      <point x="244" y="527" type="curve" smooth="yes"/>
      <point x="126" y="527"/>
      <point x="60" y="456"/>
      <point x="60" y="365" type="curve" smooth="yes"/>
      <point x="60" y="303"/>
      <point x="94" y="266"/>
      <point x="149" y="246" type="curve" smooth="yes"/>
      <point x="300" y="191" type="line" smooth="yes"/>
      <point x="361" y="169"/>
      <point x="383" y="156"/>
      <point x="383" y="117" type="curve" smooth="yes"/>
      <point x="383" y="51"/>
      <point x="322" y="12"/>
      <point x="240" y="12" type="curve" smooth="yes"/>
      <point x="174" y="12"/>
      <point x="137" y="51"/>
      <point x="137" y="89" type="curve" smooth="yes"/>
      <point x="137" y="106"/>
      <point x="145" y="125"/>
      <point x="159" y="140" type="curve"/>
      <point x="151" y="164"/>
      <point x="131" y="178"/>
      <point x="105" y="178" type="curve" smooth="yes"/>
      <point x="71" y="178"/>
      <point x="48" y="155"/>
      <point x="48" y="116" type="curve" smooth="yes"/>
      <point x="48" y="39"/>
      <point x="134" y="-10"/>
    </contour>
  </outline>
</glyph>
<glyph name="u" format="2">
  <advance width="632"/>
  <unicode hex="0075"/>
  <anchor x="316" y="0" name="bottom"/>
  <anchor x="569" y="10" name="ogonek"/>
  <anchor x="316" y="518" name="top"/>
  <anchor x="567" y="487" name="topright"/>
  <outline>
    <contour>
      <point x="242" y="-10" type="curve" smooth="yes"/>
      <point x="322" y="-10"/>
      <point x="390" y="32"/>
      <point x="437" y="96" type="curve"/>
      <point x="437" y="0" type="line"/>
      <point x="607" y="0" type="line"/>
      <point x="607" y="20" type="line"/>
      <point x="537" y="30" type="line"/>
      <point x="537" y="518" type="line"/>
      <point x="367" y="518" type="line"/>
      <point x="367" y="498" type="line"/>
      <point x="437" y="488" type="line"/>
      <point x="437" y="132" type="line"/>
      <point x="398" y="79"/>
      <point x="339" y="26"/>
      <point x="273" y="26" type="curve" smooth="yes"/>
      <point x="213" y="26"/>
      <point x="187" y="69"/>
      <point x="187" y="135" type="curve" smooth="yes"/>
      <point x="187" y="518" type="line"/>
      <point x="17" y="518" type="line"/>
      <point x="17" y="498" type="line"/>
      <point x="87" y="488" type="line"/>
      <point x="87" y="133" type="line" smooth="yes"/>
      <point x="87" y="35"/>
      <point x="149" y="-10"/>
    </contour>
  </outline>
</glyph>
<glyph name="v" format="2">
  <advance width="530"/>
  <unicode hex="0076"/>
  <outline>
    <contour>
      <point x="265" y="-20" type="line"/>
      <point x="293" y="-20" type="line"/>
      <point x="477" y="473" type="line"/>
      <point x="540" y="497" type="line"/>
      <point x="540" y="517" type="line"/>
      <point x="361" y="517" type="line"/>
      <point x="361" y="497" type="line"/>
      <point x="449" y="472" type="line"/>
      <point x="314" y="109" type="line"/>
      <point x="163" y="485" type="line"/>
      <point x="235" y="498" type="line"/>
      <point x="235" y="518" type="line"/>
      <point x="-14" y="518" type="line"/>
      <point x="-14" y="498" type="line"/>
      <point x="51" y="488" type="line"/>
    </contour>
  </outline>
</glyph>
<glyph name="w" format="2">
  <advance width="822"/>
  <unicode hex="0077"/>
  <outline>
    <contour>
      <point x="265" y="-20" type="line"/>
      <point x="293" y="-20" type="line"/>
      <point x="417" y="318" type="line"/>
      <point x="558" y="-20" type="line"/>
      <point x="586" y="-20" type="line"/>
      <point x="770" y="473" type="line"/>
      <point x="832" y="497" type="line"/>
      <point x="832" y="517" type="line"/>
      <point x="658" y="517" type="line"/>
      <point x="658" y="497" type="line"/>
      <point x="742" y="471" type="line"/>
      <point x="607" y="109" type="line"/>
      <point x="456" y="485" type="line"/>
      <point x="528" y="498" type="line"/>
      <point x="528" y="518" type="line"/>
      <point x="292" y="518" type="line"/>
      <point x="292" y="498" type="line"/>
      <point x="344" y="488" type="line"/>
      <point x="403" y="352" type="line"/>
      <point x="314" y="109" type="line"/>
      <point x="163" y="485" type="line"/>
      <point x="210" y="498" type="line"/>
      <point x="210" y="518" type="line"/>
      <point x="-14" y="518" type="line"/>
      <point x="-14" y="498" type="line"/>
      <point x="51" y="488" type="line"/>
    </contour>
  </outline>
</glyph>
<glyph name="x" format="2">
  <advance width="577"/>
  <unicode hex="0078"/>
  <outline>
    <contour>
      <point x="336" y="0" type="line"/>
      <point x="580" y="0" type="line"/>
      <point x="580" y="20" type="line"/>
      <point x="516" y="29" type="line"/>
      <point x="182" y="487" type="line"/>
      <point x="245" y="498" type="line"/>
      <point x="245" y="518" type="line"/>
      <point x="1" y="518" type="line"/>
      <point x="1" y="498" type="line"/>
      <point x="62" y="489" type="line"/>
      <point x="396" y="30" type="line"/>
      <point x="336" y="20" type="line"/>
    </contour>
    <contour>
      <point x="13" y="0" type="line"/>
      <point x="192" y="0" type="line"/>
      <point x="192" y="20" type="line"/>
      <point x="111" y="43" type="line"/>
      <point x="268" y="231" type="line"/>
      <point x="251" y="253" type="line"/>
      <point x="80" y="45" type="line"/>
      <point x="13" y="20" type="line"/>
    </contour>
    <contour>
      <point x="314" y="282" type="line"/>
      <point x="473" y="471" type="line"/>
      <point x="546" y="497" type="line"/>
      <point x="546" y="517" type="line"/>
      <point x="362" y="517" type="line"/>
      <point x="362" y="497" type="line"/>
      <point x="441" y="474" type="line"/>
      <point x="298" y="305" type="line"/>
    </contour>
  </outline>
</glyph>
<glyph name="y" format="2">
  <advance width="535"/>
  <unicode hex="0079"/>
  <anchor x="388" y="0" name="bottom"/>
  <anchor x="287" y="518" name="top"/>
  <outline>
    <contour>
      <point x="118" y="-292" type="curve" smooth="yes"/>
      <point x="195" y="-292"/>
      <point x="227" y="-252"/>
      <point x="253" y="-179" type="curve"/>
      <point x="477" y="472" type="line"/>
      <point x="545" y="497" type="line"/>
      <point x="545" y="517" type="line"/>
      <point x="365" y="517" type="line"/>
      <point x="365" y="497" type="line"/>
      <point x="451" y="472" type="line"/>
      <point x="332" y="128" type="line"/>
      <point x="165" y="485" type="line"/>
      <point x="235" y="497" type="line"/>
      <point x="235" y="517" type="line"/>
      <point x="-14" y="517" type="line"/>
      <point x="-14" y="497" type="line"/>
      <point x="53" y="487" type="line"/>
      <point x="285" y="-7" type="line"/>
      <point x="225" y="-179" type="line" smooth="yes"/>
      <point x="205" y="-236"/>
      <point x="181" y="-251"/>
      <point x="152" y="-251" type="curve" smooth="yes"/>
      <point x="125" y="-251"/>
      <point x="106" y="-232"/>
      <point x="106" y="-205" type="curve" smooth="yes"/>
      <point x="106" y="-189"/>
      <point x="111" y="-175"/>
      <point x="121" y="-161" type="curve"/>
      <point x="109" y="-139"/>
      <point x="87" y="-129"/>
      <point x="63" y="-129" type="curve" smooth="yes"/>
      <point x="30" y="-129"/>
      <point x="2" y="-155"/>
      <point x="2" y="-196" type="curve" smooth="yes"/>
      <point x="2" y="-255"/>
      <point x="50" y="-292"/>
    </contour>
  </outline>
</glyph>
<glyph name="z" format="2">
  <advance width="517"/>
  <unicode hex="007A"/>
  <outline>
    <contour>
      <point x="39" y="0" type="line"/>
      <point x="465" y="0" type="line"/>
      <point x="484" y="191" type="line"/>
      <point x="458" y="191" type="line"/>
      <point x="370" y="24" type="line"/>
      <point x="156" y="24" type="line"/>
      <point x="466" y="493" type="line"/>
      <point x="466" y="518" type="line"/>
      <point x="57" y="518" type="line"/>
      <point x="44" y="338" type="line"/>
      <point x="69" y="338" type="line"/>
      <point x="151" y="493" type="line"/>
      <point x="349" y="493" type="line"/>
      <point x="39" y="24" type="line"/>
    </contour>
  </outline>
</glyph>
<glyph name="braceleft" format="2">
  <advance width="315"/>
  <unicode hex="007B"/>
  <outline>
    <contour>
      <point x="291" y="-194" type="curve"/>
      <point x="291" y="-175" type="line"/>
      <point x="229" y="-175"/>
      <point x="207" y="-144"/>
      <point x="207" y="-63" type="curve" smooth="yes"/>
      <point x="207" y="-9"/>
      <point x="226" y="130"/>
      <point x="226" y="182" type="curve" smooth="yes"/>
      <point x="226" y="273"/>
      <point x="174" y="337"/>
      <point x="80" y="356" type="curve"/>
      <point x="174" y="376"/>
      <point x="226" y="440"/>
      <point x="226" y="531" type="curve" smooth="yes"/>
      <point x="226" y="583"/>
      <point x="207" y="722"/>
      <point x="207" y="777" type="curve" smooth="yes"/>
      <point x="207" y="857"/>
      <point x="229" y="889"/>
      <point x="291" y="889" type="curve"/>
      <point x="291" y="907" type="line"/>
      <point x="178" y="907"/>
      <point x="110" y="869"/>
      <point x="110" y="760" type="curve" smooth="yes"/>
      <point x="110" y="694"/>
      <point x="131" y="578"/>
      <point x="131" y="517" type="curve" smooth="yes"/>
      <point x="131" y="438"/>
      <point x="105" y="365"/>
      <point x="13" y="365" type="curve"/>
      <point x="13" y="348" type="line"/>
      <point x="105" y="348"/>
      <point x="131" y="275"/>
      <point x="131" y="196" type="curve" smooth="yes"/>
      <point x="131" y="135"/>
      <point x="110" y="19"/>
      <point x="110" y="-46" type="curve" smooth="yes"/>
      <point x="110" y="-156"/>
      <point x="178" y="-194"/>
    </contour>
  </outline>
</glyph>
<glyph name="sterling" format="2">
  <advance width="638"/>
  <unicode hex="00A3"/>
  <outline>
    <contour>
      <point x="68" y="0" type="line"/>
      <point x="571" y="0" type="line"/>
      <point x="571" y="273" type="line"/>
      <point x="544" y="273" type="line"/>
      <point x="483" y="112" type="line"/>
      <point x="138" y="112" type="line"/>
      <point x="138" y="112"/>
      <point x="277" y="194"/>
      <point x="277" y="356" type="curve" smooth="yes"/>
      <point x="277" y="477"/>
      <point x="205" y="533"/>
      <point x="205" y="661" type="curve" smooth="yes"/>
      <point x="205" y="746"/>
      <point x="262" y="797"/>
      <point x="345" y="797" type="curve" smooth="yes"/>
      <point x="410" y="797"/>
      <point x="473" y="760"/>
      <point x="473" y="699" type="curve" smooth="yes"/>
      <point x="473" y="666"/>
      <point x="458" y="638"/>
      <point x="421" y="620" type="curve"/>
      <point x="421" y="569"/>
      <point x="457" y="546"/>
      <point x="494" y="546" type="curve" smooth="yes"/>
      <point x="533" y="546"/>
      <point x="572" y="576"/>
      <point x="572" y="634" type="curve" smooth="yes"/>
      <point x="572" y="745"/>
      <point x="456" y="820"/>
      <point x="328" y="820" type="curve" smooth="yes"/>
      <point x="153" y="820"/>
      <point x="77" y="733"/>
      <point x="77" y="644" type="curve" smooth="yes"/>
      <point x="77" y="493"/>
      <point x="215" y="466"/>
      <point x="215" y="329" type="curve" smooth="yes"/>
      <point x="215" y="179"/>
      <point x="68" y="77"/>
      <point x="68" y="77" type="curve"/>
    </contour>
    <contour>
      <point x="68" y="305" type="line"/>
      <point x="424" y="305" type="line"/>
      <point x="424" y="330" type="line"/>
      <point x="68" y="330" type="line"/>
    </contour>
    <contour>
      <point x="68" y="405" type="line"/>
      <point x="424" y="405" type="line"/>
      <point x="424" y="430" type="line"/>
      <point x="68" y="430" type="line"/>
    </contour>
  </outline>
</glyph>
<glyph name="brokenbar" format="2">
  <advance width="230"/>
  <unicode hex="00A6"/>
  <outline>
    <contour>
      <point x="95" y="360" type="line"/>
      <point x="135" y="360" type="line"/>
      <point x="135" y="760" type="line"/>
      <point x="95" y="760" type="line"/>
    </contour>
    <contour>
      <point x="95" y="-240" type="line"/>
      <point x="135" y="-240" type="line"/>
      <point x="135" y="160" type="line"/>
      <point x="95" y="160" type="line"/>
    </contour>
  </outline>
</glyph>
<glyph name="section" format="2">
  <advance width="529"/>
  <unicode hex="00A7"/>
  <outline>
    <contour>
      <point x="276" y="-137" type="curve" smooth="yes"/>
      <point x="385" y="-137"/>
      <point x="457" y="-83"/>
      <point x="457" y="24" type="curve" smooth="yes"/>
      <point x="457" y="78"/>
      <point x="430" y="129"/>
      <point x="389" y="163" type="curve"/>
      <point x="440" y="207"/>
      <point x="476" y="262"/>
      <point x="476" y="344" type="curve" smooth="yes"/>
      <point x="476" y="408"/>
      <point x="439" y="455"/>
      <point x="367" y="490" type="curve" smooth="yes"/>
      <point x="196" y="572" type="line"/>
      <point x="156" y="597"/>
      <point x="112" y="625"/>
      <point x="112" y="691" type="curve" smooth="yes"/>
      <point x="112" y="759"/>
      <point x="179" y="790"/>
      <point x="247" y="790" type="curve" smooth="yes"/>
      <point x="308" y="790"/>
      <point x="354" y="760"/>
      <point x="354" y="718" type="curve" smooth="yes"/>
      <point x="354" y="699"/>
      <point x="348" y="687"/>
      <point x="330" y="675" type="curve"/>
      <point x="330" y="645"/>
      <point x="354" y="627"/>
      <point x="384" y="627" type="curve" smooth="yes"/>
      <point x="421" y="627"/>
      <point x="447" y="657"/>
      <point x="447" y="695" type="curve" smooth="yes"/>
      <point x="447" y="761"/>
      <point x="373" y="810"/>
      <point x="247" y="810" type="curve" smooth="yes"/>
      <point x="140" y="810"/>
      <point x="71" y="755"/>
      <point x="71" y="648" type="curve" smooth="yes"/>
      <point x="71" y="590"/>
      <point x="99" y="537"/>
      <point x="142" y="503" type="curve"/>
      <point x="92" y="461"/>
      <point x="56" y="414"/>
      <point x="56" y="328" type="curve" smooth="yes"/>
      <point x="56" y="264"/>
      <point x="91" y="217"/>
      <point x="156" y="183" type="curve"/>
      <point x="326" y="101" type="line"/>
      <point x="369" y="75"/>
      <point x="415" y="47"/>
      <point x="415" y="-19" type="curve" smooth="yes"/>
      <point x="415" y="-86"/>
      <point x="346" y="-117"/>
      <point x="276" y="-117" type="curve" smooth="yes"/>
      <point x="215" y="-117"/>
      <point x="168" y="-87"/>
      <point x="168" y="-46" type="curve" smooth="yes"/>
      <point x="168" y="-27"/>
      <point x="175" y="-15"/>
      <point x="192" y="-2" type="curve"/>
      <point x="192" y="27"/>
      <point x="169" y="45"/>
      <point x="138" y="45" type="curve" smooth="yes"/>
      <point x="101" y="45"/>
      <point x="75" y="15"/>
      <point x="75" y="-23" type="curve" smooth="yes"/>
      <point x="75" y="-89"/>
      <point x="149" y="-137"/>
    </contour>
    <contour>
      <point x="372" y="176" type="curve"/>
      <point x="369" y="178"/>
      <point x="366" y="179"/>
      <point x="364" y="181" type="curve"/>
      <point x="204" y="257" type="line"/>
      <point x="133" y="294"/>
      <point x="94" y="324"/>
      <point x="94" y="372" type="curve" smooth="yes"/>
      <point x="94" y="419"/>
      <point x="116" y="452"/>
      <point x="160" y="491" type="curve"/>
      <point x="318" y="415" type="line" smooth="yes"/>
      <point x="395" y="378"/>
      <point x="438" y="349"/>
      <point x="438" y="301" type="curve" smooth="yes"/>
      <point x="438" y="251"/>
      <point x="414" y="213"/>
    </contour>
  </outline>
</glyph>
<glyph name="dieresis" format="2">
  <advance width="395"/>
  <unicode hex="00A8"/>
  <outline>
    <contour>
      <point x="105" y="615" type="curve" smooth="yes"/>
      <point x="138" y="615"/>
      <point x="164" y="641"/>
      <point x="164" y="674" type="curve" smooth="yes"/>
      <point x="164" y="708"/>
      <point x="138" y="733"/>
      <point x="105" y="733" type="curve" smooth="yes"/>
      <point x="72" y="733"/>
      <point x="45" y="708"/>
      <point x="45" y="674" type="curve" smooth="yes"/>
      <point x="45" y="641"/>
      <point x="72" y="615"/>
    </contour>
    <contour>
      <point x="290" y="615" type="curve" smooth="yes"/>
      <point x="323" y="615"/>
      <point x="349" y="641"/>
      <point x="349" y="674" type="curve" smooth="yes"/>
      <point x="349" y="708"/>
      <point x="323" y="733"/>
      <point x="290" y="733" type="curve" smooth="yes"/>
      <point x="257" y="733"/>
      <point x="231" y="708"/>
      <point x="231" y="674" type="curve" smooth="yes"/>
      <point x="231" y="641"/>
      <point x="257" y="615"/>
    </contour>
  </outline>
</glyph>
<glyph name="ordfeminine" format="2">
  <advance width="502"/>
  <unicode hex="00AA"/>
  <outline>
    <contour>
      <point x="168" y="371" type="curve" smooth="yes"/>
      <point x="232" y="371"/>
      <point x="283" y="395"/>
      <point x="312" y="436" type="curve"/>
      <point x="323" y="390"/>
      <point x="362" y="371"/>
      <point x="399" y="371" type="curve" smooth="yes"/>
      <point x="445" y="371"/>
      <point x="476" y="393"/>
      <point x="476" y="432" type="curve"/>
      <point x="449" y="432" type="line"/>
      <point x="449" y="416"/>
      <point x="438" y="407"/>
      <point x="425" y="407" type="curve" smooth="yes"/>
      <point x="407" y="407"/>
      <point x="399" y="417"/>
      <point x="399" y="433" type="curve" smooth="yes"/>
      <point x="399" y="680" type="line" smooth="yes"/>
      <point x="399" y="773"/>
      <point x="325" y="805"/>
      <point x="231" y="805" type="curve" smooth="yes"/>
      <point x="145" y="805"/>
      <point x="69" y="768"/>
      <point x="69" y="698" type="curve" smooth="yes"/>
      <point x="69" y="668"/>
      <point x="92" y="642"/>
      <point x="123" y="642" type="curve" smooth="yes"/>
      <point x="154" y="642"/>
      <point x="181" y="668"/>
      <point x="181" y="698" type="curve"/>
      <point x="164" y="704"/>
      <point x="156" y="714"/>
      <point x="156" y="732" type="curve" smooth="yes"/>
      <point x="156" y="760"/>
      <point x="187" y="777"/>
      <point x="231" y="777" type="curve" smooth="yes"/>
      <point x="283" y="777"/>
      <point x="309" y="758"/>
      <point x="309" y="696" type="curve" smooth="yes"/>
      <point x="309" y="624" type="line"/>
      <point x="284" y="624" type="line" smooth="yes"/>
      <point x="170" y="624"/>
      <point x="43" y="590"/>
      <point x="43" y="478" type="curve" smooth="yes"/>
      <point x="43" y="404"/>
      <point x="98" y="371"/>
    </contour>
    <contour>
      <point x="202" y="409" type="curve" smooth="yes"/>
      <point x="161" y="409"/>
      <point x="140" y="435"/>
      <point x="140" y="478" type="curve" smooth="yes"/>
      <point x="140" y="555"/>
      <point x="207" y="595"/>
      <point x="284" y="595" type="curve" smooth="yes"/>
      <point x="309" y="595" type="line"/>
      <point x="309" y="517" type="line"/>
      <point x="302" y="448"/>
      <point x="251" y="409"/>
    </contour>
  </outline>
</glyph>
<glyph name="guillemetleft" format="2">
  <advance width="370"/>
  <unicode hex="00AB"/>
  <outline>
    <contour>
      <point x="220" y="70" type="line"/>
      <point x="229" y="79" type="line"/>
      <point x="135" y="270" type="line"/>
      <point x="229" y="460" type="line"/>
      <point x="220" y="470" type="line"/>
      <point x="47" y="279" type="line"/>
      <point x="47" y="261" type="line"/>
    </contour>
    <contour>
      <point x="306" y="145" type="line"/>
      <point x="315" y="153" type="line"/>
      <point x="271" y="270" type="line"/>
      <point x="315" y="386" type="line"/>
      <point x="306" y="395" type="line"/>
      <point x="195" y="277" type="line"/>
      <point x="195" y="263" type="line"/>
    </contour>
  </outline>
</glyph>
<glyph name="logicalnot" format="2">
  <advance width="568"/>
  <unicode hex="00AC"/>
  <outline>
    <contour>
      <point x="454" y="123" type="line"/>
      <point x="490" y="123" type="line"/>
      <point x="490" y="375" type="line"/>
      <point x="76" y="375" type="line"/>
      <point x="76" y="340" type="line"/>
      <point x="454" y="340" type="line"/>
    </contour>
  </outline>
</glyph>
<glyph name="registered" format="2">
  <advance width="922"/>
  <unicode hex="00AE"/>
  <outline>
    <contour>
      <point x="461" y="-10" type="curve" smooth="yes"/>
      <point x="687" y="-10"/>
      <point x="871" y="173"/>
      <point x="871" y="399" type="curve" smooth="yes"/>
      <point x="871" y="625"/>
      <point x="687" y="810"/>
      <point x="461" y="810" type="curve" smooth="yes"/>
      <point x="235" y="810"/>
      <point x="51" y="625"/>
      <point x="51" y="399" type="curve" smooth="yes"/>
      <point x="51" y="173"/>
      <point x="235" y="-10"/>
    </contour>
    <contour>
      <point x="461" y="27" type="curve" smooth="yes"/>
      <point x="253" y="27"/>
      <point x="89" y="191"/>
      <point x="89" y="399" type="curve" smooth="yes"/>
      <point x="89" y="606"/>
      <point x="253" y="771"/>
      <point x="461" y="771" type="curve" smooth="yes"/>
      <point x="669" y="771"/>
      <point x="832" y="607"/>
      <point x="832" y="399" type="curve" smooth="yes"/>
      <point x="832" y="191"/>
      <point x="669" y="27"/>
    </contour>
    <contour>
      <point x="626" y="136" type="curve" smooth="yes"/>
      <point x="656" y="136"/>
      <point x="688" y="147"/>
      <point x="714" y="175" type="curve"/>
      <point x="697" y="194" type="line"/>
      <point x="685" y="183"/>
      <point x="670" y="175"/>
      <point x="657" y="175" type="curve" smooth="yes"/>
      <point x="639" y="175"/>
      <point x="635" y="192"/>
      <point x="631" y="222" type="curve"/>
      <point x="622" y="277" type="line" smooth="yes"/>
      <point x="611" y="346"/>
      <point x="568" y="382"/>
      <point x="503" y="391" type="curve"/>
      <point x="503" y="395" type="line"/>
      <point x="614" y="407"/>
      <point x="664" y="452"/>
      <point x="664" y="522" type="curve" smooth="yes"/>
      <point x="664" y="609"/>
      <point x="610" y="654"/>
      <point x="465" y="654" type="curve" smooth="yes"/>
      <point x="246" y="654" type="line"/>
      <point x="246" y="630" type="line"/>
      <point x="306" y="621" type="line"/>
      <point x="306" y="175" type="line"/>
      <point x="246" y="166" type="line"/>
      <point x="246" y="142" type="line"/>
      <point x="447" y="142" type="line"/>
      <point x="447" y="166" type="line"/>
      <point x="388" y="175" type="line"/>
      <point x="388" y="385" type="line"/>
      <point x="428" y="385" type="line" smooth="yes"/>
      <point x="499" y="385"/>
      <point x="520" y="349"/>
      <point x="527" y="298" type="curve" smooth="yes"/>
      <point x="540" y="212" type="line" smooth="yes"/>
      <point x="548" y="156"/>
      <point x="579" y="136"/>
    </contour>
    <contour>
      <point x="388" y="411" type="line"/>
      <point x="388" y="628" type="line"/>
      <point x="450" y="628" type="line" smooth="yes"/>
      <point x="527" y="628"/>
      <point x="573" y="601"/>
      <point x="573" y="532" type="curve" smooth="yes"/>
      <point x="573" y="519" type="line" smooth="yes"/>
      <point x="573" y="443"/>
      <point x="527" y="411"/>
      <point x="450" y="411" type="curve" smooth="yes"/>
    </contour>
  </outline>
</glyph>
<glyph name="macron" format="2">
  <advance width="459"/>
  <unicode hex="00AF"/>
  <outline>
    <contour>
      <point x="0" y="666" type="line"/>
      <point x="459" y="666" type="line"/>
      <point x="459" y="700" type="line"/>
      <point x="0" y="700" type="line"/>
    </contour>
  </outline>
</glyph>
<glyph name="plusminus" format="2">
  <advance width="615"/>
  <unicode hex="00B1"/>
  <outline>
    <contour>
      <point x="288" y="177" type="line"/>
      <point x="326" y="177" type="line"/>
      <point x="326" y="338" type="line"/>
      <point x="537" y="338" type="line"/>
      <point x="537" y="376" type="line"/>
      <point x="326" y="376" type="line"/>
      <point x="326" y="537" type="line"/>
      <point x="288" y="537" type="line"/>
      <point x="288" y="376" type="line"/>
      <point x="78" y="376" type="line"/>
      <point x="78" y="338" type="line"/>
      <point x="288" y="338" type="line"/>
    </contour>
    <contour>
      <point x="78" y="112" type="line"/>
      <point x="537" y="112" type="line"/>
      <point x="537" y="150" type="line"/>
      <point x="78" y="150" type="line"/>
    </contour>
  </outline>
</glyph>
<glyph name="twosuperior" format="2">
  <advance width="393"/>
  <unicode hex="00B2"/>
  <outline>
    <contour>
      <point x="54" y="380" type="line"/>
      <point x="328" y="380" type="line"/>
      <point x="328" y="523" type="line"/>
      <point x="305" y="523" type="line"/>
      <point x="277" y="444" type="line"/>
      <point x="111" y="444" type="line"/>
      <point x="231" y="541" type="line" smooth="yes"/>
      <point x="285" y="584"/>
      <point x="329" y="630"/>
      <point x="329" y="695" type="curve" smooth="yes"/>
      <point x="329" y="756"/>
      <point x="285" y="805"/>
      <point x="187" y="805" type="curve" smooth="yes"/>
      <point x="116" y="805"/>
      <point x="62" y="770"/>
      <point x="62" y="703" type="curve" smooth="yes"/>
      <point x="62" y="670"/>
      <point x="85" y="651"/>
      <point x="108" y="651" type="curve" smooth="yes"/>
      <point x="131" y="651"/>
      <point x="152" y="665"/>
      <point x="152" y="695" type="curve"/>
      <point x="130" y="707"/>
      <point x="121" y="717"/>
      <point x="121" y="737" type="curve" smooth="yes"/>
      <point x="121" y="768"/>
      <point x="150" y="783"/>
      <point x="183" y="783" type="curve" smooth="yes"/>
      <point x="224" y="783"/>
      <point x="252" y="751"/>
      <point x="252" y="699" type="curve" smooth="yes"/>
      <point x="252" y="638"/>
      <point x="221" y="583"/>
      <point x="170" y="533" type="curve" smooth="yes"/>
      <point x="54" y="420" type="line"/>
    </contour>
  </outline>
</glyph>
<glyph name="acute" format="2">
  <advance width="237"/>
  <unicode hex="00B4"/>
  <outline>
    <contour>
      <point x="46" y="571" type="line"/>
      <point x="177" y="687" type="line"/>
      <point x="188" y="695"/>
      <point x="194" y="708"/>
      <point x="194" y="722" type="curve" smooth="yes"/>
      <point x="194" y="748"/>
      <point x="172" y="769"/>
      <point x="147" y="769" type="curve" smooth="yes"/>
      <point x="128" y="769"/>
      <point x="111" y="757"/>
      <point x="104" y="741" type="curve" smooth="yes"/>
      <point x="30" y="583" type="line"/>
    </contour>
  </outline>
</glyph>
<glyph name="micro" format="2">
  <advance width="653"/>
  <unicode hex="00B5"/>
  <outline>
    <contour>
      <point x="170" y="-292" type="curve" smooth="yes"/>
      <point x="209" y="-292"/>
      <point x="241" y="-271"/>
      <point x="255" y="-242" type="curve"/>
      <point x="185" y="-206"/>
      <point x="147" y="-124"/>
      <point x="136" y="32" type="curve"/>
      <point x="163" y="3"/>
      <point x="205" y="-10"/>
      <point x="256" y="-10" type="curve" smooth="yes"/>
      <point x="336" y="-10"/>
      <point x="404" y="39"/>
      <point x="451" y="107" type="curve"/>
      <point x="451" y="0" type="line"/>
      <point x="621" y="0" type="line"/>
      <point x="621" y="20" type="line"/>
      <point x="551" y="30" type="line"/>
      <point x="551" y="518" type="line"/>
      <point x="451" y="518" type="line"/>
      <point x="451" y="143" type="line"/>
      <point x="412" y="86"/>
      <point x="352" y="26"/>
      <point x="287" y="26" type="curve" smooth="yes"/>
      <point x="227" y="26"/>
      <point x="201" y="69"/>
      <point x="201" y="135" type="curve" smooth="yes"/>
      <point x="201" y="518" type="line"/>
      <point x="101" y="518" type="line"/>
      <point x="101" y="133" type="line"/>
      <point x="101" y="133"/>
      <point x="95" y="-101"/>
      <point x="95" y="-211" type="curve" smooth="yes"/>
      <point x="95" y="-267"/>
      <point x="125" y="-292"/>
    </contour>
  </outline>
</glyph>
<glyph name="paragraph" format="2">
  <advance width="551"/>
  <unicode hex="00B6"/>
  <outline>
    <contour>
      <point x="230" y="-112" type="line"/>
      <point x="273" y="-112" type="line"/>
      <point x="273" y="767" type="line"/>
      <point x="372" y="767" type="line"/>
      <point x="372" y="-112" type="line"/>
      <point x="414" y="-112" type="line"/>
      <point x="414" y="764" type="line"/>
      <point x="506" y="778" type="line"/>
      <point x="506" y="800" type="line"/>
      <point x="229" y="800" type="line" smooth="yes"/>
      <point x="103" y="800"/>
      <point x="34" y="716"/>
      <point x="34" y="613" type="curve" smooth="yes"/>
      <point x="34" y="510"/>
      <point x="103" y="426"/>
      <point x="230" y="426" type="curve"/>
    </contour>
  </outline>
</glyph>
<glyph name="cedilla" format="2">
  <advance width="351"/>
  <unicode hex="00B8"/>
  <outline>
    <contour>
      <point x="146" y="-232" type="curve" smooth="yes"/>
      <point x="209" y="-232"/>
      <point x="272" y="-205"/>
      <point x="272" y="-136" type="curve" smooth="yes"/>
      <point x="272" y="-73"/>
      <point x="221" y="-47"/>
      <point x="150" y="-44" type="curve"/>
      <point x="163" y="9" type="line"/>
      <point x="136" y="9" type="line"/>
      <point x="115" y="-69" type="line"/>
      <point x="166" y="-74"/>
      <point x="187" y="-103"/>
      <point x="187" y="-137" type="curve" smooth="yes"/>
      <point x="187" y="-187"/>
      <point x="147" y="-204"/>
      <point x="108" y="-204" type="curve" smooth="yes"/>
      <point x="98" y="-204"/>
      <point x="88" y="-203"/>
      <point x="80" y="-201" type="curve"/>
      <point x="74" y="-223" type="line"/>
      <point x="95" y="-229"/>
      <point x="119" y="-232"/>
    </contour>
  </outline>
</glyph>
<glyph name="onesuperior" format="2">
  <advance width="254"/>
  <unicode hex="00B9"/>
  <outline>
    <contour>
      <point x="53" y="375" type="line"/>
      <point x="209" y="375" type="line"/>
      <point x="209" y="396" type="line"/>
      <point x="167" y="401" type="line"/>
      <point x="167" y="800" type="line"/>
      <point x="53" y="800" type="line"/>
      <point x="53" y="779" type="line"/>
      <point x="95" y="774" type="line"/>
      <point x="95" y="401" type="line"/>
      <point x="53" y="396" type="line"/>
    </contour>
  </outline>
</glyph>
<glyph name="Aring" format="2">
  <advance width="719"/>
  <unicode hex="00C5"/>
  <outline>
    <contour>
      <point x="-28" y="0" type="line"/>
      <point x="186" y="0" type="line"/>
      <point x="186" y="21" type="line"/>
      <point x="96" y="61" type="line"/>
      <point x="177" y="271" type="line"/>
      <point x="443" y="271" type="line"/>
      <point x="528" y="34" type="line"/>
      <point x="446" y="21" type="line"/>
      <point x="446" y="0" type="line"/>
      <point x="740" y="0" type="line"/>
      <point x="740" y="21" type="line"/>
      <point x="648" y="36" type="line"/>
      <point x="385" y="789" type="line"/>
      <point x="414" y="794" type="line"/>
      <point x="435" y="816" type="line"/>
      <point x="463" y="844" type="line"/>
      <point x="463" y="922" type="line"/>
      <point x="408" y="978" type="line"/>
      <point x="368" y="978" type="line"/>
      <point x="329" y="978" type="line"/>
      <point x="274" y="922" type="line"/>
      <point x="274" y="844" type="line"/>
      <point x="301" y="816" type="line"/>
      <point x="321" y="795" type="line"/>
      <point x="347" y="790" type="line"/>
      <point x="70" y="61" type="line"/>
      <point x="-28" y="21" type="line"/>
    </contour>
    <contour>
      <point x="185" y="292" type="line"/>
      <point x="316" y="644" type="line"/>
      <point x="436" y="292" type="line"/>
    </contour>
    <contour>
      <point x="343" y="821" type="line"/>
      <point x="306" y="858" type="line"/>
      <point x="306" y="908" type="line"/>
      <point x="324" y="926" type="line"/>
      <point x="343" y="945" type="line"/>
      <point x="393" y="945" type="line"/>
      <point x="431" y="908" type="line"/>
      <point x="431" y="858" type="line"/>
      <point x="393" y="821" type="line"/>
    </contour>
  </outline>
</glyph>
<glyph name="Oslash" format="2">
  <advance width="862"/>
  <unicode hex="00D8"/>
  <outline>
    <contour>
      <point x="221" y="-22" type="line"/>
      <point x="263" y="-22" type="line"/>
      <point x="277" y="11" type="line"/>
      <point x="323" y="-9"/>
      <point x="375" y="-20"/>
      <point x="431" y="-20" type="curve" smooth="yes"/>
      <point x="651" y="-20"/>
      <point x="808" y="151"/>
      <point x="808" y="400" type="curve" smooth="yes"/>
      <point x="808" y="569"/>
      <point x="736" y="701"/>
      <point x="621" y="769" type="curve"/>
      <point x="645" y="822" type="line"/>
      <point x="604" y="822" type="line"/>
      <point x="588" y="787" type="line"/>
      <point x="541" y="808"/>
      <point x="488" y="820"/>
      <point x="431" y="820" type="curve" smooth="yes"/>
      <point x="210" y="820"/>
      <point x="54" y="650"/>
      <point x="54" y="400" type="curve" smooth="yes"/>
      <point x="54" y="230"/>
      <point x="126" y="96"/>
      <point x="243" y="28" type="curve"/>
    </contour>
    <contour>
      <point x="266" y="69" type="line"/>
      <point x="211" y="123"/>
      <point x="178" y="210"/>
      <point x="178" y="323" type="curve"/>
      <point x="178" y="477" type="line" smooth="yes"/>
      <point x="178" y="681"/>
      <point x="287" y="797"/>
      <point x="431" y="797" type="curve" smooth="yes"/>
      <point x="482" y="797"/>
      <point x="529" y="782"/>
      <point x="569" y="753" type="curve"/>
    </contour>
    <contour>
      <point x="431" y="3" type="curve" smooth="yes"/>
      <point x="380" y="3"/>
      <point x="334" y="17"/>
      <point x="295" y="44" type="curve"/>
      <point x="598" y="727" type="line"/>
      <point x="651" y="673"/>
      <point x="684" y="588"/>
      <point x="684" y="477" type="curve" smooth="yes"/>
      <point x="684" y="323" type="line" smooth="yes"/>
      <point x="684" y="119"/>
      <point x="574" y="3"/>
    </contour>
  </outline>
</glyph>
<glyph name="germandbls" format="2">
  <advance width="648"/>
  <unicode hex="00DF"/>
  <outline>
    <contour>
      <point x="438" y="-10" type="curve" smooth="yes"/>
      <point x="576" y="-10"/>
      <point x="622" y="69"/>
      <point x="622" y="159" type="curve" smooth="yes"/>
      <point x="622" y="241"/>
      <point x="584" y="296"/>
      <point x="501" y="317" type="curve" smooth="yes"/>
      <point x="399" y="343" type="line" smooth="yes"/>
      <point x="350" y="356"/>
      <point x="293" y="374"/>
      <point x="293" y="427" type="curve" smooth="yes"/>
      <point x="293" y="463"/>
      <point x="322" y="485"/>
      <point x="367" y="507" type="curve" smooth="yes"/>
      <point x="466" y="555"/>
      <point x="538" y="576"/>
      <point x="538" y="672" type="curve" smooth="yes"/>
      <point x="538" y="760"/>
      <point x="469" y="820"/>
      <point x="327" y="820" type="curve" smooth="yes"/>
      <point x="168" y="820"/>
      <point x="91" y="735"/>
      <point x="91" y="562" type="curve" smooth="yes"/>
      <point x="91" y="30" type="line"/>
      <point x="21" y="20" type="line"/>
      <point x="21" y="0" type="line"/>
      <point x="191" y="0" type="line"/>
      <point x="191" y="605" type="line" smooth="yes"/>
      <point x="191" y="744"/>
      <point x="240" y="802"/>
      <point x="327" y="802" type="curve" smooth="yes"/>
      <point x="399" y="802"/>
      <point x="438" y="758"/>
      <point x="438" y="672" type="curve" smooth="yes"/>
      <point x="438" y="590"/>
      <point x="424" y="557"/>
      <point x="357" y="525" type="curve" smooth="yes"/>
      <point x="309" y="502"/>
      <point x="256" y="472"/>
      <point x="256" y="394" type="curve" smooth="yes"/>
      <point x="256" y="304"/>
      <point x="304" y="260"/>
      <point x="388" y="236" type="curve" smooth="yes"/>
      <point x="478" y="211" type="line" smooth="yes"/>
      <point x="539" y="194"/>
      <point x="587" y="180"/>
      <point x="587" y="117" type="curve" smooth="yes"/>
      <point x="587" y="57"/>
      <point x="523" y="9"/>
      <point x="438" y="9" type="curve" smooth="yes"/>
      <point x="387" y="9"/>
      <point x="353" y="28"/>
      <point x="353" y="63" type="curve" smooth="yes"/>
      <point x="353" y="80"/>
      <point x="360" y="94"/>
      <point x="370" y="106" type="curve"/>
      <point x="362" y="131"/>
      <point x="339" y="147"/>
      <point x="315" y="147" type="curve" smooth="yes"/>
      <point x="275" y="147"/>
      <point x="251" y="120"/>
      <point x="251" y="84" type="curve" smooth="yes"/>
      <point x="251" y="23"/>
      <point x="313" y="-10"/>
    </contour>
  </outline>
</glyph>
<glyph name="eth" format="2">
  <advance width="627"/>
  <unicode hex="00F0"/>
  <outline>
    <contour>
      <point x="302" y="-10" type="curve" smooth="yes"/>
      <point x="445" y="-10"/>
      <point x="562" y="96"/>
      <point x="562" y="259" type="curve" smooth="yes"/>
      <point x="562" y="372" type="line" smooth="yes"/>
      <point x="562" y="527"/>
      <point x="510" y="642"/>
      <point x="408" y="718" type="curve"/>
      <point x="513" y="776" type="line"/>
      <point x="500" y="798" type="line"/>
      <point x="385" y="735" type="line"/>
      <point x="334" y="768"/>
      <point x="272" y="793"/>
      <point x="199" y="810" type="curve"/>
      <point x="194" y="788" type="line"/>
      <point x="265" y="770"/>
      <point x="316" y="747"/>
      <point x="354" y="718" type="curve"/>
      <point x="235" y="653" type="line"/>
      <point x="247" y="629" type="line"/>
      <point x="375" y="700" type="line"/>
      <point x="426" y="649"/>
      <point x="444" y="582"/>
      <point x="449" y="493" type="curve"/>
      <point x="408" y="514"/>
      <point x="355" y="527"/>
      <point x="302" y="527" type="curve" smooth="yes"/>
      <point x="159" y="527"/>
      <point x="43" y="422"/>
      <point x="43" y="259" type="curve" smooth="yes"/>
      <point x="43" y="96"/>
      <point x="159" y="-10"/>
    </contour>
    <contour>
      <point x="302" y="12" type="curve" smooth="yes"/>
      <point x="199" y="12"/>
      <point x="153" y="96"/>
      <point x="153" y="209" type="curve" smooth="yes"/>
      <point x="153" y="309" type="line" smooth="yes"/>
      <point x="153" y="422"/>
      <point x="199" y="505"/>
      <point x="302" y="505" type="curve" smooth="yes"/>
      <point x="355" y="505"/>
      <point x="410" y="489"/>
      <point x="450" y="467" type="curve"/>
      <point x="451" y="444"/>
      <point x="452" y="419"/>
      <point x="452" y="393" type="curve"/>
      <point x="452" y="209" type="line" smooth="yes"/>
      <point x="452" y="96"/>
      <point x="405" y="12"/>
    </contour>
  </outline>
</glyph>
<glyph name="divide" format="2">
  <advance width="599"/>
  <unicode hex="00F7"/>
  <outline>
    <contour>
      <point x="75" y="338" type="line"/>
      <point x="524" y="338" type="line"/>
      <point x="524" y="376" type="line"/>
      <point x="75" y="376" type="line"/>
    </contour>
    <contour>
      <point x="300" y="143" type="curve" smooth="yes"/>
      <point x="330" y="143"/>
      <point x="354" y="168"/>
      <point x="354" y="197" type="curve" smooth="yes"/>
      <point x="354" y="227"/>
      <point x="330" y="250"/>
      <point x="300" y="250" type="curve" smooth="yes"/>
      <point x="271" y="250"/>
      <point x="246" y="227"/>
      <point x="246" y="197" type="curve" smooth="yes"/>
      <point x="246" y="168"/>
      <point x="271" y="143"/>
    </contour>
    <contour>
      <point x="300" y="463" type="curve" smooth="yes"/>
      <point x="330" y="463"/>
      <point x="354" y="489"/>
      <point x="354" y="518" type="curve" smooth="yes"/>
      <point x="354" y="547"/>
      <point x="330" y="571"/>
      <point x="300" y="571" type="curve" smooth="yes"/>
      <point x="271" y="571"/>
      <point x="246" y="547"/>
      <point x="246" y="518" type="curve" smooth="yes"/>
      <point x="246" y="489"/>
      <point x="271" y="463"/>
    </contour>
  </outline>
</glyph>
<glyph name="idotless" format="2">
  <advance width="289"/>
  <unicode hex="0131"/>
  <anchor x="145" y="0" name="bottom"/>
  <anchor x="260" y="10" name="ogonek"/>
  <anchor x="137" y="518" name="top"/>
  <outline>
    <contour>
      <point x="28" y="0" type="line"/>
      <point x="268" y="0" type="line"/>
      <point x="268" y="20" type="line"/>
      <point x="198" y="30" type="line"/>
      <point x="198" y="517" type="line"/>
      <point x="28" y="517" type="line"/>
      <point x="28" y="497" type="line"/>
      <point x="98" y="487" type="line"/>
      <point x="98" y="30" type="line"/>
      <point x="28" y="20" type="line"/>
    </contour>
  </outline>
</glyph>
<glyph name="OE" format="2">
  <advance width="1239"/>
  <unicode hex="0152"/>
  <outline>
    <contour>
      <point x="431" y="-20" type="curve" smooth="yes"/>
      <point x="538" y="-20"/>
      <point x="623" y="20"/>
      <point x="681" y="91" type="curve"/>
      <point x="681" y="0" type="line"/>
      <point x="1182" y="0" type="line"/>
      <point x="1182" y="244" type="line"/>
      <point x="1156" y="244" type="line"/>
      <point x="1074" y="24" type="line"/>
      <point x="780" y="24" type="line"/>
      <point x="780" y="391" type="line"/>
      <point x="897" y="391" type="line"/>
      <point x="957" y="244" type="line"/>
      <point x="983" y="244" type="line"/>
      <point x="983" y="560" type="line"/>
      <point x="957" y="560" type="line"/>
      <point x="897" y="415" type="line"/>
      <point x="780" y="415" type="line"/>
      <point x="780" y="775" type="line"/>
      <point x="1056" y="775" type="line"/>
      <point x="1133" y="571" type="line"/>
      <point x="1160" y="571" type="line"/>
      <point x="1160" y="800" type="line"/>
      <point x="681" y="800" type="line"/>
      <point x="681" y="709" type="line"/>
      <point x="623" y="779"/>
      <point x="539" y="820"/>
      <point x="431" y="820" type="curve" smooth="yes"/>
      <point x="210" y="820"/>
      <point x="54" y="650"/>
      <point x="54" y="400" type="curve" smooth="yes"/>
      <point x="54" y="151"/>
      <point x="210" y="-20"/>
    </contour>
    <contour>
      <point x="431" y="3" type="curve" smooth="yes"/>
      <point x="287" y="3"/>
      <point x="182" y="119"/>
      <point x="182" y="323" type="curve" smooth="yes"/>
      <point x="182" y="477" type="line" smooth="yes"/>
      <point x="182" y="681"/>
      <point x="287" y="797"/>
      <point x="431" y="797" type="curve" smooth="yes"/>
      <point x="575" y="797"/>
      <point x="670" y="681"/>
      <point x="670" y="477" type="curve" smooth="yes"/>
      <point x="670" y="323" type="line" smooth="yes"/>
      <point x="670" y="119"/>
      <point x="575" y="3"/>
    </contour>
  </outline>
</glyph>
<glyph name="oe" format="2">
  <advance width="970"/>
  <unicode hex="0153"/>
  <outline>
    <contour>
      <point x="302" y="-10" type="curve" smooth="yes"/>
      <point x="385" y="-10"/>
      <point x="459" y="26"/>
      <point x="506" y="88" type="curve"/>
      <point x="554" y="26"/>
      <point x="629" y="-10"/>
      <point x="715" y="-10" type="curve" smooth="yes"/>
      <point x="825" y="-10"/>
      <point x="906" y="53"/>
      <point x="925" y="152" type="curve"/>
      <point x="902" y="152" type="line"/>
      <point x="886" y="68"/>
      <point x="806" y="12"/>
      <point x="715" y="12" type="curve" smooth="yes"/>
      <point x="612" y="12"/>
      <point x="562" y="96"/>
      <point x="562" y="209" type="curve" smooth="yes"/>
      <point x="562" y="308" type="line"/>
      <point x="930" y="308" type="line"/>
      <point x="928" y="437"/>
      <point x="837" y="527"/>
      <point x="710" y="527" type="curve" smooth="yes"/>
      <point x="626" y="527"/>
      <point x="553" y="492"/>
      <point x="506" y="430" type="curve"/>
      <point x="458" y="492"/>
      <point x="385" y="527"/>
      <point x="302" y="527" type="curve" smooth="yes"/>
      <point x="159" y="527"/>
      <point x="43" y="422"/>
      <point x="43" y="259" type="curve" smooth="yes"/>
      <point x="43" y="96"/>
      <point x="159" y="-10"/>
    </contour>
    <contour>
      <point x="302" y="12" type="curve" smooth="yes"/>
      <point x="199" y="12"/>
      <point x="153" y="96"/>
      <point x="153" y="209" type="curve" smooth="yes"/>
      <point x="153" y="309" type="line" smooth="yes"/>
      <point x="153" y="422"/>
      <point x="199" y="505"/>
      <point x="302" y="505" type="curve" smooth="yes"/>
      <point x="405" y="505"/>
      <point x="451" y="422"/>
      <point x="451" y="309" type="curve" smooth="yes"/>
      <point x="451" y="209" type="line" smooth="yes"/>
      <point x="451" y="96"/>
      <point x="405" y="12"/>
    </contour>
    <contour>
      <point x="563" y="333" type="line"/>
      <point x="569" y="433"/>
      <point x="616" y="505"/>
      <point x="709" y="505" type="curve" smooth="yes"/>
      <point x="784" y="505"/>
      <point x="820" y="449"/>
      <point x="820" y="333" type="curve"/>
    </contour>
  </outline>
</glyph>
<glyph name="circumflex" format="2">
  <advance width="361"/>
  <unicode hex="02C6"/>
  <outline>
    <contour>
      <point x="62" y="589" type="line"/>
      <point x="180" y="683" type="line"/>
      <point x="299" y="589" type="line"/>
      <point x="320" y="604" type="line"/>
      <point x="200" y="759" type="line"/>
      <point x="161" y="759" type="line"/>
      <point x="41" y="604" type="line"/>
    </contour>
  </outline>
</glyph>
<glyph name="brevecomb" format="2">
  <unicode hex="0306"/>
  <anchor x="232" y="518" name="_top"/>
  <anchor x="232" y="672" name="top"/>
  <outline>
    <contour>
      <point x="232" y="589" type="curve"/>
      <point x="306" y="589"/>
      <point x="348" y="642"/>
      <point x="363" y="709" type="curve"/>
      <point x="329" y="709" type="line"/>
      <point x="316" y="672"/>
      <point x="284" y="646"/>
      <point x="232" y="646" type="curve" smooth="yes"/>
      <point x="182" y="646"/>
      <point x="149" y="671"/>
      <point x="135" y="709" type="curve"/>
      <point x="101" y="709" type="line"/>
      <point x="114" y="641"/>
      <point x="161" y="588"/>
    </contour>
  </outline>
</glyph>
<glyph name="hungarumlautcomb" format="2">
  <unicode hex="030B"/>
  <anchor x="117" y="518" name="_top"/>
  <outline>
    <contour>
      <point x="3" y="571" type="line"/>
      <point x="136" y="697" type="line" smooth="yes"/>
      <point x="144" y="704"/>
      <point x="150" y="715"/>
      <point x="150" y="727" type="curve" smooth="yes"/>
      <point x="150" y="749"/>
      <point x="131" y="767"/>
      <point x="110" y="767" type="curve" smooth="yes"/>
      <point x="94" y="767"/>
      <point x="80" y="757"/>
      <point x="73" y="743" type="curve" smooth="yes"/>
      <point x="-11" y="581" type="line"/>
    </contour>
    <contour>
      <point x="143" y="571" type="line"/>
      <point x="276" y="697" type="line" smooth="yes"/>
      <point x="284" y="704"/>
      <point x="290" y="715"/>
      <point x="290" y="727" type="curve" smooth="yes"/>
      <point x="290" y="749"/>
      <point x="271" y="767"/>
      <point x="250" y="767" type="curve" smooth="yes"/>
      <point x="234" y="767"/>
      <point x="220" y="757"/>
      <point x="213" y="743" type="curve" smooth="yes"/>
      <point x="130" y="581" type="line"/>
    </contour>
  </outline>
</glyph>
<glyph name="Dje-cy" format="2">
  <advance width="880"/>
  <unicode hex="0402"/>
  <outline>
    <contour>
      <point x="184" y="0" type="line"/>
      <point x="478" y="0" type="line"/>
      <point x="478" y="21" type="line"/>
      <point x="386" y="36" type="line"/>
      <point x="386" y="775" type="line"/>
      <point x="532" y="775" type="line"/>
      <point x="607" y="577" type="line"/>
      <point x="637" y="577" type="line"/>
      <point x="637" y="800" type="line"/>
      <point x="25" y="800" type="line"/>
      <point x="25" y="577" type="line"/>
      <point x="54" y="577" type="line"/>
      <point x="130" y="775" type="line"/>
      <point x="276" y="775" type="line"/>
      <point x="276" y="36" type="line"/>
      <point x="184" y="21" type="line"/>
    </contour>
    <contour>
      <point x="581" y="-6" type="line"/>
      <point x="785" y="-6"/>
      <point x="846" y="75"/>
      <point x="846" y="219" type="curve" smooth="yes"/>
      <point x="846" y="365"/>
      <point x="783" y="448"/>
      <point x="571" y="448" type="curve" smooth="yes"/>
      <point x="460" y="448"/>
      <point x="386" y="407"/>
      <point x="386" y="407" type="curve"/>
      <point x="386" y="381" type="line"/>
      <point x="386" y="381"/>
      <point x="454" y="425"/>
      <point x="571" y="425" type="curve" smooth="yes"/>
      <point x="691" y="425"/>
      <point x="736" y="346"/>
      <point x="736" y="219" type="curve" smooth="yes"/>
      <point x="736" y="94"/>
      <point x="694" y="17"/>
      <point x="581" y="17" type="curve"/>
    </contour>
  </outline>
</glyph>
<glyph name="Lje-cy" format="2">
  <advance width="1103"/>
  <unicode hex="0409"/>
  <outline>
    <contour>
      <point x="86" y="-10" type="curve" smooth="yes"/>
      <point x="227" y="-10"/>
      <point x="252" y="164"/>
      <point x="270" y="570" type="curve" smooth="yes"/>
      <point x="279" y="775" type="line"/>
      <point x="523" y="775" type="line"/>
      <point x="524" y="36" type="line"/>
      <point x="431" y="21" type="line"/>
      <point x="431" y="0" type="line"/>
      <point x="633" y="0" type="line"/>
      <point x="777" y="0" type="line" smooth="yes"/>
      <point x="972" y="0"/>
      <point x="1069" y="72"/>
      <point x="1069" y="225" type="curve" smooth="yes"/>
      <point x="1069" y="378"/>
      <point x="972" y="450"/>
      <point x="777" y="450" type="curve" smooth="yes"/>
      <point x="633" y="450" type="line"/>
      <point x="633" y="764" type="line"/>
      <point x="726" y="778" type="line"/>
      <point x="726" y="800" type="line"/>
      <point x="144" y="800" type="line"/>
      <point x="144" y="777" type="line"/>
      <point x="250" y="733" type="line"/>
      <point x="243" y="571" type="line" smooth="yes"/>
      <point x="226" y="166"/>
      <point x="188" y="41"/>
      <point x="124" y="41" type="curve" smooth="yes"/>
      <point x="106" y="41"/>
      <point x="96" y="54"/>
      <point x="96" y="69" type="curve" smooth="yes"/>
      <point x="96" y="80"/>
      <point x="102" y="92"/>
      <point x="114" y="100" type="curve"/>
      <point x="114" y="100"/>
      <point x="100" y="133"/>
      <point x="59" y="133" type="curve" smooth="yes"/>
      <point x="16" y="133"/>
      <point x="-7" y="101"/>
      <point x="-7" y="68" type="curve" smooth="yes"/>
      <point x="-7" y="30"/>
      <point x="16" y="-10"/>
    </contour>
    <contour>
      <point x="633" y="25" type="line"/>
      <point x="633" y="426" type="line"/>
      <point x="761" y="426" type="line" smooth="yes"/>
      <point x="884" y="426"/>
      <point x="946" y="369"/>
      <point x="946" y="245" type="curve" smooth="yes"/>
      <point x="946" y="205" type="line" smooth="yes"/>
      <point x="946" y="82"/>
      <point x="884" y="25"/>
      <point x="761" y="25" type="curve" smooth="yes"/>
    </contour>
  </outline>
</glyph>
<glyph name="Be-cy" format="2">
  <advance width="723"/>
  <unicode hex="0411"/>
  <outline>
    <contour>
      <point x="40" y="0" type="line"/>
      <point x="384" y="0" type="line" smooth="yes"/>
      <point x="579" y="0"/>
      <point x="676" y="72"/>
      <point x="676" y="225" type="curve" smooth="yes"/>
      <point x="676" y="378"/>
      <point x="579" y="450"/>
      <point x="384" y="450" type="curve" smooth="yes"/>
      <point x="242" y="450" type="line"/>
      <point x="242" y="775" type="line"/>
      <point x="507" y="775" type="line"/>
      <point x="582" y="587" type="line"/>
      <point x="612" y="587" type="line"/>
      <point x="612" y="800" type="line"/>
      <point x="40" y="800" type="line"/>
      <point x="40" y="779" type="line"/>
      <point x="132" y="764" type="line"/>
      <point x="132" y="36" type="line"/>
      <point x="40" y="22" type="line"/>
    </contour>
    <contour>
      <point x="242" y="25" type="line"/>
      <point x="242" y="426" type="line"/>
      <point x="370" y="426" type="line" smooth="yes"/>
      <point x="493" y="426"/>
      <point x="555" y="369"/>
      <point x="555" y="245" type="curve" smooth="yes"/>
      <point x="555" y="205" type="line" smooth="yes"/>
      <point x="555" y="82"/>
      <point x="493" y="25"/>
      <point x="370" y="25" type="curve" smooth="yes"/>
    </contour>
  </outline>
</glyph>
<glyph name="Ge-cy" format="2">
  <advance width="654"/>
  <unicode hex="0413"/>
  <anchor x="334" y="0" name="bottomright"/>
  <anchor x="334" y="800" name="top"/>
  <outline>
    <contour>
      <point x="40" y="0" type="line"/>
      <point x="334" y="0" type="line"/>
      <point x="334" y="21" type="line"/>
      <point x="242" y="36" type="line"/>
      <point x="242" y="775" type="line"/>
      <point x="528" y="775" type="line"/>
      <point x="603" y="577" type="line"/>
      <point x="633" y="577" type="line"/>
      <point x="633" y="800" type="line"/>
      <point x="40" y="800" type="line"/>
      <point x="40" y="775" type="line"/>
      <point x="132" y="760" type="line"/>
      <point x="132" y="36" type="line"/>
      <point x="40" y="21" type="line"/>
    </contour>
  </outline>
</glyph>
<glyph name="De-cy" format="2">
  <advance width="737"/>
  <unicode hex="0414"/>
  <outline>
    <contour>
      <point x="-45" y="-220" type="line"/>
      <point x="-15" y="-220" type="line"/>
      <point x="89" y="0" type="line"/>
      <point x="563" y="0" type="line"/>
      <point x="667" y="-220" type="line"/>
      <point x="697" y="-220" type="line"/>
      <point x="682" y="25" type="line"/>
      <point x="596" y="25" type="line"/>
      <point x="596" y="764" type="line"/>
      <point x="689" y="778" type="line"/>
      <point x="689" y="800" type="line"/>
      <point x="104" y="800" type="line"/>
      <point x="104" y="777" type="line"/>
      <point x="210" y="733" type="line"/>
      <point x="197" y="518" type="line" smooth="yes"/>
      <point x="184" y="297"/>
      <point x="166" y="214"/>
      <point x="131" y="141" type="curve" smooth="yes"/>
      <point x="90" y="55"/>
      <point x="44" y="25"/>
      <point x="3" y="25" type="curve" smooth="yes"/>
      <point x="-30" y="25" type="line"/>
    </contour>
    <contour>
      <point x="78" y="25" type="line"/>
      <point x="78" y="25"/>
      <point x="121" y="51"/>
      <point x="157" y="131" type="curve" smooth="yes"/>
      <point x="189" y="203"/>
      <point x="209" y="284"/>
      <point x="224" y="518" type="curve" smooth="yes"/>
      <point x="240" y="775" type="line"/>
      <point x="486" y="775" type="line"/>
      <point x="486" y="25" type="line"/>
    </contour>
  </outline>
</glyph>
<glyph name="Zhe-cy" format="2">
  <advance width="1082"/>
  <unicode hex="0416"/>
  <anchor x="538" y="800" name="top"/>
  <outline>
    <contour>
      <point x="117" y="-10" type="curve" smooth="yes"/>
      <point x="192" y="-10"/>
      <point x="226" y="22"/>
      <point x="239" y="109" type="curve" smooth="yes"/>
      <point x="263" y="278" type="line" smooth="yes"/>
      <point x="276" y="370"/>
      <point x="312" y="413"/>
      <point x="412" y="413" type="curve" smooth="yes"/>
      <point x="486" y="413" type="line"/>
      <point x="486" y="36" type="line"/>
      <point x="394" y="21" type="line"/>
      <point x="394" y="0" type="line"/>
      <point x="688" y="0" type="line"/>
      <point x="688" y="21" type="line"/>
      <point x="596" y="36" type="line"/>
      <point x="596" y="413" type="line"/>
      <point x="670" y="413" type="line" smooth="yes"/>
      <point x="770" y="413"/>
      <point x="806" y="370"/>
      <point x="819" y="278" type="curve" smooth="yes"/>
      <point x="843" y="109" type="line" smooth="yes"/>
      <point x="856" y="22"/>
      <point x="890" y="-10"/>
      <point x="965" y="-10" type="curve" smooth="yes"/>
      <point x="1014" y="-10"/>
      <point x="1056" y="10"/>
      <point x="1092" y="51" type="curve"/>
      <point x="1075" y="69" type="line"/>
      <point x="1050" y="43"/>
      <point x="1026" y="32"/>
      <point x="1003" y="36" type="curve" smooth="yes"/>
      <point x="980" y="41"/>
      <point x="971" y="64"/>
      <point x="960" y="131" type="curve" smooth="yes"/>
      <point x="937" y="282" type="line" smooth="yes"/>
      <point x="924" y="368"/>
      <point x="869" y="421"/>
      <point x="755" y="434" type="curve"/>
      <point x="795" y="452"/>
      <point x="827" y="497"/>
      <point x="844" y="559" type="curve"/>
      <point x="875" y="685" type="line" smooth="yes"/>
      <point x="880" y="706"/>
      <point x="893" y="719"/>
      <point x="916" y="719" type="curve" smooth="yes"/>
      <point x="943" y="719"/>
      <point x="958" y="698"/>
      <point x="966" y="676" type="curve"/>
      <point x="986" y="676" type="line" smooth="yes"/>
      <point x="1023" y="676"/>
      <point x="1046" y="703"/>
      <point x="1046" y="741" type="curve" smooth="yes"/>
      <point x="1046" y="783"/>
      <point x="1013" y="810"/>
      <point x="964" y="810" type="curve" smooth="yes"/>
      <point x="908" y="810"/>
      <point x="873" y="774"/>
      <point x="853" y="698" type="curve"/>
      <point x="822" y="572" type="line"/>
      <point x="799" y="491"/>
      <point x="753" y="439"/>
      <point x="693" y="437" type="curve"/>
      <point x="596" y="437" type="line"/>
      <point x="596" y="764" type="line"/>
      <point x="688" y="778" type="line"/>
      <point x="688" y="800" type="line"/>
      <point x="394" y="800" type="line"/>
      <point x="394" y="778" type="line"/>
      <point x="486" y="764" type="line"/>
      <point x="486" y="437" type="line"/>
      <point x="390" y="437" type="line"/>
      <point x="329" y="438"/>
      <point x="282" y="490"/>
      <point x="260" y="572" type="curve"/>
      <point x="229" y="698" type="line"/>
      <point x="209" y="774"/>
      <point x="174" y="810"/>
      <point x="118" y="810" type="curve" smooth="yes"/>
      <point x="69" y="810"/>
      <point x="36" y="783"/>
      <point x="36" y="741" type="curve" smooth="yes"/>
      <point x="36" y="703"/>
      <point x="59" y="676"/>
      <point x="96" y="676" type="curve" smooth="yes"/>
      <point x="116" y="676" type="line"/>
      <point x="124" y="698"/>
      <point x="139" y="719"/>
      <point x="166" y="719" type="curve" smooth="yes"/>
      <point x="189" y="719"/>
      <point x="202" y="706"/>
      <point x="207" y="685" type="curve" smooth="yes"/>
      <point x="238" y="559" type="line"/>
      <point x="255" y="497"/>
      <point x="286" y="452"/>
      <point x="327" y="434" type="curve"/>
      <point x="213" y="421"/>
      <point x="158" y="368"/>
      <point x="145" y="282" type="curve" smooth="yes"/>
      <point x="122" y="131" type="line" smooth="yes"/>
      <point x="111" y="64"/>
      <point x="102" y="41"/>
      <point x="79" y="36" type="curve" smooth="yes"/>
      <point x="56" y="32"/>
      <point x="32" y="43"/>
      <point x="7" y="69" type="curve"/>
      <point x="-11" y="51" type="line"/>
      <point x="26" y="10"/>
      <point x="68" y="-10"/>
    </contour>
  </outline>
</glyph>
<glyph name="Ka-cy" format="2">
  <advance width="738"/>
  <unicode hex="041A"/>
  <anchor x="340" y="426" name="center"/>
  <anchor x="358" y="800" name="top"/>
  <outline>
    <contour>
      <point x="621" y="-10" type="curve" smooth="yes"/>
      <point x="670" y="-10"/>
      <point x="712" y="10"/>
      <point x="748" y="51" type="curve"/>
      <point x="731" y="69" type="line"/>
      <point x="706" y="43"/>
      <point x="682" y="32"/>
      <point x="659" y="36" type="curve" smooth="yes"/>
      <point x="636" y="41"/>
      <point x="627" y="64"/>
      <point x="616" y="131" type="curve" smooth="yes"/>
      <point x="593" y="282" type="line" smooth="yes"/>
      <point x="580" y="367"/>
      <point x="525" y="420"/>
      <point x="412" y="433" type="curve"/>
      <point x="452" y="452"/>
      <point x="484" y="496"/>
      <point x="500" y="559" type="curve" smooth="yes"/>
      <point x="531" y="685" type="line" smooth="yes"/>
      <point x="536" y="706"/>
      <point x="549" y="719"/>
      <point x="572" y="719" type="curve" smooth="yes"/>
      <point x="599" y="719"/>
      <point x="614" y="698"/>
      <point x="622" y="676" type="curve"/>
      <point x="642" y="676" type="line" smooth="yes"/>
      <point x="679" y="676"/>
      <point x="702" y="703"/>
      <point x="702" y="741" type="curve" smooth="yes"/>
      <point x="702" y="783"/>
      <point x="663" y="810"/>
      <point x="620" y="810" type="curve" smooth="yes"/>
      <point x="568" y="810"/>
      <point x="528" y="774"/>
      <point x="509" y="698" type="curve" smooth="yes"/>
      <point x="478" y="572" type="line" smooth="yes"/>
      <point x="458" y="492"/>
      <point x="412" y="439"/>
      <point x="347" y="437" type="curve" smooth="yes"/>
      <point x="242" y="437" type="line"/>
      <point x="242" y="764" type="line"/>
      <point x="334" y="778" type="line"/>
      <point x="334" y="800" type="line"/>
      <point x="40" y="800" type="line"/>
      <point x="40" y="778" type="line"/>
      <point x="132" y="764" type="line"/>
      <point x="132" y="36" type="line"/>
      <point x="40" y="21" type="line"/>
      <point x="40" y="0" type="line"/>
      <point x="334" y="0" type="line"/>
      <point x="334" y="21" type="line"/>
      <point x="242" y="36" type="line"/>
      <point x="242" y="413" type="line"/>
      <point x="326" y="413" type="line" smooth="yes"/>
      <point x="426" y="413"/>
      <point x="462" y="370"/>
      <point x="475" y="278" type="curve" smooth="yes"/>
      <point x="499" y="109" type="line" smooth="yes"/>
      <point x="512" y="22"/>
      <point x="546" y="-10"/>
    </contour>
  </outline>
</glyph>
<glyph name="Pe-cy" format="2">
  <advance width="855"/>
  <unicode hex="041F"/>
  <outline>
    <contour>
      <point x="40" y="0" type="line"/>
      <point x="334" y="0" type="line"/>
      <point x="334" y="21" type="line"/>
      <point x="242" y="36" type="line"/>
      <point x="242" y="775" type="line"/>
      <point x="612" y="775" type="line"/>
      <point x="612" y="36" type="line"/>
      <point x="519" y="21" type="line"/>
      <point x="519" y="0" type="line"/>
      <point x="815" y="0" type="line"/>
      <point x="815" y="21" type="line"/>
      <point x="722" y="36" type="line"/>
      <point x="722" y="764" type="line"/>
      <point x="815" y="778" type="line"/>
      <point x="815" y="800" type="line"/>
      <point x="40" y="800" type="line"/>
      <point x="40" y="778" type="line"/>
      <point x="132" y="764" type="line"/>
      <point x="132" y="36" type="line"/>
      <point x="40" y="21" type="line"/>
    </contour>
  </outline>
</glyph>
<glyph name="Tse-cy" format="2">
  <advance width="853"/>
  <unicode hex="0426"/>
  <outline>
    <contour>
      <point x="783" y="-220" type="line"/>
      <point x="813" y="-220" type="line"/>
      <point x="798" y="25" type="line"/>
      <point x="712" y="25" type="line"/>
      <point x="712" y="764" type="line"/>
      <point x="805" y="779" type="line"/>
      <point x="805" y="800" type="line"/>
      <point x="509" y="800" type="line"/>
      <point x="509" y="779" type="line"/>
      <point x="602" y="764" type="line"/>
      <point x="602" y="25" type="line"/>
      <point x="242" y="25" type="line"/>
      <point x="242" y="764" type="line"/>
      <point x="334" y="779" type="line"/>
      <point x="334" y="800" type="line"/>
      <point x="40" y="800" type="line"/>
      <point x="40" y="779" type="line"/>
      <point x="132" y="764" type="line"/>
      <point x="132" y="36" type="line"/>
      <point x="40" y="22" type="line"/>
      <point x="40" y="0" type="line"/>
      <point x="679" y="0" type="line"/>
    </contour>
  </outline>
</glyph>
<glyph name="Che-cy" format="2">
  <advance width="811"/>
  <unicode hex="0427"/>
  <anchor x="402" y="345" name="center"/>
  <anchor x="396" y="800" name="top"/>
  <outline>
    <contour>
      <point x="445" y="0" type="line"/>
      <point x="771" y="0" type="line"/>
      <point x="771" y="21" type="line"/>
      <point x="678" y="36" type="line"/>
      <point x="678" y="764" type="line"/>
      <point x="771" y="778" type="line"/>
      <point x="771" y="800" type="line"/>
      <point x="475" y="800" type="line"/>
      <point x="475" y="778" type="line"/>
      <point x="568" y="764" type="line"/>
      <point x="568" y="399" type="line"/>
      <point x="568" y="399"/>
      <point x="496" y="355"/>
      <point x="373" y="355" type="curve" smooth="yes"/>
      <point x="261" y="355"/>
      <point x="218" y="415"/>
      <point x="218" y="534" type="curve" smooth="yes"/>
      <point x="218" y="764" type="line"/>
      <point x="310" y="778" type="line"/>
      <point x="310" y="800" type="line"/>
      <point x="16" y="800" type="line"/>
      <point x="16" y="778" type="line"/>
      <point x="108" y="764" type="line"/>
      <point x="108" y="532" type="line" smooth="yes"/>
      <point x="108" y="394"/>
      <point x="168" y="332"/>
      <point x="373" y="332" type="curve" smooth="yes"/>
      <point x="490" y="332"/>
      <point x="568" y="373"/>
      <point x="568" y="373" type="curve"/>
      <point x="568" y="36" type="line"/>
      <point x="445" y="21" type="line"/>
    </contour>
  </outline>
</glyph>
<glyph name="Sha-cy" format="2">
  <advance width="1135"/>
  <unicode hex="0428"/>
  <outline>
    <contour>
      <point x="40" y="0" type="line"/>
      <point x="1095" y="0" type="line"/>
      <point x="1095" y="21" type="line"/>
      <point x="1002" y="36" type="line"/>
      <point x="1002" y="764" type="line"/>
      <point x="1095" y="778" type="line"/>
      <point x="1095" y="800" type="line"/>
      <point x="799" y="800" type="line"/>
      <point x="799" y="778" type="line"/>
      <point x="892" y="764" type="line"/>
      <point x="892" y="25" type="line"/>
      <point x="622" y="25" type="line"/>
      <point x="622" y="764" type="line"/>
      <point x="714" y="778" type="line"/>
      <point x="715" y="778" type="line"/>
      <point x="715" y="800" type="line"/>
      <point x="419" y="800" type="line"/>
      <point x="419" y="778" type="line"/>
      <point x="420" y="778" type="line"/>
      <point x="512" y="764" type="line"/>
      <point x="512" y="25" type="line"/>
      <point x="242" y="25" type="line"/>
      <point x="242" y="764" type="line"/>
      <point x="334" y="778" type="line"/>
      <point x="334" y="800" type="line"/>
      <point x="40" y="800" type="line"/>
      <point x="40" y="778" type="line"/>
      <point x="132" y="764" type="line"/>
      <point x="132" y="36" type="line"/>
      <point x="40" y="21" type="line"/>
    </contour>
  </outline>
</glyph>
<glyph name="ge-cy" format="2">
  <advance width="500"/>
  <unicode hex="0433"/>
  <anchor x="237" y="0" name="bottomright"/>
  <anchor x="247" y="518" name="top"/>
  <outline>
    <contour>
      <point x="27" y="0" type="line"/>
      <point x="287" y="0" type="line"/>
      <point x="287" y="20" type="line"/>
      <point x="197" y="30" type="line"/>
      <point x="197" y="493" type="line"/>
      <point x="363" y="493" type="line"/>
      <point x="451" y="328" type="line"/>
      <point x="479" y="328" type="line"/>
      <point x="464" y="518" type="line"/>
      <point x="27" y="518" type="line"/>
      <point x="27" y="498" type="line"/>
      <point x="97" y="488" type="line"/>
      <point x="97" y="30" type="line"/>
      <point x="27" y="20" type="line"/>
    </contour>
  </outline>
</glyph>
<glyph name="de-cy" format="2">
  <advance width="540"/>
  <unicode hex="0434"/>
  <outline>
    <contour>
      <point x="-20" y="-165" type="line"/>
      <point x="8" y="-165" type="line"/>
      <point x="95" y="0" type="line"/>
      <point x="417" y="0" type="line"/>
      <point x="505" y="-165" type="line"/>
      <point x="533" y="-165" type="line"/>
      <point x="518" y="25" type="line"/>
      <point x="447" y="25" type="line"/>
      <point x="447" y="488" type="line"/>
      <point x="517" y="498" type="line"/>
      <point x="517" y="518" type="line"/>
      <point x="62" y="518" type="line"/>
      <point x="62" y="498" type="line"/>
      <point x="153" y="455" type="line"/>
      <point x="145" y="335" type="line" smooth="yes"/>
      <point x="135" y="189"/>
      <point x="125" y="141"/>
      <point x="107" y="99" type="curve" smooth="yes"/>
      <point x="85" y="49"/>
      <point x="55" y="25"/>
      <point x="27" y="25" type="curve" smooth="yes"/>
      <point x="-5" y="25" type="line"/>
    </contour>
    <contour>
      <point x="85" y="25" type="line"/>
      <point x="85" y="25"/>
      <point x="112" y="44"/>
      <point x="132" y="94" type="curve" smooth="yes"/>
      <point x="147" y="132"/>
      <point x="160" y="181"/>
      <point x="170" y="335" type="curve" smooth="yes"/>
      <point x="181" y="497" type="line"/>
      <point x="167" y="493" type="line"/>
      <point x="347" y="493" type="line"/>
      <point x="347" y="25" type="line"/>
    </contour>
  </outline>
</glyph>
<glyph name="zhe-cy" format="2">
  <advance width="850"/>
  <unicode hex="0436"/>
  <anchor x="425" y="518" name="top"/>
  <outline>
    <contour>
      <point x="91" y="-12" type="curve" smooth="yes"/>
      <point x="150" y="-12"/>
      <point x="174" y="12"/>
      <point x="185" y="69" type="curve" smooth="yes"/>
      <point x="205" y="177" type="line"/>
      <point x="216" y="243"/>
      <point x="246" y="262"/>
      <point x="292" y="263" type="curve" smooth="yes"/>
      <point x="296" y="263" type="line"/>
      <point x="297" y="263" type="line"/>
      <point x="375" y="263" type="line"/>
      <point x="375" y="31" type="line"/>
      <point x="303" y="20" type="line"/>
      <point x="303" y="0" type="line"/>
      <point x="547" y="0" type="line"/>
      <point x="547" y="20" type="line"/>
      <point x="475" y="31" type="line"/>
      <point x="475" y="263" type="line"/>
      <point x="553" y="263" type="line" smooth="yes"/>
      <point x="602" y="263"/>
      <point x="632" y="246"/>
      <point x="645" y="177" type="curve" smooth="yes"/>
      <point x="665" y="69" type="line" smooth="yes"/>
      <point x="676" y="12"/>
      <point x="700" y="-12"/>
      <point x="759" y="-12" type="curve" smooth="yes"/>
      <point x="791" y="-12"/>
      <point x="829" y="3"/>
      <point x="855" y="33" type="curve"/>
      <point x="840" y="48" type="line"/>
      <point x="827" y="35"/>
      <point x="815" y="30"/>
      <point x="805" y="30" type="curve" smooth="yes"/>
      <point x="785" y="30"/>
      <point x="776" y="41"/>
      <point x="768" y="85" type="curve" smooth="yes"/>
      <point x="751" y="173" type="line"/>
      <point x="739" y="241"/>
      <point x="705" y="276"/>
      <point x="614" y="284" type="curve"/>
      <point x="630" y="299"/>
      <point x="641" y="322"/>
      <point x="648" y="350" type="curve" smooth="yes"/>
      <point x="667" y="422" type="line" smooth="yes"/>
      <point x="672" y="440"/>
      <point x="682" y="450"/>
      <point x="699" y="450" type="curve" smooth="yes"/>
      <point x="720" y="450"/>
      <point x="734" y="429"/>
      <point x="724" y="402" type="curve"/>
      <point x="780" y="383"/>
      <point x="814" y="419"/>
      <point x="814" y="460" type="curve" smooth="yes"/>
      <point x="814" y="495"/>
      <point x="789" y="527"/>
      <point x="738" y="527" type="curve" smooth="yes"/>
      <point x="676" y="527"/>
      <point x="656" y="487"/>
      <point x="642" y="429" type="curve" smooth="yes"/>
      <point x="624" y="357" type="line" smooth="yes"/>
      <point x="611" y="306"/>
      <point x="591" y="287"/>
      <point x="558" y="286" type="curve"/>
      <point x="475" y="286" type="line"/>
      <point x="475" y="487" type="line"/>
      <point x="547" y="497" type="line"/>
      <point x="547" y="518" type="line"/>
      <point x="303" y="518" type="line"/>
      <point x="303" y="497" type="line"/>
      <point x="375" y="487" type="line"/>
      <point x="375" y="286" type="line"/>
      <point x="296" y="286" type="line"/>
      <point x="292" y="286" type="line"/>
      <point x="290" y="286" type="line" smooth="yes"/>
      <point x="257" y="288"/>
      <point x="238" y="306"/>
      <point x="226" y="357" type="curve" smooth="yes"/>
      <point x="208" y="429" type="line" smooth="yes"/>
      <point x="194" y="487"/>
      <point x="174" y="527"/>
      <point x="112" y="527" type="curve" smooth="yes"/>
      <point x="61" y="527"/>
      <point x="36" y="495"/>
      <point x="36" y="460" type="curve" smooth="yes"/>
      <point x="36" y="419"/>
      <point x="70" y="383"/>
      <point x="126" y="402" type="curve"/>
      <point x="116" y="429"/>
      <point x="130" y="450"/>
      <point x="151" y="450" type="curve" smooth="yes"/>
      <point x="168" y="450"/>
      <point x="178" y="440"/>
      <point x="183" y="422" type="curve" smooth="yes"/>
      <point x="202" y="350" type="line" smooth="yes"/>
      <point x="209" y="322"/>
      <point x="219" y="299"/>
      <point x="235" y="284" type="curve"/>
      <point x="145" y="276"/>
      <point x="111" y="241"/>
      <point x="99" y="173" type="curve"/>
      <point x="82" y="85" type="line" smooth="yes"/>
      <point x="74" y="41"/>
      <point x="65" y="30"/>
      <point x="45" y="30" type="curve" smooth="yes"/>
      <point x="35" y="30"/>
      <point x="23" y="35"/>
      <point x="10" y="48" type="curve"/>
      <point x="-5" y="33" type="line"/>
      <point x="21" y="3"/>
      <point x="59" y="-12"/>
    </contour>
  </outline>
</glyph>
<glyph name="ze-cy" format="2">
  <advance width="532"/>
  <unicode hex="0437"/>
  <anchor x="252" y="518" name="top"/>
  <outline>
    <contour>
      <point x="249" y="-10" type="curve" smooth="yes"/>
      <point x="415" y="-10"/>
      <point x="490" y="48"/>
      <point x="490" y="140" type="curve" smooth="yes"/>
      <point x="490" y="216"/>
      <point x="437" y="265"/>
      <point x="328" y="276" type="curve"/>
      <point x="328" y="277" type="line"/>
      <point x="421" y="292"/>
      <point x="466" y="335"/>
      <point x="466" y="397" type="curve" smooth="yes"/>
      <point x="466" y="482"/>
      <point x="406" y="527"/>
      <point x="254" y="527" type="curve" smooth="yes"/>
      <point x="203" y="527"/>
      <point x="164" y="512"/>
      <point x="137" y="498" type="curve"/>
      <point x="77" y="527" type="line"/>
      <point x="66" y="337" type="line"/>
      <point x="87" y="337" type="line"/>
      <point x="147" y="480" type="line"/>
      <point x="171" y="494"/>
      <point x="207" y="508"/>
      <point x="252" y="508" type="curve" smooth="yes"/>
      <point x="332" y="508"/>
      <point x="358" y="461"/>
      <point x="358" y="396" type="curve" smooth="yes"/>
      <point x="358" y="392" type="line" smooth="yes"/>
      <point x="358" y="320"/>
      <point x="316" y="284"/>
      <point x="241" y="284" type="curve" smooth="yes"/>
      <point x="185" y="284" type="line"/>
      <point x="185" y="260" type="line"/>
      <point x="241" y="260" type="line" smooth="yes"/>
      <point x="315" y="260"/>
      <point x="382" y="223"/>
      <point x="382" y="146" type="curve" smooth="yes"/>
      <point x="382" y="133" type="line" smooth="yes"/>
      <point x="382" y="49"/>
      <point x="325" y="9"/>
      <point x="249" y="9" type="curve" smooth="yes"/>
      <point x="182" y="9"/>
      <point x="139" y="43"/>
      <point x="139" y="88" type="curve" smooth="yes"/>
      <point x="139" y="103"/>
      <point x="145" y="117"/>
      <point x="156" y="130" type="curve"/>
      <point x="148" y="155"/>
      <point x="125" y="168"/>
      <point x="101" y="168" type="curve" smooth="yes"/>
      <point x="62" y="168"/>
      <point x="37" y="140"/>
      <point x="37" y="101" type="curve" smooth="yes"/>
      <point x="37" y="44"/>
      <point x="89" y="-10"/>
    </contour>
  </outline>
</glyph>
<glyph name="el-cy" format="2">
  <advance width="606"/>
  <unicode hex="043B"/>
  <outline>
    <contour>
      <point x="90" y="-10" type="curve" smooth="yes"/>
      <point x="187" y="-10"/>
      <point x="225" y="100"/>
      <point x="237" y="335" type="curve" smooth="yes"/>
      <point x="245" y="493" type="line"/>
      <point x="407" y="493" type="line"/>
      <point x="407" y="31" type="line"/>
      <point x="345" y="21" type="line"/>
      <point x="345" y="0" type="line"/>
      <point x="579" y="0" type="line"/>
      <point x="579" y="21" type="line"/>
      <point x="507" y="31" type="line"/>
      <point x="507" y="488" type="line"/>
      <point x="577" y="498" type="line"/>
      <point x="577" y="518" type="line"/>
      <point x="128" y="518" type="line"/>
      <point x="128" y="498" type="line"/>
      <point x="219" y="455" type="line"/>
      <point x="213" y="336" type="line" smooth="yes"/>
      <point x="202" y="120"/>
      <point x="169" y="46"/>
      <point x="130" y="46" type="curve" smooth="yes"/>
      <point x="115" y="46"/>
      <point x="110" y="54"/>
      <point x="110" y="62" type="curve" smooth="yes"/>
      <point x="110" y="70"/>
      <point x="113" y="79"/>
      <point x="123" y="88" type="curve"/>
      <point x="123" y="88"/>
      <point x="109" y="117"/>
      <point x="73" y="117" type="curve" smooth="yes"/>
      <point x="43" y="117"/>
      <point x="15" y="96"/>
      <point x="15" y="57" type="curve" smooth="yes"/>
      <point x="15" y="12"/>
      <point x="45" y="-10"/>
    </contour>
  </outline>
</glyph>
<glyph name="en-cy" format="2">
  <advance width="641"/>
  <unicode hex="043D"/>
  <outline>
    <contour>
      <point x="27" y="0" type="line"/>
      <point x="257" y="0" type="line"/>
      <point x="257" y="20" type="line"/>
      <point x="197" y="30" type="line"/>
      <point x="197" y="250" type="line"/>
      <point x="444" y="250" type="line"/>
      <point x="444" y="30" type="line"/>
      <point x="384" y="20" type="line"/>
      <point x="384" y="0" type="line"/>
      <point x="614" y="0" type="line"/>
      <point x="614" y="20" type="line"/>
      <point x="544" y="30" type="line"/>
      <point x="544" y="488" type="line"/>
      <point x="614" y="498" type="line"/>
      <point x="614" y="518" type="line"/>
      <point x="384" y="518" type="line"/>
      <point x="384" y="498" type="line"/>
      <point x="444" y="488" type="line"/>
      <point x="444" y="275" type="line"/>
      <point x="197" y="275" type="line"/>
      <point x="197" y="488" type="line"/>
      <point x="257" y="498" type="line"/>
      <point x="257" y="518" type="line"/>
      <point x="27" y="518" type="line"/>
      <point x="27" y="498" type="line"/>
      <point x="97" y="488" type="line"/>
      <point x="97" y="30" type="line"/>
      <point x="27" y="20" type="line"/>
    </contour>
  </outline>
</glyph>
<glyph name="pe-cy" format="2">
  <advance width="634"/>
  <unicode hex="043F"/>
  <outline>
    <contour>
      <point x="27" y="0" type="line"/>
      <point x="257" y="0" type="line"/>
      <point x="257" y="20" type="line"/>
      <point x="197" y="30" type="line"/>
      <point x="197" y="493" type="line"/>
      <point x="437" y="493" type="line"/>
      <point x="437" y="30" type="line"/>
      <point x="377" y="20" type="line"/>
      <point x="377" y="0" type="line"/>
      <point x="607" y="0" type="line"/>
      <point x="607" y="20" type="line"/>
      <point x="537" y="30" type="line"/>
      <point x="537" y="488" type="line"/>
      <point x="607" y="498" type="line"/>
      <point x="607" y="518" type="line"/>
      <point x="27" y="518" type="line"/>
      <point x="27" y="498" type="line"/>
      <point x="97" y="488" type="line"/>
      <point x="97" y="30" type="line"/>
      <point x="27" y="20" type="line"/>
    </contour>
  </outline>
</glyph>
<glyph name="ef-cy" format="2">
  <advance width="746"/>
  <unicode hex="0444"/>
  <outline>
    <contour>
      <point x="253" y="-283" type="line"/>
      <point x="493" y="-283" type="line"/>
      <point x="493" y="-263" type="line"/>
      <point x="423" y="-253" type="line"/>
      <point x="423" y="-10" type="line"/>
      <point x="580" y="-10"/>
      <point x="703" y="102"/>
      <point x="703" y="259" type="curve" smooth="yes"/>
      <point x="703" y="417"/>
      <point x="579" y="527"/>
      <point x="423" y="527" type="curve"/>
      <point x="423" y="800" type="line"/>
      <point x="253" y="800" type="line"/>
      <point x="253" y="780" type="line"/>
      <point x="323" y="770" type="line"/>
      <point x="323" y="527" type="line"/>
      <point x="167" y="527"/>
      <point x="43" y="417"/>
      <point x="43" y="259" type="curve" smooth="yes"/>
      <point x="43" y="102"/>
      <point x="166" y="-10"/>
      <point x="323" y="-10" type="curve"/>
      <point x="323" y="-253" type="line"/>
      <point x="253" y="-263" type="line"/>
    </contour>
    <contour>
      <point x="323" y="12" type="line"/>
      <point x="214" y="12"/>
      <point x="153" y="90"/>
      <point x="153" y="209" type="curve" smooth="yes"/>
      <point x="153" y="309" type="line" smooth="yes"/>
      <point x="153" y="429"/>
      <point x="213" y="505"/>
      <point x="323" y="505" type="curve"/>
    </contour>
    <contour>
      <point x="423" y="12" type="curve"/>
      <point x="423" y="505" type="line"/>
      <point x="533" y="505"/>
      <point x="593" y="429"/>
      <point x="593" y="309" type="curve" smooth="yes"/>
      <point x="593" y="209" type="line" smooth="yes"/>
      <point x="593" y="90"/>
      <point x="532" y="12"/>
    </contour>
  </outline>
</glyph>
<glyph name="tse-cy" format="2">
  <advance width="624"/>
  <unicode hex="0446"/>
  <outline>
    <contour>
      <point x="589" y="-165" type="line"/>
      <point x="617" y="-165" type="line"/>
      <point x="602" y="25" type="line"/>
      <point x="531" y="25" type="line"/>
      <point x="531" y="488" type="line"/>
      <point x="601" y="498" type="line"/>
      <point x="601" y="518" type="line"/>
      <point x="371" y="518" type="line"/>
      <point x="371" y="498" type="line"/>
      <point x="431" y="488" type="line"/>
      <point x="431" y="25" type="line"/>
      <point x="197" y="25" type="line"/>
      <point x="197" y="488" type="line"/>
      <point x="257" y="498" type="line"/>
      <point x="257" y="518" type="line"/>
      <point x="27" y="518" type="line"/>
      <point x="27" y="498" type="line"/>
      <point x="97" y="488" type="line"/>
      <point x="97" y="30" type="line"/>
      <point x="27" y="20" type="line"/>
      <point x="27" y="0" type="line"/>
      <point x="501" y="0" type="line"/>
    </contour>
  </outline>
</glyph>
<glyph name="che-cy" format="2">
  <advance width="609"/>
  <unicode hex="0447"/>
  <anchor x="305" y="212" name="center"/>
  <anchor x="295" y="518" name="top"/>
  <outline>
    <contour>
      <point x="312" y="0" type="line"/>
      <point x="582" y="0" type="line"/>
      <point x="582" y="20" type="line"/>
      <point x="512" y="30" type="line"/>
      <point x="512" y="488" type="line"/>
      <point x="582" y="498" type="line"/>
      <point x="582" y="518" type="line"/>
      <point x="352" y="518" type="line"/>
      <point x="352" y="498" type="line"/>
      <point x="412" y="488" type="line"/>
      <point x="412" y="251" type="line"/>
      <point x="390" y="238"/>
      <point x="344" y="218"/>
      <point x="275" y="218" type="curve" smooth="yes"/>
      <point x="201" y="218"/>
      <point x="176" y="261"/>
      <point x="176" y="332" type="curve" smooth="yes"/>
      <point x="176" y="488" type="line"/>
      <point x="236" y="498" type="line"/>
      <point x="236" y="518" type="line"/>
      <point x="6" y="518" type="line"/>
      <point x="6" y="498" type="line"/>
      <point x="76" y="488" type="line"/>
      <point x="76" y="332" type="line" smooth="yes"/>
      <point x="76" y="225"/>
      <point x="146" y="188"/>
      <point x="249" y="188" type="curve" smooth="yes"/>
      <point x="329" y="188"/>
      <point x="385" y="210"/>
      <point x="412" y="224" type="curve"/>
      <point x="412" y="30" type="line"/>
      <point x="312" y="20" type="line"/>
    </contour>
  </outline>
</glyph>
<glyph name="yeru-cy" format="2">
  <advance width="795"/>
  <unicode hex="044B"/>
  <anchor x="399" y="518" name="top"/>
  <outline>
    <contour>
      <point x="27" y="0" type="line"/>
      <point x="323" y="0" type="line" smooth="yes"/>
      <point x="441" y="0"/>
      <point x="516" y="50"/>
      <point x="516" y="150" type="curve" smooth="yes"/>
      <point x="516" y="250"/>
      <point x="441" y="300"/>
      <point x="323" y="300" type="curve" smooth="yes"/>
      <point x="197" y="300" type="line"/>
      <point x="197" y="488" type="line"/>
      <point x="267" y="498" type="line"/>
      <point x="267" y="518" type="line"/>
      <point x="27" y="518" type="line"/>
      <point x="27" y="498" type="line"/>
      <point x="97" y="488" type="line"/>
      <point x="97" y="30" type="line"/>
      <point x="27" y="20" type="line"/>
    </contour>
    <contour>
      <point x="197" y="25" type="line"/>
      <point x="197" y="275" type="line"/>
      <point x="293" y="275" type="line" smooth="yes"/>
      <point x="366" y="275"/>
      <point x="408" y="231"/>
      <point x="408" y="151" type="curve" smooth="yes"/>
      <point x="408" y="149" type="line" smooth="yes"/>
      <point x="408" y="69"/>
      <point x="366" y="25"/>
      <point x="293" y="25" type="curve" smooth="yes"/>
    </contour>
    <contour>
      <point x="528" y="0" type="line"/>
      <point x="768" y="0" type="line"/>
      <point x="768" y="20" type="line"/>
      <point x="698" y="30" type="line"/>
      <point x="698" y="488" type="line"/>
      <point x="768" y="498" type="line"/>
      <point x="768" y="518" type="line"/>
      <point x="528" y="518" type="line"/>
      <point x="528" y="498" type="line"/>
      <point x="598" y="488" type="line"/>
      <point x="598" y="30" type="line"/>
      <point x="528" y="20" type="line"/>
    </contour>
  </outline>
</glyph>
<glyph name="ereversed-cy" format="2">
  <advance width="551"/>
  <unicode hex="044D"/>
  <outline>
    <contour>
      <point x="249" y="-10" type="curve" smooth="yes"/>
      <point x="403" y="-10"/>
      <point x="508" y="99"/>
      <point x="508" y="259" type="curve" smooth="yes"/>
      <point x="508" y="415"/>
      <point x="404" y="527"/>
      <point x="249" y="527" type="curve" smooth="yes"/>
      <point x="194" y="527"/>
      <point x="150" y="510"/>
      <point x="121" y="496" type="curve"/>
      <point x="57" y="527" type="line"/>
      <point x="46" y="337" type="line"/>
      <point x="67" y="337" type="line"/>
      <point x="123" y="470" type="line"/>
      <point x="150" y="487"/>
      <point x="193" y="506"/>
      <point x="249" y="506" type="curve" smooth="yes"/>
      <point x="345" y="506"/>
      <point x="398" y="433"/>
      <point x="398" y="309" type="curve" smooth="yes"/>
      <point x="398" y="280" type="line"/>
      <point x="168" y="280" type="line"/>
      <point x="168" y="255" type="line"/>
      <point x="398" y="255" type="line"/>
      <point x="398" y="209" type="line" smooth="yes"/>
      <point x="398" y="90"/>
      <point x="348" y="12"/>
      <point x="249" y="12" type="curve" smooth="yes"/>
      <point x="182" y="12"/>
      <point x="139" y="43"/>
      <point x="139" y="88" type="curve" smooth="yes"/>
      <point x="139" y="103"/>
      <point x="145" y="117"/>
      <point x="156" y="130" type="curve"/>
      <point x="148" y="155"/>
      <point x="125" y="168"/>
      <point x="101" y="168" type="curve" smooth="yes"/>
      <point x="62" y="168"/>
      <point x="37" y="140"/>
      <point x="37" y="101" type="curve" smooth="yes"/>
      <point x="37" y="44"/>
      <point x="89" y="-10"/>
    </contour>
  </outline>
</glyph>
<glyph name="dje-cy" format="2">
  <advance width="621"/>
  <unicode hex="0452"/>
  <outline>
    <contour>
      <point x="253" y="-193" type="line"/>
      <point x="520" y="-62"/>
      <point x="552" y="98"/>
      <point x="552" y="304" type="curve" smooth="yes"/>
      <point x="552" y="473"/>
      <point x="485" y="507"/>
      <point x="385" y="507" type="curve" smooth="yes"/>
      <point x="305" y="507"/>
      <point x="237" y="458"/>
      <point x="190" y="390" type="curve"/>
      <point x="190" y="800" type="line"/>
      <point x="20" y="800" type="line"/>
      <point x="20" y="780" type="line"/>
      <point x="90" y="770" type="line"/>
      <point x="90" y="30" type="line"/>
      <point x="20" y="20" type="line"/>
      <point x="20" y="0" type="line"/>
      <point x="250" y="0" type="line"/>
      <point x="250" y="20" type="line"/>
      <point x="190" y="30" type="line"/>
      <point x="190" y="355" type="line"/>
      <point x="228" y="412"/>
      <point x="288" y="471"/>
      <point x="354" y="471" type="curve" smooth="yes"/>
      <point x="419" y="471"/>
      <point x="447" y="436"/>
      <point x="447" y="302" type="curve" smooth="yes"/>
      <point x="447" y="93"/>
      <point x="424" y="-78"/>
      <point x="237" y="-177" type="curve"/>
    </contour>
    <contour>
      <point x="0" y="636" type="line"/>
      <point x="375" y="636" type="line"/>
      <point x="375" y="661" type="line"/>
      <point x="0" y="661" type="line"/>
    </contour>
  </outline>
</glyph>
<glyph name="e-cy" format="2">
  <advance width="558"/>
  <unicode hex="0454"/>
  <outline>
    <contour>
      <point x="302" y="-9" type="curve" smooth="yes"/>
      <point x="357" y="-9"/>
      <point x="401" y="8"/>
      <point x="430" y="22" type="curve"/>
      <point x="494" y="-9" type="line"/>
      <point x="505" y="181" type="line"/>
      <point x="484" y="181" type="line"/>
      <point x="428" y="48" type="line"/>
      <point x="401" y="31"/>
      <point x="358" y="12"/>
      <point x="302" y="12" type="curve" smooth="yes"/>
      <point x="206" y="12"/>
      <point x="153" y="85"/>
      <point x="153" y="209" type="curve" smooth="yes"/>
      <point x="153" y="254" type="line"/>
      <point x="383" y="254" type="line"/>
      <point x="383" y="279" type="line"/>
      <point x="153" y="279" type="line"/>
      <point x="153" y="309" type="line" smooth="yes"/>
      <point x="153" y="428"/>
      <point x="203" y="506"/>
      <point x="302" y="506" type="curve" smooth="yes"/>
      <point x="369" y="506"/>
      <point x="412" y="475"/>
      <point x="412" y="430" type="curve" smooth="yes"/>
      <point x="412" y="415"/>
      <point x="406" y="401"/>
      <point x="395" y="388" type="curve"/>
      <point x="403" y="363"/>
      <point x="426" y="350"/>
      <point x="450" y="350" type="curve" smooth="yes"/>
      <point x="489" y="350"/>
      <point x="514" y="378"/>
      <point x="514" y="417" type="curve" smooth="yes"/>
      <point x="514" y="474"/>
      <point x="462" y="528"/>
      <point x="302" y="528" type="curve" smooth="yes"/>
      <point x="148" y="528"/>
      <point x="43" y="419"/>
      <point x="43" y="259" type="curve" smooth="yes"/>
      <point x="43" y="103"/>
      <point x="147" y="-9"/>
    </contour>
  </outline>
</glyph>
<glyph name="Yat-cy" format="2">
  <advance width="845"/>
  <unicode hex="0462"/>
  <outline>
    <contour>
      <point x="25" y="517" type="line"/>
      <point x="54" y="517" type="line"/>
      <point x="130" y="675" type="line"/>
      <point x="511" y="675" type="line"/>
      <point x="586" y="517" type="line"/>
      <point x="616" y="517" type="line"/>
      <point x="616" y="700" type="line"/>
      <point x="25" y="700" type="line"/>
    </contour>
    <component base="Softsign-cy" xOffset="135"/>
  </outline>
</glyph>
<glyph name="izhitsa-cy" format="2">
  <advance width="609"/>
  <unicode hex="0475"/>
  <outline>
    <contour>
      <point x="265" y="-20" type="line"/>
      <point x="293" y="-20" type="line"/>
      <point x="461" y="431" type="line" smooth="yes"/>
      <point x="472" y="462"/>
      <point x="485" y="470"/>
      <point x="503" y="470" type="curve" smooth="yes"/>
      <point x="519" y="470"/>
      <point x="529" y="459"/>
      <point x="529" y="447" type="curve" smooth="yes"/>
      <point x="529" y="434"/>
      <point x="524" y="422"/>
      <point x="512" y="412" type="curve"/>
      <point x="512" y="412"/>
      <point x="528" y="379"/>
      <point x="569" y="379" type="curve" smooth="yes"/>
      <point x="600" y="379"/>
      <point x="630" y="401"/>
      <point x="630" y="443" type="curve" smooth="yes"/>
      <point x="630" y="495"/>
      <point x="589" y="521"/>
      <point x="541" y="521" type="curve" smooth="yes"/>
      <point x="491" y="521"/>
      <point x="460" y="503"/>
      <point x="435" y="435" type="curve" smooth="yes"/>
      <point x="314" y="109" type="line"/>
      <point x="163" y="485" type="line"/>
      <point x="235" y="498" type="line"/>
      <point x="235" y="518" type="line"/>
      <point x="-14" y="518" type="line"/>
      <point x="-14" y="498" type="line"/>
      <point x="51" y="488" type="line"/>
    </contour>
  </outline>
</glyph>
<glyph name="Gheupturn-cy" format="2">
  <advance width="654"/>
  <unicode hex="0490"/>
  <outline>
    <contour>
      <point x="40" y="0" type="line"/>
      <point x="334" y="0" type="line"/>
      <point x="334" y="21" type="line"/>
      <point x="242" y="36" type="line"/>
      <point x="242" y="775" type="line"/>
      <point x="633" y="775" type="line"/>
      <point x="633" y="998" type="line"/>
      <point x="603" y="998" type="line"/>
      <point x="528" y="800" type="line"/>
      <point x="40" y="800" type="line"/>
      <point x="40" y="775" type="line"/>
      <point x="132" y="760" type="line"/>
      <point x="132" y="36" type="line"/>
      <point x="40" y="21" type="line"/>
    </contour>
  </outline>
</glyph>
<glyph name="gheupturn-cy" format="2">
  <advance width="486"/>
  <unicode hex="0491"/>
  <outline>
    <contour>
      <point x="27" y="0" type="line"/>
      <point x="287" y="0" type="line"/>
      <point x="287" y="20" type="line"/>
      <point x="197" y="30" type="line"/>
      <point x="197" y="493" type="line"/>
      <point x="464" y="493" type="line"/>
      <point x="479" y="683" type="line"/>
      <point x="451" y="683" type="line"/>
      <point x="363" y="518" type="line"/>
      <point x="27" y="518" type="line"/>
      <point x="27" y="498" type="line"/>
      <point x="97" y="488" type="line"/>
      <point x="97" y="30" type="line"/>
      <point x="27" y="20" type="line"/>
    </contour>
  </outline>
</glyph>
<glyph name="Ghemiddlehook-cy" format="2">
  <advance width="727"/>
  <unicode hex="0494"/>
  <anchor x="334" y="0" name="bottomright"/>
  <anchor x="334" y="800" name="top"/>
  <outline>
    <contour>
      <point x="366" y="-288" type="line"/>
      <point x="564" y="-140"/>
      <point x="680" y="28"/>
      <point x="680" y="219" type="curve" smooth="yes"/>
      <point x="680" y="370"/>
      <point x="610" y="456"/>
      <point x="415" y="456" type="curve" smooth="yes"/>
      <point x="310" y="456"/>
      <point x="240" y="407"/>
      <point x="240" y="407" type="curve"/>
      <point x="240" y="377" type="line"/>
      <point x="240" y="377"/>
      <point x="304" y="430"/>
      <point x="415" y="430" type="curve" smooth="yes"/>
      <point x="519" y="430"/>
      <point x="567" y="349"/>
      <point x="567" y="219" type="curve" smooth="yes"/>
      <point x="567" y="62"/>
      <point x="525" y="-131"/>
      <point x="352" y="-274" type="curve"/>
    </contour>
    <component base="Ge-cy"/>
  </outline>
</glyph>
<glyph name="zhedescender-cy" format="2">
  <advance width="868"/>
  <unicode hex="0497"/>
  <outline>
    <contour>
      <point x="91" y="-12" type="curve" smooth="yes"/>
      <point x="150" y="-12"/>
      <point x="174" y="12"/>
      <point x="185" y="69" type="curve" smooth="yes"/>
      <point x="205" y="177" type="line"/>
      <point x="216" y="243"/>
      <point x="246" y="262"/>
      <point x="292" y="263" type="curve"/>
      <point x="375" y="263" type="line"/>
      <point x="375" y="31" type="line"/>
      <point x="303" y="20" type="line"/>
      <point x="303" y="0" type="line"/>
      <point x="551" y="0" type="line"/>
      <point x="551" y="20" type="line"/>
      <point x="479" y="31" type="line"/>
      <point x="479" y="263" type="line"/>
      <point x="557" y="263" type="line" smooth="yes"/>
      <point x="606" y="263"/>
      <point x="636" y="246"/>
      <point x="649" y="177" type="curve" smooth="yes"/>
      <point x="668" y="72" type="line" smooth="yes"/>
      <point x="677" y="20"/>
      <point x="704" y="0"/>
      <point x="763" y="0" type="curve" smooth="yes"/>
      <point x="783" y="0" type="line"/>
      <point x="819" y="25" type="line"/>
      <point x="794" y="25"/>
      <point x="782" y="37"/>
      <point x="772" y="85" type="curve" smooth="yes"/>
      <point x="755" y="173" type="line"/>
      <point x="743" y="241"/>
      <point x="709" y="276"/>
      <point x="618" y="284" type="curve"/>
      <point x="634" y="299"/>
      <point x="644" y="322"/>
      <point x="652" y="350" type="curve" smooth="yes"/>
      <point x="671" y="422" type="line" smooth="yes"/>
      <point x="676" y="440"/>
      <point x="686" y="450"/>
      <point x="703" y="450" type="curve" smooth="yes"/>
      <point x="724" y="450"/>
      <point x="738" y="429"/>
      <point x="728" y="402" type="curve"/>
      <point x="784" y="383"/>
      <point x="818" y="419"/>
      <point x="818" y="460" type="curve" smooth="yes"/>
      <point x="818" y="495"/>
      <point x="793" y="527"/>
      <point x="742" y="527" type="curve" smooth="yes"/>
      <point x="680" y="527"/>
      <point x="660" y="487"/>
      <point x="646" y="429" type="curve" smooth="yes"/>
      <point x="628" y="357" type="line" smooth="yes"/>
      <point x="615" y="306"/>
      <point x="595" y="287"/>
      <point x="562" y="286" type="curve"/>
      <point x="479" y="286" type="line"/>
      <point x="479" y="487" type="line"/>
      <point x="551" y="497" type="line"/>
      <point x="551" y="518" type="line"/>
      <point x="303" y="518" type="line"/>
      <point x="303" y="497" type="line"/>
      <point x="375" y="487" type="line"/>
      <point x="375" y="286" type="line"/>
      <point x="291" y="286" type="line" smooth="yes"/>
      <point x="258" y="286"/>
      <point x="238" y="306"/>
      <point x="226" y="357" type="curve" smooth="yes"/>
      <point x="208" y="429" type="line" smooth="yes"/>
      <point x="194" y="487"/>
      <point x="174" y="527"/>
      <point x="112" y="527" type="curve" smooth="yes"/>
      <point x="61" y="527"/>
      <point x="36" y="495"/>
      <point x="36" y="460" type="curve" smooth="yes"/>
      <point x="36" y="419"/>
      <point x="70" y="383"/>
      <point x="126" y="402" type="curve"/>
      <point x="116" y="429"/>
      <point x="130" y="450"/>
      <point x="151" y="450" type="curve" smooth="yes"/>
      <point x="168" y="450"/>
      <point x="178" y="440"/>
      <point x="183" y="422" type="curve" smooth="yes"/>
      <point x="202" y="350" type="line" smooth="yes"/>
      <point x="209" y="322"/>
      <point x="219" y="299"/>
      <point x="235" y="284" type="curve"/>
      <point x="145" y="276"/>
      <point x="111" y="241"/>
      <point x="99" y="173" type="curve"/>
      <point x="82" y="85" type="line" smooth="yes"/>
      <point x="74" y="41"/>
      <point x="65" y="30"/>
      <point x="45" y="30" type="curve" smooth="yes"/>
      <point x="35" y="30"/>
      <point x="23" y="35"/>
      <point x="10" y="48" type="curve"/>
      <point x="-5" y="33" type="line"/>
      <point x="21" y="3"/>
      <point x="59" y="-12"/>
    </contour>
    <contour>
      <point x="871" y="-165" type="line"/>
      <point x="899" y="-165" type="line"/>
      <point x="884" y="25" type="line"/>
      <point x="819" y="25" type="line"/>
      <point x="783" y="0" type="line"/>
    </contour>
  </outline>
</glyph>
<glyph name="zedescender-cy" format="2">
  <advance width="532"/>
  <unicode hex="0499"/>
  <anchor x="252" y="518" name="top"/>
  <outline>
    <contour>
      <point x="235" y="-164" type="line"/>
      <point x="258" y="-164" type="line"/>
      <point x="293" y="2" type="line"/>
      <point x="200" y="2" type="line"/>
    </contour>
    <component base="ze-cy"/>
  </outline>
</glyph>
<glyph name="Kadescender-cy" format="2">
  <advance width="739"/>
  <unicode hex="049A"/>
  <outline>
    <contour>
      <point x="761" y="-220" type="line"/>
      <point x="791" y="-220" type="line"/>
      <point x="776" y="25" type="line"/>
      <point x="697" y="25" type="line" smooth="yes"/>
      <point x="655" y="25"/>
      <point x="634" y="44"/>
      <point x="618" y="121" type="curve" smooth="yes"/>
      <point x="593" y="282" type="line" smooth="yes"/>
      <point x="580" y="367"/>
      <point x="525" y="420"/>
      <point x="412" y="433" type="curve"/>
      <point x="452" y="452"/>
      <point x="484" y="496"/>
      <point x="500" y="559" type="curve" smooth="yes"/>
      <point x="531" y="685" type="line" smooth="yes"/>
      <point x="536" y="706"/>
      <point x="549" y="719"/>
      <point x="572" y="719" type="curve" smooth="yes"/>
      <point x="599" y="719"/>
      <point x="614" y="698"/>
      <point x="622" y="676" type="curve"/>
      <point x="642" y="676" type="line" smooth="yes"/>
      <point x="679" y="676"/>
      <point x="702" y="703"/>
      <point x="702" y="741" type="curve" smooth="yes"/>
      <point x="702" y="783"/>
      <point x="663" y="810"/>
      <point x="620" y="810" type="curve" smooth="yes"/>
      <point x="568" y="810"/>
      <point x="528" y="774"/>
      <point x="509" y="698" type="curve" smooth="yes"/>
      <point x="478" y="572" type="line" smooth="yes"/>
      <point x="457" y="490"/>
      <point x="409" y="439"/>
      <point x="349" y="437" type="curve" smooth="yes"/>
      <point x="347" y="437" type="line"/>
      <point x="242" y="437" type="line"/>
      <point x="242" y="764" type="line"/>
      <point x="334" y="778" type="line"/>
      <point x="334" y="800" type="line"/>
      <point x="40" y="800" type="line"/>
      <point x="40" y="778" type="line"/>
      <point x="132" y="764" type="line"/>
      <point x="132" y="36" type="line"/>
      <point x="40" y="21" type="line"/>
      <point x="40" y="0" type="line"/>
      <point x="334" y="0" type="line"/>
      <point x="334" y="21" type="line"/>
      <point x="242" y="36" type="line"/>
      <point x="242" y="413" type="line"/>
      <point x="326" y="413" type="line" smooth="yes"/>
      <point x="426" y="413"/>
      <point x="462" y="370"/>
      <point x="475" y="278" type="curve" smooth="yes"/>
      <point x="499" y="109" type="line" smooth="yes"/>
      <point x="512" y="29"/>
      <point x="546" y="0"/>
      <point x="621" y="0" type="curve" smooth="yes"/>
      <point x="657" y="0" type="line"/>
    </contour>
  </outline>
</glyph>
<glyph name="kadescender-cy" format="2">
  <advance width="603"/>
  <unicode hex="049B"/>
  <outline>
    <contour>
      <point x="27" y="0" type="line"/>
      <point x="275" y="0" type="line"/>
      <point x="275" y="20" type="line"/>
      <point x="203" y="31" type="line"/>
      <point x="203" y="263" type="line"/>
      <point x="291" y="263" type="line"/>
      <point x="292" y="263" type="line"/>
      <point x="296" y="263" type="line" smooth="yes"/>
      <point x="342" y="262"/>
      <point x="371" y="243"/>
      <point x="383" y="177" type="curve" smooth="yes"/>
      <point x="403" y="71" type="line" smooth="yes"/>
      <point x="413" y="19"/>
      <point x="439" y="0"/>
      <point x="498" y="0" type="curve" smooth="yes"/>
      <point x="518" y="0" type="line"/>
      <point x="554" y="25" type="line"/>
      <point x="529" y="25"/>
      <point x="516" y="39"/>
      <point x="506" y="87" type="curve" smooth="yes"/>
      <point x="489" y="173" type="line" smooth="yes"/>
      <point x="476" y="241"/>
      <point x="442" y="276"/>
      <point x="352" y="284" type="curve"/>
      <point x="368" y="299"/>
      <point x="378" y="322"/>
      <point x="386" y="350" type="curve" smooth="yes"/>
      <point x="405" y="422" type="line" smooth="yes"/>
      <point x="410" y="440"/>
      <point x="420" y="450"/>
      <point x="437" y="450" type="curve" smooth="yes"/>
      <point x="458" y="450"/>
      <point x="472" y="429"/>
      <point x="462" y="402" type="curve"/>
      <point x="518" y="383"/>
      <point x="552" y="419"/>
      <point x="552" y="460" type="curve" smooth="yes"/>
      <point x="552" y="495"/>
      <point x="527" y="527"/>
      <point x="476" y="527" type="curve" smooth="yes"/>
      <point x="414" y="527"/>
      <point x="394" y="487"/>
      <point x="380" y="429" type="curve" smooth="yes"/>
      <point x="362" y="357" type="line" smooth="yes"/>
      <point x="349" y="306"/>
      <point x="330" y="288"/>
      <point x="297" y="286" type="curve"/>
      <point x="203" y="286" type="line"/>
      <point x="203" y="487" type="line"/>
      <point x="275" y="497" type="line"/>
      <point x="275" y="518" type="line"/>
      <point x="27" y="518" type="line"/>
      <point x="27" y="497" type="line"/>
      <point x="99" y="487" type="line"/>
      <point x="99" y="31" type="line"/>
      <point x="27" y="20" type="line"/>
    </contour>
    <contour>
      <point x="606" y="-165" type="line"/>
      <point x="634" y="-165" type="line"/>
      <point x="619" y="25" type="line"/>
      <point x="554" y="25" type="line"/>
      <point x="518" y="0" type="line"/>
    </contour>
  </outline>
</glyph>
<glyph name="Kabashkir-cy" format="2">
  <advance width="883"/>
  <unicode hex="04A0"/>
  <anchor x="503" y="800" name="top"/>
  <outline>
    <contour>
      <point x="766" y="-10" type="curve" smooth="yes"/>
      <point x="815" y="-10"/>
      <point x="857" y="10"/>
      <point x="893" y="51" type="curve"/>
      <point x="876" y="69" type="line"/>
      <point x="851" y="43"/>
      <point x="827" y="32"/>
      <point x="804" y="36" type="curve" smooth="yes"/>
      <point x="781" y="41"/>
      <point x="772" y="64"/>
      <point x="761" y="131" type="curve" smooth="yes"/>
      <point x="738" y="282" type="line" smooth="yes"/>
      <point x="725" y="367"/>
      <point x="670" y="420"/>
      <point x="557" y="433" type="curve"/>
      <point x="597" y="452"/>
      <point x="629" y="496"/>
      <point x="645" y="559" type="curve" smooth="yes"/>
      <point x="676" y="685" type="line" smooth="yes"/>
      <point x="681" y="706"/>
      <point x="694" y="719"/>
      <point x="717" y="719" type="curve" smooth="yes"/>
      <point x="744" y="719"/>
      <point x="759" y="698"/>
      <point x="767" y="676" type="curve"/>
      <point x="787" y="676" type="line" smooth="yes"/>
      <point x="824" y="676"/>
      <point x="847" y="703"/>
      <point x="847" y="741" type="curve" smooth="yes"/>
      <point x="847" y="783"/>
      <point x="808" y="810"/>
      <point x="765" y="810" type="curve" smooth="yes"/>
      <point x="713" y="810"/>
      <point x="673" y="774"/>
      <point x="654" y="698" type="curve" smooth="yes"/>
      <point x="623" y="572" type="line" smooth="yes"/>
      <point x="602" y="490"/>
      <point x="554" y="439"/>
      <point x="494" y="437" type="curve" smooth="yes"/>
      <point x="492" y="437" type="line"/>
      <point x="387" y="437" type="line"/>
      <point x="387" y="673" type="line"/>
      <point x="277" y="673" type="line"/>
      <point x="277" y="36" type="line"/>
      <point x="185" y="21" type="line"/>
      <point x="185" y="0" type="line"/>
      <point x="479" y="0" type="line"/>
      <point x="479" y="21" type="line"/>
      <point x="387" y="36" type="line"/>
      <point x="387" y="413" type="line"/>
      <point x="471" y="413" type="line" smooth="yes"/>
      <point x="571" y="413"/>
      <point x="607" y="370"/>
      <point x="620" y="278" type="curve" smooth="yes"/>
      <point x="644" y="109" type="line" smooth="yes"/>
      <point x="657" y="22"/>
      <point x="691" y="-10"/>
    </contour>
    <contour>
      <point x="15" y="577" type="line"/>
      <point x="44" y="577" type="line"/>
      <point x="120" y="775" type="line"/>
      <point x="277" y="775" type="line"/>
      <point x="277" y="673" type="line"/>
      <point x="387" y="673" type="line"/>
      <point x="387" y="764" type="line"/>
      <point x="479" y="779" type="line"/>
      <point x="479" y="800" type="line"/>
      <point x="15" y="800" type="line"/>
    </contour>
  </outline>
</glyph>
<glyph name="endescender-cy" format="2">
  <advance width="637"/>
  <unicode hex="04A3"/>
  <outline>
    <contour>
      <point x="602" y="-165" type="line"/>
      <point x="630" y="-165" type="line"/>
      <point x="615" y="25" type="line"/>
      <point x="544" y="25" type="line"/>
      <point x="544" y="488" type="line"/>
      <point x="614" y="498" type="line"/>
      <point x="614" y="518" type="line"/>
      <point x="384" y="518" type="line"/>
      <point x="384" y="498" type="line"/>
      <point x="444" y="488" type="line"/>
      <point x="444" y="275" type="line"/>
      <point x="197" y="275" type="line"/>
      <point x="197" y="488" type="line"/>
      <point x="257" y="498" type="line"/>
      <point x="257" y="518" type="line"/>
      <point x="27" y="518" type="line"/>
      <point x="27" y="498" type="line"/>
      <point x="97" y="488" type="line"/>
      <point x="97" y="30" type="line"/>
      <point x="27" y="20" type="line"/>
      <point x="27" y="0" type="line"/>
      <point x="257" y="0" type="line"/>
      <point x="257" y="20" type="line"/>
      <point x="197" y="30" type="line"/>
      <point x="197" y="250" type="line"/>
      <point x="444" y="250" type="line"/>
      <point x="444" y="0" type="line"/>
      <point x="514" y="0" type="line"/>
    </contour>
    <contour>
      <point x="384" y="0" type="line"/>
      <point x="444" y="0" type="line"/>
      <point x="505" y="40" type="line"/>
      <point x="384" y="20" type="line"/>
    </contour>
  </outline>
</glyph>
<glyph name="Enghe-cy" format="2">
  <advance width="1104"/>
  <unicode hex="04A4"/>
  <outline>
    <contour>
      <point x="40" y="0" type="line"/>
      <point x="334" y="0" type="line"/>
      <point x="334" y="21" type="line"/>
      <point x="242" y="36" type="line"/>
      <point x="242" y="411" type="line"/>
      <point x="622" y="411" type="line"/>
      <point x="622" y="436" type="line"/>
      <point x="242" y="436" type="line"/>
      <point x="242" y="764" type="line"/>
      <point x="334" y="778" type="line"/>
      <point x="334" y="800" type="line"/>
      <point x="40" y="800" type="line"/>
      <point x="40" y="778" type="line"/>
      <point x="132" y="764" type="line"/>
      <point x="132" y="36" type="line"/>
      <point x="40" y="21" type="line"/>
    </contour>
    <contour>
      <point x="530" y="0" type="line"/>
      <point x="824" y="0" type="line"/>
      <point x="824" y="21" type="line"/>
      <point x="732" y="36" type="line"/>
      <point x="732" y="775" type="line"/>
      <point x="978" y="775" type="line"/>
      <point x="1053" y="577" type="line"/>
      <point x="1083" y="577" type="line"/>
      <point x="1083" y="800" type="line"/>
      <point x="530" y="800" type="line"/>
      <point x="530" y="775" type="line"/>
      <point x="622" y="760" type="line"/>
      <point x="622" y="36" type="line"/>
      <point x="530" y="21" type="line"/>
    </contour>
  </outline>
</glyph>
<glyph name="chedescender-cy" format="2">
  <advance width="605"/>
  <unicode hex="04B7"/>
  <outline>
    <contour>
      <point x="570" y="-165" type="line"/>
      <point x="598" y="-165" type="line"/>
      <point x="583" y="25" type="line"/>
      <point x="512" y="25" type="line"/>
      <point x="512" y="488" type="line"/>
      <point x="582" y="498" type="line"/>
      <point x="582" y="518" type="line"/>
      <point x="352" y="518" type="line"/>
      <point x="352" y="498" type="line"/>
      <point x="412" y="488" type="line"/>
      <point x="412" y="251" type="line"/>
      <point x="390" y="238"/>
      <point x="344" y="218"/>
      <point x="275" y="218" type="curve" smooth="yes"/>
      <point x="201" y="218"/>
      <point x="176" y="261"/>
      <point x="176" y="332" type="curve" smooth="yes"/>
      <point x="176" y="488" type="line"/>
      <point x="236" y="498" type="line"/>
      <point x="236" y="518" type="line"/>
      <point x="6" y="518" type="line"/>
      <point x="6" y="498" type="line"/>
      <point x="76" y="488" type="line"/>
      <point x="76" y="332" type="line" smooth="yes"/>
      <point x="76" y="225"/>
      <point x="146" y="188"/>
      <point x="249" y="188" type="curve" smooth="yes"/>
      <point x="329" y="188"/>
      <point x="385" y="210"/>
      <point x="412" y="224" type="curve"/>
      <point x="412" y="0" type="line"/>
      <point x="482" y="0" type="line"/>
    </contour>
    <contour>
      <point x="312" y="0" type="line"/>
      <point x="445" y="0" type="line"/>
      <point x="445" y="33" type="line"/>
      <point x="312" y="20" type="line"/>
    </contour>
  </outline>
</glyph>
<glyph name="Schwa-cy" format="2">
  <advance width="795"/>
  <unicode hex="04D8"/>
  <outline>
    <contour>
      <point x="379" y="-20" type="curve" smooth="yes"/>
      <point x="600" y="-20"/>
      <point x="741" y="151"/>
      <point x="741" y="400" type="curve" smooth="yes"/>
      <point x="741" y="650"/>
      <point x="591" y="820"/>
      <point x="364" y="820" type="curve" smooth="yes"/>
      <point x="299" y="820"/>
      <point x="230" y="798"/>
      <point x="176" y="763" type="curve"/>
      <point x="109" y="820" type="line"/>
      <point x="88" y="820" type="line"/>
      <point x="88" y="572" type="line"/>
      <point x="109" y="572" type="line"/>
      <point x="171" y="727" type="line"/>
      <point x="222" y="769"/>
      <point x="296" y="797"/>
      <point x="364" y="797" type="curve" smooth="yes"/>
      <point x="509" y="797"/>
      <point x="611" y="686"/>
      <point x="611" y="492" type="curve" smooth="yes"/>
      <point x="611" y="309" type="line" smooth="yes"/>
      <point x="611" y="115"/>
      <point x="518" y="3"/>
      <point x="379" y="3" type="curve" smooth="yes"/>
      <point x="258" y="3"/>
      <point x="177" y="115"/>
      <point x="177" y="309" type="curve" smooth="yes"/>
      <point x="177" y="400" type="line"/>
      <point x="47" y="400" type="line"/>
      <point x="47" y="151"/>
      <point x="177" y="-20"/>
    </contour>
    <contour>
      <point x="84" y="375" type="line"/>
      <point x="664" y="375" type="line"/>
      <point x="664" y="400" type="line"/>
      <point x="84" y="400" type="line"/>
    </contour>
  </outline>
</glyph>
<glyph name="Gedescender-cy" format="2">
  <advance width="654"/>
  <unicode hex="04F6"/>
  <outline>
    <contour>
      <point x="313" y="-220" type="line"/>
      <point x="343" y="-220" type="line"/>
      <point x="328" y="25" type="line"/>
      <point x="242" y="25" type="line"/>
      <point x="242" y="775" type="line"/>
      <point x="528" y="775" type="line"/>
      <point x="603" y="577" type="line"/>
      <point x="633" y="577" type="line"/>
      <point x="633" y="800" type="line"/>
      <point x="40" y="800" type="line"/>
      <point x="40" y="775" type="line"/>
      <point x="132" y="760" type="line"/>
      <point x="132" y="36" type="line"/>
      <point x="40" y="21" type="line"/>
      <point x="40" y="0" type="line"/>
      <point x="209" y="0" type="line"/>
    </contour>
  </outline>
</glyph>
<glyph name="gedescender-cy" format="2">
  <advance width="500"/>
  <unicode hex="04F7"/>
  <outline>
    <contour>
      <point x="255" y="-165" type="line"/>
      <point x="283" y="-165" type="line"/>
      <point x="268" y="25" type="line"/>
      <point x="197" y="25" type="line"/>
      <point x="197" y="493" type="line"/>
      <point x="363" y="493" type="line"/>
      <point x="451" y="328" type="line"/>
      <point x="479" y="328" type="line"/>
      <point x="464" y="518" type="line"/>
      <point x="27" y="518" type="line"/>
      <point x="27" y="498" type="line"/>
      <point x="97" y="488" type="line"/>
      <point x="97" y="30" type="line"/>
      <point x="27" y="20" type="line"/>
      <point x="27" y="0" type="line"/>
      <point x="167" y="0" type="line"/>
    </contour>
  </outline>
</glyph>
<glyph name="pedescender-cy" format="2">
  <advance width="630"/>
  <unicode hex="0525"/>
  <outline>
    <contour>
      <point x="595" y="-165" type="line"/>
      <point x="623" y="-165" type="line"/>
      <point x="608" y="25" type="line"/>
      <point x="537" y="25" type="line"/>
      <point x="537" y="488" type="line"/>
      <point x="607" y="498" type="line"/>
      <point x="607" y="518" type="line"/>
      <point x="27" y="518" type="line"/>
      <point x="27" y="498" type="line"/>
      <point x="97" y="488" type="line"/>
      <point x="97" y="30" type="line"/>
      <point x="27" y="20" type="line"/>
      <point x="27" y="0" type="line"/>
      <point x="257" y="0" type="line"/>
      <point x="257" y="20" type="line"/>
      <point x="197" y="30" type="line"/>
      <point x="197" y="493" type="line"/>
      <point x="437" y="493" type="line"/>
      <point x="437" y="30" type="line"/>
      <point x="377" y="20" type="line"/>
      <point x="377" y="0" type="line"/>
      <point x="507" y="0" type="line"/>
    </contour>
  </outline>
</glyph>
<glyph name="quotedblright" format="2">
  <advance width="396"/>
  <unicode hex="201D"/>
  <outline>
    <contour>
      <point x="236" y="539" type="line"/>
      <point x="322" y="581"/>
      <point x="360" y="644"/>
      <point x="360" y="717" type="curve" smooth="yes"/>
      <point x="360" y="771"/>
      <point x="332" y="809"/>
      <point x="284" y="809" type="curve" smooth="yes"/>
      <point x="251" y="809"/>
      <point x="224" y="784"/>
      <point x="224" y="751" type="curve" smooth="yes"/>
      <point x="224" y="718"/>
      <point x="251" y="691"/>
      <point x="284" y="691" type="curve" smooth="yes"/>
      <point x="297" y="691"/>
      <point x="304" y="683"/>
      <point x="304" y="671" type="curve" smooth="yes"/>
      <point x="304" y="623"/>
      <point x="259" y="576"/>
      <point x="225" y="555" type="curve"/>
    </contour>
    <contour>
      <point x="63" y="539" type="line"/>
      <point x="149" y="581"/>
      <point x="187" y="644"/>
      <point x="187" y="717" type="curve" smooth="yes"/>
      <point x="187" y="771"/>
      <point x="159" y="809"/>
      <point x="111" y="809" type="curve" smooth="yes"/>
      <point x="78" y="809"/>
      <point x="51" y="784"/>
      <point x="51" y="751" type="curve" smooth="yes"/>
      <point x="51" y="718"/>
      <point x="78" y="691"/>
      <point x="111" y="691" type="curve" smooth="yes"/>
      <point x="124" y="691"/>
      <point x="131" y="683"/>
      <point x="131" y="671" type="curve" smooth="yes"/>
      <point x="131" y="623"/>
      <point x="86" y="576"/>
      <point x="52" y="555" type="curve"/>
    </contour>
  </outline>
</glyph>
<glyph name="fraction" format="2">
  <advance width="405"/>
  <unicode hex="2044"/>
  <outline>
    <contour>
      <point x="-23" y="0" type="line"/>
      <point x="29" y="0" type="line"/>
      <point x="428" y="800" type="line"/>
      <point x="377" y="800" type="line"/>
    </contour>
  </outline>
</glyph>
<glyph name="foursuperior" format="2">
  <advance width="362"/>
  <unicode hex="2074"/>
  <outline>
    <contour>
      <point x="143" y="375" type="line"/>
      <point x="311" y="375" type="line"/>
      <point x="311" y="396" type="line"/>
      <point x="263" y="404" type="line"/>
      <point x="263" y="478" type="line"/>
      <point x="311" y="478" type="line"/>
      <point x="311" y="512" type="line"/>
      <point x="263" y="512" type="line"/>
      <point x="263" y="800" type="line"/>
      <point x="238" y="800" type="line"/>
      <point x="14" y="489" type="line"/>
      <point x="14" y="478" type="line"/>
      <point x="192" y="478" type="line"/>
      <point x="192" y="404" type="line"/>
      <point x="143" y="396" type="line"/>
    </contour>
    <contour>
      <point x="61" y="512" type="line"/>
      <point x="192" y="693" type="line"/>
      <point x="192" y="512" type="line"/>
    </contour>
  </outline>
</glyph>
<glyph name="euro" format="2">
  <advance width="743"/>
  <unicode hex="20AC"/>
  <outline>
    <contour>
      <point x="-5" y="435" type="line"/>
      <point x="508" y="435" type="line"/>
      <point x="521" y="460" type="line"/>
      <point x="-5" y="460" type="line"/>
    </contour>
    <contour>
      <point x="-5" y="335" type="line"/>
      <point x="469" y="335" type="line"/>
      <point x="481" y="360" type="line"/>
      <point x="-5" y="360" type="line"/>
    </contour>
    <component base="C"/>
  </outline>
</glyph>
<glyph name="tugrik" format="2">
  <advance width="700"/>
  <unicode hex="20AE"/>
  <outline>
    <contour>
      <point x="121" y="312" type="line"/>
      <point x="579" y="511" type="line"/>
      <point x="579" y="538" type="line"/>
      <point x="121" y="340" type="line"/>
    </contour>
    <contour>
      <point x="121" y="203" type="line"/>
      <point x="579" y="402" type="line"/>
      <point x="579" y="429" type="line"/>
      <point x="121" y="230" type="line"/>
    </contour>
    <component base="T"/>
  </outline>
</glyph>
<glyph name="ruble" format="2">
  <advance width="680"/>
  <unicode hex="20BD"/>
  <outline>
    <contour>
      <point x="40" y="0" type="line"/>
      <point x="334" y="0" type="line"/>
      <point x="334" y="21" type="line"/>
      <point x="242" y="36" type="line"/>
      <point x="242" y="310" type="line"/>
      <point x="354" y="310" type="line" smooth="yes"/>
      <point x="555" y="310"/>
      <point x="646" y="399"/>
      <point x="646" y="555" type="curve" smooth="yes"/>
      <point x="646" y="710"/>
      <point x="555" y="800"/>
      <point x="354" y="800" type="curve" smooth="yes"/>
      <point x="242" y="800" type="line"/>
      <point x="40" y="800" type="line"/>
      <point x="40" y="778" type="line"/>
      <point x="132" y="764" type="line"/>
      <point x="132" y="36" type="line"/>
      <point x="40" y="21" type="line"/>
    </contour>
    <contour>
      <point x="45" y="310" type="line"/>
      <point x="211" y="310" type="line"/>
      <point x="211" y="335" type="line"/>
      <point x="45" y="335" type="line"/>
    </contour>
    <contour>
      <point x="45" y="210" type="line"/>
      <point x="481" y="210" type="line"/>
      <point x="481" y="235" type="line"/>
      <point x="45" y="235" type="line"/>
    </contour>
    <contour>
      <point x="242" y="335" type="line"/>
      <point x="242" y="775" type="line"/>
      <point x="340" y="775" type="line" smooth="yes"/>
      <point x="468" y="775"/>
      <point x="525" y="704"/>
      <point x="525" y="575" type="curve" smooth="yes"/>
      <point x="525" y="535" type="line" smooth="yes"/>
      <point x="525" y="407"/>
      <point x="468" y="335"/>
      <point x="340" y="335" type="curve" smooth="yes"/>
    </contour>
  </outline>
</glyph>
<glyph name="brevecomb-cy.case" format="2">
  <anchor x="289" y="800" name="_top"/>
  <outline>
    <contour>
      <point x="290" y="832" type="curve" smooth="yes"/>
      <point x="386" y="832"/>
      <point x="474" y="865"/>
      <point x="474" y="944" type="curve" smooth="yes"/>
      <point x="474" y="979"/>
      <point x="447" y="1008"/>
      <point x="412" y="1008" type="curve" smooth="yes"/>
      <point x="377" y="1008"/>
      <point x="346" y="979"/>
      <point x="346" y="944" type="curve"/>
      <point x="368" y="933"/>
      <point x="379" y="918"/>
      <point x="379" y="903" type="curve" smooth="yes"/>
      <point x="379" y="878"/>
      <point x="348" y="854"/>
      <point x="290" y="854" type="curve" smooth="yes"/>
      <point x="230" y="854"/>
      <point x="200" y="877"/>
      <point x="200" y="902" type="curve" smooth="yes"/>
      <point x="200" y="917"/>
      <point x="212" y="933"/>
      <point x="234" y="944" type="curve"/>
      <point x="234" y="979"/>
      <point x="202" y="1008"/>
      <point x="168" y="1008" type="curve" smooth="yes"/>
      <point x="132" y="1008"/>
      <point x="105" y="979"/>
      <point x="105" y="944" type="curve" smooth="yes"/>
      <point x="105" y="865"/>
      <point x="193" y="832"/>
    </contour>
  </outline>
</glyph>
<glyph name="circumflexcomb.case" format="2">
  <anchor x="193" y="800" name="_top"/>
  <anchor x="193" y="964" name="top"/>
  <outline>
    <contour>
      <point x="45" y="842" type="line"/>
      <point x="193" y="911" type="line"/>
      <point x="341" y="842" type="line"/>
      <point x="350" y="857" type="line"/>
      <point x="223" y="979" type="line"/>
      <point x="164" y="979" type="line"/>
      <point x="36" y="857" type="line"/>
    </contour>
  </outline>
</glyph>
<glyph name="descender-cy.case" format="2">
  <advance width="351"/>
  <anchor x="143" y="0" name="_bottom"/>
  <outline>
    <contour>
      <point x="163" y="-220" type="line"/>
      <point x="193" y="-220" type="line"/>
      <point x="178" y="25" type="line"/>
      <point x="0" y="25" type="line"/>
      <point x="0" y="0" type="line"/>
      <point x="59" y="0" type="line"/>
    </contour>
  </outline>
</glyph>
<glyph name="descender-cy" format="2">
  <advance width="178"/>
  <anchor x="51" y="0" name="_bottomright"/>
  <outline>
    <contour>
      <point x="139" y="-165" type="line"/>
      <point x="167" y="-165" type="line"/>
      <point x="152" y="25" type="line"/>
      <point x="11" y="25" type="line"/>
      <point x="11" y="0" type="line"/>
      <point x="51" y="0" type="line"/>
    </contour>
  </outline>
</glyph>
<glyph name="foundryicon" format="2">
  <advance width="1230"/>
  <outline>
    <contour>
      <point x="979" y="5" type="curve" smooth="yes"/>
      <point x="1002" y="5"/>
      <point x="1018" y="27"/>
      <point x="1023" y="48" type="curve"/>
      <point x="1040" y="21"/>
      <point x="1065" y="5"/>
      <point x="1100" y="5" type="curve" smooth="yes"/>
      <point x="1169" y="5"/>
      <point x="1186" y="83"/>
      <point x="1186" y="137" type="curve" smooth="yes"/>
      <point x="1186" y="143"/>
      <point x="1186" y="147"/>
      <point x="1186" y="152" type="curve"/>
      <point x="1183" y="152"/>
      <point x="1181" y="153"/>
      <point x="1176" y="151" type="curve"/>
      <point x="1161" y="91"/>
      <point x="1139" y="54"/>
      <point x="1111" y="33" type="curve"/>
      <point x="1091" y="62"/>
      <point x="1081" y="101"/>
      <point x="1081" y="149" type="curve"/>
      <point x="1133" y="174"/>
      <point x="1161" y="271"/>
      <point x="1161" y="351" type="curve" smooth="yes"/>
      <point x="1161" y="436"/>
      <point x="1139" y="471"/>
      <point x="1057" y="485" type="curve"/>
      <point x="1019" y="417"/>
      <point x="999" y="313"/>
      <point x="999" y="214" type="curve" smooth="yes"/>
      <point x="999" y="168"/>
      <point x="1003" y="123"/>
      <point x="1012" y="82" type="curve" smooth="yes"/>
      <point x="1014" y="72" type="line"/>
      <point x="1008" y="61"/>
      <point x="993" y="29"/>
      <point x="979" y="33" type="curve"/>
      <point x="969" y="66"/>
      <point x="966" y="109"/>
      <point x="966" y="153" type="curve" smooth="yes"/>
      <point x="966" y="202"/>
      <point x="970" y="251"/>
      <point x="976" y="290" type="curve"/>
      <point x="965" y="300"/>
      <point x="930" y="315"/>
      <point x="915" y="311" type="curve"/>
      <point x="908" y="307"/>
      <point x="901" y="268"/>
      <point x="898" y="261" type="curve"/>
      <point x="884" y="267"/>
      <point x="865" y="271"/>
      <point x="849" y="271" type="curve"/>
      <point x="817" y="236"/>
      <point x="806" y="189"/>
      <point x="803" y="139" type="curve"/>
      <point x="803" y="101" type="line"/>
      <point x="794" y="79"/>
      <point x="779" y="46"/>
      <point x="752" y="35" type="curve"/>
      <point x="738" y="43"/>
      <point x="734" y="63"/>
      <point x="729" y="83" type="curve"/>
      <point x="767" y="94"/>
      <point x="788" y="147"/>
      <point x="788" y="195" type="curve" smooth="yes"/>
      <point x="788" y="237"/>
      <point x="773" y="263"/>
      <point x="747" y="275" type="curve" smooth="yes"/>
      <point x="746" y="276"/>
      <point x="746" y="276"/>
      <point x="746" y="276" type="curve"/>
      <point x="741" y="286"/>
      <point x="734" y="299"/>
      <point x="728" y="312" type="curve"/>
      <point x="794" y="322"/>
      <point x="815" y="408"/>
      <point x="836" y="450" type="curve"/>
      <point x="846" y="462" type="line"/>
      <point x="846" y="462"/>
      <point x="847" y="462"/>
      <point x="846" y="462" type="curve"/>
      <point x="835" y="462" type="line"/>
      <point x="837" y="476" type="line"/>
      <point x="837" y="476"/>
      <point x="839" y="477"/>
      <point x="836" y="477" type="curve"/>
      <point x="824" y="472" type="line"/>
      <point x="819" y="476"/>
      <point x="813" y="477"/>
      <point x="806" y="477" type="curve" smooth="yes"/>
      <point x="788" y="477"/>
      <point x="771" y="465"/>
      <point x="765" y="444" type="curve"/>
      <point x="754" y="434"/>
      <point x="688" y="423"/>
      <point x="621" y="411" type="curve"/>
      <point x="607" y="411"/>
      <point x="525" y="418"/>
      <point x="524" y="420" type="curve"/>
      <point x="520" y="420"/>
      <point x="519" y="416"/>
      <point x="522" y="413" type="curve"/>
      <point x="540" y="396"/>
      <point x="586" y="398"/>
      <point x="599" y="386" type="curve"/>
      <point x="627" y="353"/>
      <point x="661" y="320"/>
      <point x="698" y="312" type="curve"/>
      <point x="701" y="303"/>
      <point x="705" y="292"/>
      <point x="710" y="284" type="curve"/>
      <point x="706" y="285"/>
      <point x="701" y="285"/>
      <point x="697" y="285" type="curve" smooth="yes"/>
      <point x="693" y="285"/>
      <point x="690" y="285"/>
      <point x="685" y="284" type="curve"/>
      <point x="668" y="256"/>
      <point x="657" y="195"/>
      <point x="656" y="144" type="curve"/>
      <point x="655" y="139"/>
      <point x="655" y="135"/>
      <point x="655" y="130" type="curve" smooth="yes"/>
      <point x="655" y="67"/>
      <point x="682" y="12"/>
      <point x="750" y="12" type="curve"/>
      <point x="780" y="16"/>
      <point x="801" y="37"/>
      <point x="813" y="56" type="curve"/>
      <point x="819" y="31"/>
      <point x="839" y="12"/>
      <point x="876" y="12" type="curve"/>
      <point x="894" y="15"/>
      <point x="918" y="29"/>
      <point x="922" y="49" type="curve"/>
      <point x="931" y="29"/>
      <point x="952" y="5"/>
    </contour>
    <contour>
      <point x="278" y="-193" type="curve" smooth="yes"/>
      <point x="391" y="-193"/>
      <point x="438" y="-32"/>
      <point x="438" y="147" type="curve" smooth="yes"/>
      <point x="438" y="191"/>
      <point x="436" y="235"/>
      <point x="431" y="278" type="curve"/>
      <point x="412" y="297"/>
      <point x="373" y="314"/>
      <point x="349" y="311" type="curve"/>
      <point x="354" y="274"/>
      <point x="366" y="211"/>
      <point x="366" y="146" type="curve" smooth="yes"/>
      <point x="366" y="119"/>
      <point x="364" y="91"/>
      <point x="358" y="65" type="curve"/>
      <point x="356" y="60"/>
      <point x="354" y="49"/>
      <point x="343" y="46" type="curve"/>
      <point x="329" y="90"/>
      <point x="325" y="139"/>
      <point x="325" y="189" type="curve" smooth="yes"/>
      <point x="325" y="212"/>
      <point x="326" y="235"/>
      <point x="327" y="258" type="curve"/>
      <point x="309" y="275"/>
      <point x="275" y="281"/>
      <point x="261" y="284" type="curve"/>
      <point x="252" y="268"/>
      <point x="248" y="245"/>
      <point x="248" y="209" type="curve" smooth="yes"/>
      <point x="248" y="172"/>
      <point x="251" y="134"/>
      <point x="260" y="102" type="curve"/>
      <point x="250" y="79"/>
      <point x="227" y="39"/>
      <point x="191" y="27" type="curve"/>
      <point x="150" y="56"/>
      <point x="135" y="131"/>
      <point x="135" y="209" type="curve" smooth="yes"/>
      <point x="135" y="300"/>
      <point x="156" y="393"/>
      <point x="181" y="417" type="curve"/>
      <point x="191" y="404"/>
      <point x="203" y="361"/>
      <point x="203" y="325" type="curve" smooth="yes"/>
      <point x="203" y="319"/>
      <point x="202" y="312"/>
      <point x="202" y="306" type="curve"/>
      <point x="200" y="302"/>
      <point x="200" y="295"/>
      <point x="209" y="304" type="curve"/>
      <point x="234" y="326"/>
      <point x="252" y="354"/>
      <point x="252" y="388" type="curve" smooth="yes"/>
      <point x="252" y="476"/>
      <point x="189" y="491"/>
      <point x="147" y="500" type="curve"/>
      <point x="70" y="433"/>
      <point x="43" y="317"/>
      <point x="44" y="203" type="curve" smooth="yes"/>
      <point x="46" y="104"/>
      <point x="87" y="1"/>
      <point x="193" y="1" type="curve" smooth="yes"/>
      <point x="241" y="1"/>
      <point x="264" y="35"/>
      <point x="273" y="63" type="curve"/>
      <point x="289" y="33"/>
      <point x="311" y="12"/>
      <point x="345" y="12" type="curve" smooth="yes"/>
      <point x="354" y="12"/>
      <point x="362" y="20"/>
      <point x="366" y="25" type="curve"/>
      <point x="355" y="-67"/>
      <point x="354" y="-129"/>
      <point x="295" y="-167" type="curve"/>
      <point x="293" y="-158"/>
      <point x="292" y="-146"/>
      <point x="292" y="-135" type="curve" smooth="yes"/>
      <point x="292" y="-115"/>
      <point x="294" y="-95"/>
      <point x="296" y="-78" type="curve"/>
      <point x="278" y="-60"/>
      <point x="250" y="-52"/>
      <point x="227" y="-52" type="curve"/>
      <point x="222" y="-71"/>
      <point x="217" y="-92"/>
      <point x="217" y="-115" type="curve" smooth="yes"/>
      <point x="217" y="-165"/>
      <point x="230" y="-193"/>
    </contour>
    <contour>
      <point x="490" y="8" type="curve" smooth="yes"/>
      <point x="516" y="8"/>
      <point x="531" y="28"/>
      <point x="539" y="54" type="curve"/>
      <point x="546" y="74"/>
      <point x="546" y="113"/>
      <point x="546" y="136" type="curve"/>
      <point x="552" y="162"/>
      <point x="572" y="181"/>
      <point x="579" y="201" type="curve"/>
      <point x="583" y="170"/>
      <point x="598" y="154"/>
      <point x="623" y="154" type="curve" smooth="yes"/>
      <point x="630" y="154"/>
      <point x="637" y="156"/>
      <point x="646" y="158" type="curve"/>
      <point x="644" y="171"/>
      <point x="642" y="187"/>
      <point x="642" y="203" type="curve" smooth="yes"/>
      <point x="642" y="227"/>
      <point x="645" y="251"/>
      <point x="648" y="271" type="curve"/>
      <point x="639" y="290"/>
      <point x="612" y="297"/>
      <point x="583" y="300" type="curve"/>
      <point x="577" y="290"/>
      <point x="572" y="268"/>
      <point x="572" y="256" type="curve"/>
      <point x="565" y="237"/>
      <point x="555" y="216"/>
      <point x="539" y="186" type="curve"/>
      <point x="536" y="223"/>
      <point x="527" y="250"/>
      <point x="516" y="268" type="curve"/>
      <point x="509" y="277"/>
      <point x="499" y="283"/>
      <point x="486" y="285" type="curve" smooth="yes"/>
      <point x="475" y="288"/>
      <point x="460" y="290"/>
      <point x="441" y="291" type="curve"/>
      <point x="472" y="217"/>
      <point x="475" y="92"/>
      <point x="481" y="9" type="curve"/>
      <point x="484" y="8"/>
      <point x="487" y="8"/>
    </contour>
    <contour>
      <point x="727" y="107" type="curve"/>
      <point x="727" y="152"/>
      <point x="734" y="198"/>
      <point x="746" y="236" type="curve"/>
      <point x="751" y="227"/>
      <point x="758" y="206"/>
      <point x="758" y="186" type="curve" smooth="yes"/>
      <point x="758" y="151"/>
      <point x="749" y="110"/>
    </contour>
    <contour>
      <point x="736" y="279" type="curve"/>
      <point x="730" y="281"/>
      <point x="724" y="282"/>
      <point x="716" y="283" type="curve"/>
      <point x="708" y="311" type="line"/>
      <point x="719" y="311" type="line"/>
      <point x="724" y="299"/>
      <point x="730" y="288"/>
    </contour>
    <contour>
      <point x="875" y="39" type="curve"/>
      <point x="869" y="55"/>
      <point x="867" y="75"/>
      <point x="867" y="96" type="curve" smooth="yes"/>
      <point x="867" y="150"/>
      <point x="881" y="210"/>
      <point x="897" y="229" type="curve"/>
      <point x="896" y="221"/>
      <point x="896" y="209"/>
      <point x="896" y="194" type="curve" smooth="yes"/>
      <point x="896" y="164"/>
      <point x="898" y="123"/>
      <point x="906" y="87" type="curve"/>
      <point x="905" y="68"/>
      <point x="886" y="48"/>
    </contour>
    <contour>
      <point x="1080" y="183" type="curve"/>
      <point x="1084" y="256"/>
      <point x="1098" y="339"/>
      <point x="1111" y="396" type="curve"/>
      <point x="1114" y="382"/>
      <point x="1115" y="365"/>
      <point x="1115" y="345" type="curve" smooth="yes"/>
      <point x="1115" y="289"/>
      <point x="1104" y="217"/>
    </contour>
  </outline>
</glyph>
<glyph name="ringcomb.case" format="2">
  <outline>
    <contour>
      <point x="120" y="798" type="curve" smooth="yes"/>
      <point x="172" y="798"/>
      <point x="215" y="841"/>
      <point x="215" y="893" type="curve" smooth="yes"/>
      <point x="215" y="945"/>
      <point x="172" y="988"/>
      <point x="120" y="988" type="curve" smooth="yes"/>
      <point x="68" y="988"/>
      <point x="25" y="945"/>
      <point x="25" y="893" type="curve" smooth="yes"/>
      <point x="25" y="841"/>
      <point x="68" y="798"/>
    </contour>
    <contour>
      <point x="120" y="831" type="curve" smooth="yes"/>
      <point x="86" y="831"/>
      <point x="58" y="860"/>
      <point x="58" y="893" type="curve" smooth="yes"/>
      <point x="58" y="926"/>
      <point x="86" y="955"/>
      <point x="120" y="955" type="curve" smooth="yes"/>
      <point x="154" y="955"/>
      <point x="183" y="926"/>
      <point x="183" y="893" type="curve" smooth="yes"/>
      <point x="183" y="860"/>
      <point x="154" y="831"/>
    </contour>
  </outline>
</glyph>
<glyph name="tildecomb.case" format="2">
  <anchor x="226" y="800" name="_top"/>
  <anchor x="226" y="957" name="top"/>
  <outline>
    <contour>
      <point x="282" y="858" type="curve" smooth="yes"/>
      <point x="383" y="858"/>
      <point x="407" y="967"/>
      <point x="407" y="967" type="curve"/>
      <point x="379" y="971" type="line"/>
      <point x="368" y="938"/>
      <point x="348" y="922"/>
      <point x="323" y="922" type="curve" smooth="yes"/>
      <point x="268" y="922"/>
      <point x="241" y="993"/>
      <point x="169" y="993" type="curve" smooth="yes"/>
      <point x="68" y="993"/>
      <point x="44" y="884"/>
      <point x="44" y="884" type="curve"/>
      <point x="72" y="880" type="line"/>
      <point x="84" y="913"/>
      <point x="104" y="929"/>
      <point x="128" y="929" type="curve" smooth="yes"/>
      <point x="184" y="929"/>
      <point x="210" y="858"/>
    </contour>
  </outline>
</glyph>
